<?xml version="1.0" standalone="no"?>
<!DOCTYPE svg PUBLIC "-//W3C//DTD SVG 1.1//EN" "http://www.w3.org/Graphics/SVG/1.1/DTD/svg11.dtd" >
<svg>
<metadata>
Created by FontForge 20120731 at Mon Oct 31 20:09:54 2016
 By ,,,
Copyright (c) 2011 by Henrik Kubel, A2/SW/HK. All rights reserved.
</metadata>
<defs>
<font id="Antwerp-Light" horiz-adv-x="590" >
  <font-face 
    font-family="Antwerp Light"
    font-weight="600"
    font-stretch="normal"
    units-per-em="1000"
    panose-1="2 0 5 5 7 0 0 2 0 3"
    ascent="750"
    descent="-250"
    x-height="477"
    cap-height="705"
    bbox="-193 -319 1197 1030"
    underline-thickness="20"
    underline-position="-113"
    unicode-range="U+0020-FB04"
  />
<missing-glyph horiz-adv-x="253" 
 />
    <glyph glyph-name="f_f" unicode="ff" horiz-adv-x="633" 
d="M198 470h207q0 77 23 135t61 90t81 47.5t90 15.5q33 0 66.5 -12t33.5 -32q0 -16 -24 -41t-47 -25q-1 0 -12.5 15t-32 29.5t-43.5 14.5q-56 0 -83 -51q-26 -49 -26 -187l118 7l-8 -56l-110 17v-352q0 -24 9.5 -35t35.5 -16l54 -10v-29l-143 5l-122 -5v29l30 7
q29 7 39 16.5t10 31.5v357h-207v-351q0 -24 9 -35t36 -16l53 -10v-29l-142 5l-123 -5v29l31 7q29 7 39 16.5t10 31.5v357h-76v34h76q0 65 18.5 115t49.5 78.5t66.5 43t73.5 14.5q33 0 61 -7.5t28 -22.5q0 -17 -19 -41t-41 -24q-1 0 -10.5 12t-27 24t-36.5 12q-50 0 -67 -67
q-9 -35 -9 -137z" />
    <glyph glyph-name="f_i" unicode="fi" horiz-adv-x="591" 
d="M198 469l154 5q27 1 53.5 6t40.5 10l13 5h36q-3 -73 -3 -170v-246q0 -23 10 -32t39 -16l30 -7v-29l-122 5l-123 -5v29l30 7q29 7 39 16.5t10 31.5v344l-207 14v-352q0 -24 9 -35t36 -16l53 -10v-29l-142 5l-123 -5v29l31 7q29 7 39 16.5t10 31.5v357h-76v34h76
q0 77 23 135t61 90t81 47.5t90 15.5q33 0 66.5 -12t33.5 -32q0 -16 -24 -41t-47 -25q-1 0 -12.5 15t-32 29.5t-43.5 14.5q-56 0 -83 -51q-26 -49 -26 -187z" />
    <glyph glyph-name="f_l" unicode="fl" 
d="M35 470h76q0 77 22.5 135t60 90t80 47.5t89.5 15.5q58 0 89 -23l12 10h31q-3 -137 -3 -221v-445q0 -23 10 -32.5t39 -15.5l35 -7v-29l-127 5l-124 -5v29l31 7q29 6 39 15.5t10 32.5v569q0 21 -30.5 40t-67.5 19q-56 0 -83 -51q-26 -49 -26 -187l118 7l-8 -56l-110 17
v-352q0 -24 9 -35t36 -16l53 -10v-29l-142 5l-123 -5v29l31 7q29 7 39 16.5t10 31.5v357h-76v34z" />
    <glyph glyph-name="f_b" unicode="fb" horiz-adv-x="901" 
d="M644 489q89 0 151.5 -65.5t62.5 -181.5q0 -102 -66.5 -179.5t-178.5 -77.5q-73 0 -137 29l-43 -22l-28 6v650q0 21 -30.5 40t-67.5 19q-56 0 -83 -51q-26 -49 -26 -187l118 7l-8 -56l-110 17v-352q0 -24 9 -35t36 -16l53 -10v-29l-142 5l-123 -5v29l31 7q29 7 39 16.5
t10 31.5v357h-76v34h76q0 77 22.5 135t60 90t80 47.5t89.5 15.5q58 0 89 -23l12 12h31q-3 -129 -3 -213q0 -28 -3 -59t-6 -49l-3 -17l9 -2q22 37 64.5 59.5t90.5 22.5zM608 429q-59 0 -87.5 -27.5t-28.5 -63.5v-201q0 -55 30 -86t92 -31q70 0 110.5 52.5t40.5 152.5
q0 97 -45.5 150.5t-111.5 53.5z" />
    <glyph glyph-name="f_h" unicode="fh" horiz-adv-x="889" 
d="M405 79v569q0 21 -30.5 40t-67.5 19q-56 0 -83 -51q-26 -49 -26 -187l118 7l-8 -56l-110 17v-352q0 -24 9 -35t36 -16l53 -10v-29l-142 5l-123 -5v29l31 7q29 7 39 16.5t10 31.5v357h-76v34h76q0 77 23 135t61 90t81 47.5t90 15.5q52 0 83 -23l15 10h28v-211
q0 -43 -4 -74.5t-8 -41.5l-4 -10l9 -1q18 28 60 55t97 27q159 0 159 -164l-2 -246q0 -22 10 -31.5t38 -16.5l30 -7v-29l-122 5l-123 -5v29l31 7q34 8 42 33q8 27 8 199q0 38 -3.5 65t-14 54t-33 40.5t-56.5 13.5q-70 0 -92 -38.5t-22 -119.5v-199q0 -23 10.5 -32.5
t38.5 -15.5l30 -7v-29l-123 5l-113 -5v29l21 7q30 10 39.5 18t9.5 30z" />
    <glyph glyph-name="f_j" unicode="fj" horiz-adv-x="591" 
d="M198 469l154 5q27 1 53.5 6t40.5 10l13 5h36q-3 -73 -3 -170v-240q0 -23 10 -32.5t39 -16.5l30 -7v-29h-80v-83q0 -67 -45 -108.5t-120 -49.5l-17 25q54 18 75 52t21 99v488l-207 14v-352q0 -24 9 -35t36 -16l53 -10v-29l-142 5l-123 -5v29l31 7q29 7 39 16.5t10 31.5
v357h-76v34h76q0 77 23 135t61 90t81 47.5t90 15.5q33 0 66.5 -12t33.5 -32q0 -16 -24 -41t-47 -25q-1 0 -12.5 15t-32 29.5t-43.5 14.5q-56 0 -83 -51q-26 -49 -26 -187z" />
    <glyph glyph-name="f_k" unicode="fk" horiz-adv-x="868" 
d="M366 758q52 0 83 -23l15 10h28v-463h55l117 108q16 16 11 30.5t-26 17.5l-39 5v34l102 -5l132 5v-29l-28 -7q-48 -13 -91 -49l-115 -100l157 -214q13 -18 25 -26.5t34 -14.5l32 -9v-29l-122 1l-27 -2q-13 27 -55 88.5t-78 109.5l-35 47h-49v-164q0 -23 10 -32t39 -16
l30 -7v-29l-122 5l-123 -5v29l30 7q29 7 39 16.5t10 31.5v569q0 21 -30.5 40t-67.5 19q-56 0 -83 -51q-26 -49 -26 -187l118 7l-8 -56l-110 17v-352q0 -24 9 -35t36 -16l53 -10v-29l-142 5l-123 -5v29l31 7q29 7 39 16.5t10 31.5v357h-76v34h76q0 77 23 135t61 90t81 47.5
t90 15.5z" />
    <glyph glyph-name="f_f_i" unicode="ffi" horiz-adv-x="885" 
d="M198 470h207q0 77 23 135t61 90t81 47.5t90 15.5q33 0 66.5 -12t33.5 -32q0 -16 -24 -41t-47 -25q-1 0 -12.5 15t-32 29.5t-43.5 14.5q-56 0 -83 -51q-26 -49 -26 -187l154 5q27 1 53.5 6t40.5 10l13 5h36q-3 -73 -3 -170v-246q0 -22 10 -31.5t39 -16.5l30 -7v-29l-122 5
l-123 -5v29l30 7q29 7 39 16.5t10 31.5v344l-207 14v-352q0 -24 9.5 -35t35.5 -16l54 -10v-29l-143 5l-122 -5v29l30 7q29 7 39 16.5t10 31.5v357h-207v-351q0 -24 9 -35t36 -16l53 -10v-29l-142 5l-123 -5v29l31 7q29 7 39 16.5t10 31.5v357h-76v34h76q0 65 18.5 115
t49.5 78.5t66.5 43t73.5 14.5q33 0 61 -7.5t28 -22.5q0 -17 -19 -41t-41 -24q-1 0 -10.5 12t-27 24t-36.5 12q-50 0 -67 -67q-9 -35 -9 -137z" />
    <glyph glyph-name="f_f_l" unicode="ffl" horiz-adv-x="884" 
d="M492 469l118 7l-8 -56l-110 17v-352q0 -24 9 -35t36 -16l53 -10v-29l-142 5l-123 -5v29l31 7q29 7 39 16.5t10 31.5v357h-207v-351q0 -24 9 -35t36 -16l53 -10v-29l-142 5l-123 -5v29l31 7q29 7 39 16.5t10 31.5v357h-76v34h76q0 65 18.5 115t49.5 78.5t66.5 43
t73.5 14.5q33 0 61 -7.5t28 -22.5q0 -17 -19 -41t-41 -24q-1 0 -10.5 12t-27 24t-36.5 12q-50 0 -67 -67q-9 -35 -9 -137h207q0 77 22.5 135t60 90t80 47.5t89.5 15.5q58 0 89 -23l12 10h31q-3 -137 -3 -221v-445q0 -23 10 -32.5t39 -15.5l35 -7v-29l-127 5l-124 -5v29l31 7
q29 6 39 15.5t10 32.5v569q0 21 -30.5 40t-67.5 19q-56 0 -83 -51q-26 -49 -26 -187z" />
    <glyph glyph-name="f_f_b" unicode="ffb" horiz-adv-x="1195" 
d="M657 758q58 0 89 -23l12 12h31q-3 -129 -3 -213q0 -28 -3 -59t-6 -49l-3 -17l9 -2q22 37 64.5 59.5t90.5 22.5q89 0 151.5 -65.5t62.5 -181.5q0 -102 -66.5 -179.5t-178.5 -77.5q-73 0 -137 29l-43 -22l-28 6v650q0 21 -30.5 40t-67.5 19q-56 0 -83 -51q-26 -49 -26 -187
l118 7l-8 -56l-110 17v-352q0 -24 9 -35t36 -16l53 -10v-29l-142 5l-123 -5v29l31 7q29 7 39 16.5t10 31.5v357h-207v-351q0 -24 9 -35t36 -16l53 -10v-29l-142 5l-123 -5v29l31 7q29 7 39 16.5t10 31.5v357h-76v34h76q0 65 18.5 115t49.5 78.5t66.5 43t73.5 14.5
q33 0 61 -7.5t28 -22.5q0 -17 -19 -41t-41 -24q-1 0 -10.5 12t-27 24t-36.5 12q-50 0 -67 -67q-9 -35 -9 -137h207q0 77 22.5 135t60 90t80 47.5t89.5 15.5zM902 429q-59 0 -87.5 -27.5t-28.5 -63.5v-201q0 -55 30 -86t92 -31q70 0 110.5 52.5t40.5 152.5q0 97 -45.5 150.5
t-111.5 53.5z" />
    <glyph glyph-name="f_f_h" unicode="ffh" horiz-adv-x="1183" 
d="M405 436h-207v-351q0 -24 9 -35t36 -16l53 -10v-29l-142 5l-123 -5v29l31 7q29 7 39 16.5t10 31.5v357h-76v34h76q0 65 18.5 115t49.5 78.5t66.5 43t73.5 14.5q33 0 61 -7.5t28 -22.5q0 -17 -19 -41t-41 -24q-1 0 -10.5 12t-27 24t-36.5 12q-50 0 -67 -67q-9 -35 -9 -137
h207q0 77 23 135t61 90t81 47.5t90 15.5q52 0 83 -23l15 10h28v-211q0 -43 -4 -74.5t-8 -41.5l-4 -10l9 -1q18 28 60 55t97 27q159 0 159 -164l-2 -246q0 -22 10 -31.5t38 -16.5l30 -7v-29l-122 5l-123 -5v29l31 7q34 8 42 33q8 27 8 199q0 38 -3.5 65t-14 54t-33 40.5
t-56.5 13.5q-70 0 -92 -38.5t-22 -119.5v-199q0 -23 10.5 -32.5t38.5 -15.5l30 -7v-29l-123 5l-113 -5v29l21 7q30 10 39.5 18t9.5 30v569q0 21 -30.5 40t-67.5 19q-56 0 -83 -51q-26 -49 -26 -187l118 7l-8 -56l-110 17v-352q0 -24 9 -35t36 -16l53 -10v-29l-142 5l-123 -5
v29l31 7q29 7 39 16.5t10 31.5v357z" />
    <glyph glyph-name="f_f_j" unicode="ffj" horiz-adv-x="885" 
d="M198 470h207q0 77 23 135t61 90t81 47.5t90 15.5q33 0 66.5 -12t33.5 -32q0 -16 -24 -41t-47 -25q-1 0 -12.5 15t-32 29.5t-43.5 14.5q-56 0 -83 -51q-26 -49 -26 -187l154 5q27 1 53.5 6t40.5 10l13 5h36q-3 -73 -3 -170v-240q0 -23 10 -32.5t39 -16.5l30 -7v-29h-80
v-83q0 -67 -45 -108.5t-120 -49.5l-17 25q54 18 75 52t21 99v488l-207 14v-352q0 -24 9.5 -35t35.5 -16l54 -10v-29l-143 5l-122 -5v29l30 7q29 7 39 16.5t10 31.5v357h-207v-351q0 -24 9 -35t36 -16l53 -10v-29l-142 5l-123 -5v29l31 7q29 7 39 16.5t10 31.5v357h-76v34h76
q0 65 18.5 115t49.5 78.5t66.5 43t73.5 14.5q33 0 61 -7.5t28 -22.5q0 -17 -19 -41t-41 -24q-1 0 -10.5 12t-27 24t-36.5 12q-50 0 -67 -67q-9 -35 -9 -137z" />
    <glyph glyph-name="f_f_k" unicode="ffk" horiz-adv-x="1162" 
d="M198 470h207q0 77 23 135t61 90t81 47.5t90 15.5q52 0 83 -23l15 10h28v-463h55l117 108q16 16 11 30.5t-26 17.5l-39 5v34l102 -5l132 5v-29l-28 -7q-48 -13 -91 -49l-115 -100l157 -214q13 -18 25 -26.5t34 -14.5l32 -9v-29l-122 1l-27 -2q-13 27 -55 88.5t-78 109.5
l-35 47h-49v-164q0 -23 10 -32t39 -16l30 -7v-29l-122 5l-123 -5v29l30 7q29 7 39 16.5t10 31.5v569q0 21 -30.5 40t-67.5 19q-56 0 -83 -51q-26 -49 -26 -187l118 7l-8 -56l-110 17v-352q0 -24 9 -35t36 -16l53 -10v-29l-142 5l-123 -5v29l31 7q29 7 39 16.5t10 31.5v357
h-207v-351q0 -24 9 -35t36 -16l53 -10v-29l-142 5l-123 -5v29l31 7q29 7 39 16.5t10 31.5v357h-76v34h76q0 65 18.5 115t49.5 78.5t66.5 43t73.5 14.5q33 0 61 -7.5t28 -22.5q0 -17 -19 -41t-41 -24q-1 0 -10.5 12t-27 24t-36.5 12q-50 0 -67 -67q-9 -35 -9 -137z" />
    <glyph glyph-name="f_f_f" unicode="fff" horiz-adv-x="928" 
d="M492 470h207q0 77 23 135t61 90t81 47.5t90 15.5q33 0 66.5 -12t33.5 -32q0 -16 -24 -41t-47 -25q-1 0 -12.5 15t-32 29.5t-43.5 14.5q-56 0 -83 -51q-26 -49 -26 -187l118 7l-7 -56l-111 17v-352q0 -24 9.5 -35t35.5 -16l54 -10v-29l-143 5l-122 -5v29l30 7
q29 7 39 16.5t10 31.5v357h-207v-351q0 -24 9.5 -35t35.5 -16l54 -10v-29l-143 5l-122 -5v29l30 7q29 7 39 16.5t10 31.5v357h-207v-351q0 -24 9 -35t36 -16l53 -10v-29l-142 5l-123 -5v29l31 7q29 7 39 16.5t10 31.5v357h-76v34h76q0 65 18.5 115t49.5 78.5t66.5 43
t73.5 14.5q33 0 61 -7.5t28 -22.5q0 -17 -19 -41t-41 -24q-1 0 -10.5 12t-27 24t-36.5 12q-50 0 -67 -67q-9 -35 -9 -137h207q0 65 18.5 115t49.5 78.5t66.5 43t73.5 14.5q33 0 61 -7.5t28 -22.5q0 -17 -19 -41t-41 -24q-1 0 -10.5 12t-27 24t-36.5 12q-50 0 -67 -67
q-9 -35 -9 -137z" />
    <glyph glyph-name=".notdef" horiz-adv-x="253" 
 />
    <glyph glyph-name=".null" horiz-adv-x="0" 
 />
    <glyph glyph-name="nonmarkingreturn" horiz-adv-x="333" 
 />
    <glyph glyph-name="space" unicode=" " horiz-adv-x="180" 
 />
    <glyph glyph-name="exclam" unicode="!" horiz-adv-x="301" 
d="M165 220h-30q-10 185 -34 331q-15 88 -15 104q0 28 17 44t48 16q29 0 46 -16t17 -44q0 -16 -15 -104q-24 -146 -34 -331zM73 63q0 32 23 55t55 23t54.5 -23t22.5 -55t-22.5 -55t-54.5 -23t-55 23t-23 55z" />
    <glyph glyph-name="quotedbl" unicode="&#x22;" horiz-adv-x="421" 
d="M60 405v310h121l-86 -310h-35zM255 405v310h121l-86 -310h-35z" />
    <glyph glyph-name="numbersign" unicode="#" 
d="M224 700v-234h140v234h42v-234h150v-39h-150v-138h150v-39h-150v-250h-42v250h-140v-250h-40v250h-151v39h151v138h-151v39h151v234h40zM224 427v-138h140v138h-140z" />
    <glyph glyph-name="dollar" unicode="$" 
d="M152 101q13 -30 46 -48t74 -22v284l-34 16q-75 35 -118 80.5t-43 116.5q0 70 52.5 122t142.5 62v124h39v-121h3q42 0 88.5 -6.5t74 -13t33.5 -9.5q-12 -92 -19 -174h-38q-18 60 -36 118q-5 14 -32 26t-74 13v-249q104 -50 138 -74q82 -60 82 -147q0 -93 -61.5 -149.5
t-158.5 -63.5v-153h-39v152q-48 2 -99 12t-79 19l-27 10q0 103 -6 203l41 5q14 -57 50 -133zM441 153q0 48 -33 80t-97 64v-267q55 5 92.5 37.5t37.5 85.5zM169 558q0 -38 26.5 -65.5t76.5 -53.5v227q-47 -8 -75 -37t-28 -71z" />
    <glyph glyph-name="percent" unicode="%" horiz-adv-x="784" 
d="M716 687l-621 -698l-29 29l621 694zM193 709q64 0 104 -51.5t40 -126.5t-40 -127t-104 -52t-104 52t-40 127t40 126.5t104 51.5zM193 385q66 0 66 146q0 147 -66 147t-66 -147q0 -146 66 -146zM593 343q65 0 105 -51.5t40 -126.5q0 -76 -40 -127.5t-105 -51.5t-105 51.5
t-40 127.5q0 75 40 126.5t105 51.5zM593 19q66 0 66 146t-66 146t-66 -146t66 -146z" />
    <glyph glyph-name="ampersand" unicode="&#x26;" horiz-adv-x="830" 
d="M408 580q0 50 -31.5 78.5t-73.5 28.5q-41 0 -71 -26.5t-30 -72.5q0 -42 24 -79.5t87 -80.5q45 27 70 69t25 83zM311 51q51 0 94.5 29t72.5 78l-222 205q-46 -24 -71 -68t-25 -91q0 -64 41 -108.5t110 -44.5zM556 207l146 -135q33 -32 106 -43v-33l-87 4l-75 -4l-141 135
q-95 -146 -233 -146q-96 0 -150 56.5t-54 132.5q0 78 52 137t143 81q-63 16 -104 61.5t-41 104.5q0 67 48.5 114.5t139.5 47.5q73 0 122.5 -41t49.5 -105q0 -50 -36.5 -95.5t-108.5 -68.5l195 -178l21 35q50 79 50 112q0 28 -39 35l-54 10v35l134 -4l125 5v-36l-42 -9
q-26 -5 -44.5 -26t-53.5 -75z" />
    <glyph glyph-name="quotesingle" unicode="'" horiz-adv-x="226" 
d="M60 405v310h121l-86 -310h-35z" />
    <glyph glyph-name="parenleft" unicode="(" horiz-adv-x="315" 
d="M41 286v19q0 131 69 263t182 192l15 -22q-50 -35 -86 -91t-53.5 -117.5t-25 -115.5t-7.5 -106v-24q0 -72 12.5 -144.5t53.5 -156.5t107 -130l-15 -21q-115 59 -183.5 190.5t-68.5 263.5z" />
    <glyph glyph-name="parenright" unicode=")" horiz-adv-x="315" 
d="M274 305v-19q0 -132 -68.5 -263.5t-183.5 -190.5l-15 21q66 46 107 130t53.5 156.5t12.5 144.5v24q0 52 -7.5 106t-25 115.5t-53.5 117.5t-86 91l15 22q113 -60 182 -192t69 -263z" />
    <glyph glyph-name="asterisk" unicode="*" 
d="M310 442l190 -63l17 -63l-62 -27l-151 130l37 -194l-47 -45l-47 44l36 195l-148 -132l-63 29l18 62l183 64l-183 64l-18 62l63 28l148 -131l-36 195l47 44l47 -45l-37 -194l151 130l62 -27l-17 -63z" />
    <glyph glyph-name="plus" unicode="+" 
d="M64 338v40h211v215h40v-215h211v-40h-211v-216h-40v216h-211z" />
    <glyph glyph-name="comma" unicode="," horiz-adv-x="281" 
d="M51 -150l-13 25q49 24 74.5 55t25.5 62q0 29 -22.5 51.5t-64.5 34.5q-1 2 -1 6q0 23 28.5 50t52.5 27q35 0 65.5 -32t30.5 -79q0 -66 -53 -121.5t-123 -78.5z" />
    <glyph glyph-name="hyphen" unicode="-" horiz-adv-x="378" 
d="M310 241h-242v69h242v-69z" />
    <glyph glyph-name="period" unicode="." horiz-adv-x="266" 
d="M56 63q0 32 22.5 55t54.5 23t54.5 -23t22.5 -55t-22.5 -55t-54.5 -23t-54.5 23t-22.5 55z" />
    <glyph glyph-name="slash" unicode="/" horiz-adv-x="534" 
d="M512 815l-452 -949l-37 18l450 950z" />
    <glyph glyph-name="zero" unicode="0" 
d="M294 712q112 0 178 -105t66 -257q0 -98 -28 -180t-84.5 -133.5t-131.5 -51.5q-111 0 -177 106.5t-66 258.5q0 151 66 256.5t177 105.5zM294 23q66 0 100.5 75t34.5 252t-34.5 250t-100.5 73t-100 -72.5t-34 -250.5q0 -177 34.5 -252t99.5 -75z" />
    <glyph glyph-name="one" unicode="1" 
d="M308 704h63q-5 -263 -5 -471q0 -61 2 -141q1 -38 47 -45l89 -12v-42l-194 7l-182 -7v42l83 12q53 7 53 45q1 164 1 236q0 201 -2 242t-13 41q-4 0 -136 -28v46z" />
    <glyph glyph-name="two" unicode="2" 
d="M66 -1v60q161 160 231 235q60 64 81 110t21 97q0 72 -35 118t-110 46q-28 0 -52 -10t-24 -34v-111l-25 -20q-36 1 -60.5 25.5t-24.5 58.5q0 50 62 94t163 44q93 0 153.5 -49.5t60.5 -135.5q0 -53 -28 -96.5t-104 -120.5l-211 -214l361 7l-17 -105q-117 2 -267 2
q-151 0 -175 -1z" />
    <glyph glyph-name="three" unicode="3" 
d="M102 594l-21 31q95 87 227 87q85 0 130.5 -41t45.5 -99q0 -67 -50 -111t-128 -58q77 -2 144.5 -56.5t67.5 -139.5q0 -100 -76 -161t-194 -61q-95 0 -143 30t-48 79q0 32 25.5 51.5t62.5 21.5l24 -20v-100q0 -24 70 -24q88 0 133 45.5t45 107.5q0 68 -51.5 113t-151.5 45
l-65 -3l2 59q228 30 228 153q0 46 -32.5 76t-96.5 30q-80 0 -148 -55z" />
    <glyph glyph-name="four" unicode="4" 
d="M337 89v112h-307v49q16 35 124 209t179 278l85 -3q-270 -377 -330 -483h249v18q0 128 -6 170l106 3v-191h113v-50h-113v-112q0 -23 10 -32.5t39 -15.5l44 -10v-36l-144 5l-141 -5v36l44 10q28 6 38 15.5t10 32.5z" />
    <glyph glyph-name="five" unicode="5" 
d="M252 23q79 0 130.5 46.5t51.5 112.5q0 50 -21.5 87.5t-58.5 58.5t-81 31t-95 10q-42 0 -82 -4l18 335l401 10l-7 -101q-32 -5 -131 -5l-222 2l-8 -142q26 2 50 2q44 0 86.5 -7t86 -24.5t76 -44t53 -68t20.5 -93.5q0 -97 -74.5 -170.5t-191.5 -73.5q-93 0 -142 30.5
t-49 78.5q0 32 25.5 51.5t62.5 21.5l24 -20v-100q0 -24 78 -24z" />
    <glyph glyph-name="six" unicode="6" 
d="M162 228q0 -46 13.5 -88.5t47 -75.5t82.5 -33q66 0 104 54.5t38 130.5q0 83 -40 137.5t-106 54.5t-102.5 -52.5t-36.5 -127.5zM301 -15q-118 0 -184.5 83t-66.5 204q0 184 118.5 317.5t323.5 185.5l14 -32q-248 -89 -358 -373l13 -3q25 44 71 69t106 25q87 0 149.5 -61.5
t62.5 -169.5q0 -106 -69.5 -175.5t-179.5 -69.5z" />
    <glyph glyph-name="seven" unicode="7" 
d="M247 -27l-129 -11q91 287 366 654l-2 3q-80 -30 -215 -30h-203l1 105h475v-67q-10 -17 -26.5 -46.5t-61 -113.5t-81 -161t-73.5 -171.5t-51 -161.5z" />
    <glyph glyph-name="eight" unicode="8" 
d="M58 171q0 74 51.5 124t112.5 67q-58 25 -97.5 68.5t-39.5 103.5q0 87 63 134t153 47t150 -44t60 -121q0 -113 -144 -156q171 -71 171 -210q0 -76 -65.5 -137.5t-180.5 -61.5t-174.5 58t-59.5 128zM442 157q0 68 -46 109.5t-141 76.5q-104 -60 -104 -167q0 -63 39.5 -107
t109.5 -44q64 0 103 36.5t39 95.5zM177 564q0 -53 36.5 -86.5t113.5 -65.5q49 19 76 58t27 85q0 57 -38 90t-90 33q-50 0 -87.5 -30.5t-37.5 -83.5z" />
    <glyph glyph-name="nine" unicode="9" 
d="M427 473q0 74 -36 133.5t-107 59.5q-66 0 -104 -54t-38 -129q0 -83 39.5 -136.5t105.5 -53.5t103 52.5t37 127.5zM287 712q119 0 185.5 -81t66.5 -202q0 -184 -118.5 -317.5t-323.5 -185.5l-14 32q248 89 358 373l-13 3q-53 -94 -171 -94q-87 0 -152.5 62t-65.5 169
q0 106 69 173.5t179 67.5z" />
    <glyph glyph-name="colon" unicode=":" horiz-adv-x="290" 
d="M68 63q0 32 22.5 55t54.5 23t54.5 -23t22.5 -55t-22.5 -55t-54.5 -23t-54.5 23t-22.5 55zM68 394q0 32 22.5 55t54.5 23t54.5 -23t22.5 -55t-22.5 -55t-54.5 -23t-54.5 23t-22.5 55z" />
    <glyph glyph-name="semicolon" unicode=";" horiz-adv-x="292" 
d="M63 -150l-13 25q49 24 74.5 55t25.5 62q0 29 -22.5 51.5t-64.5 34.5q-1 2 -1 6q0 23 28.5 50t52.5 27q35 0 65.5 -32t30.5 -79q0 -66 -53 -121.5t-123 -78.5zM69 394q0 32 22.5 55t54.5 23t54.5 -23t22.5 -55t-22.5 -55t-54.5 -23t-54.5 23t-22.5 55z" />
    <glyph glyph-name="less" unicode="&#x3c;" 
d="M80 352l423 -164v-43l-462 183v61l462 183v-43l-423 -164v-13z" />
    <glyph glyph-name="equal" unicode="=" 
d="M64 289h462v-39h-462v39zM64 466h462v-39h-462v39z" />
    <glyph glyph-name="greater" unicode="&#x3e;" 
d="M86 188l424 164v13l-424 164v43l463 -183v-61l-463 -183v43z" />
    <glyph glyph-name="question" unicode="?" horiz-adv-x="452" 
d="M184 683q-55 0 -55 -31v-106l-22 -17q-31 1 -52 24t-21 56q0 41 43.5 73.5t123.5 32.5q90 0 145.5 -40.5t55.5 -114.5q0 -47 -30.5 -96.5t-66.5 -83t-66.5 -69t-30.5 -58.5q0 -19 4 -43l-25 6l-30 76q3 35 26 72t48.5 63.5t46.5 63.5t21 74q0 53 -28.5 85.5t-86.5 32.5z
M123 63q0 32 22.5 55t54.5 23t54.5 -23t22.5 -55t-22.5 -55t-54.5 -23t-54.5 23t-22.5 55z" />
    <glyph glyph-name="at" unicode="@" horiz-adv-x="938" 
d="M564 61q-13 -27 -46.5 -51.5t-82.5 -24.5q-62 0 -99.5 36.5t-37.5 86.5q0 145 267 163v65q0 121 -95 121q-63 0 -63 -39v-80l-24 -16q-31 5 -52 23t-21 48q0 39 52 67.5t137 28.5q81 0 119 -37t38 -121q0 -39 -4 -126.5t-4 -108.5q0 -60 55 -60q54 0 90.5 38t51 88.5
t14.5 106.5q0 150 -100.5 251t-260.5 101q-90 0 -162.5 -33t-117 -88.5t-67.5 -124t-23 -144.5q0 -77 25.5 -148t73 -128t123 -91t167.5 -34q56 0 124.5 17.5t116.5 54.5l15 -22q-49 -44 -125 -67.5t-149 -23.5q-201 1 -326 122.5t-125 315.5q0 190 126.5 311.5t317.5 121.5
q184 -1 296 -114.5t112 -277.5q0 -129 -64 -206t-167 -77q-40 0 -69 20t-36 56zM389 126q0 -38 23.5 -61t59.5 -23q37 0 63 23.5t27 74.5l3 103q-31 -5 -45.5 -7.5t-44 -11.5t-45 -20t-28.5 -31t-13 -47z" />
    <glyph glyph-name="A" unicode="A" horiz-adv-x="751" 
d="M470 291h-244l-71 -202q-8 -21 1.5 -32t38.5 -16l52 -10v-36l-153 5l-105 -5v36l50 10q23 4 35 14.5t21 32.5l242 619l68 19q111 -299 253 -637q10 -23 20 -33.5t33 -14.5l50 -10v-36l-154 5l-156 -5v36l54 10q29 5 39 16t3 32zM455 335l-107 285l-106 -285h213z" />
    <glyph glyph-name="B" unicode="B" horiz-adv-x="706" 
d="M250 109q0 -46 28 -61q24 -14 100 -14q74 0 117 41t43 113q0 69 -40.5 112.5t-130.5 43.5h-119zM248 662v-265q46 -13 100 -13q93 1 129 36t36 108q0 65 -38.5 101.5t-112.5 36.5q-18 0 -114 -4zM44 669v36l154 -5q125 4 207 4q91 0 150 -45t59 -122q0 -64 -41 -109.5
t-125 -59.5v-7q87 -8 142 -59.5t55 -125.5q0 -31 -12.5 -61t-40.5 -59t-82 -46.5t-127 -17.5q-65 0 -185 8l-154 -5v36l54 10q28 5 38 15t11 33q3 95 3 260l-3 261q-2 25 -11.5 34.5t-37.5 14.5z" />
    <glyph glyph-name="C" unicode="C" horiz-adv-x="737" 
d="M158 376q0 -154 82.5 -242t230.5 -88q62 0 117 16l57 155h36q-3 -81 -3 -173q-12 -7 -33.5 -16.5t-89.5 -26t-136 -16.5q-172 0 -269 103.5t-97 257.5q0 155 105.5 262t268.5 107q94 0 172 -26l79 11l-22 -211h-32l-18 54q-43 129 -179 129q-49 0 -93.5 -14t-85.5 -45.5
t-65.5 -92.5t-24.5 -144z" />
    <glyph glyph-name="D" unicode="D" horiz-adv-x="845" 
d="M198 0l-154 -5v36l54 10q28 5 38 15t11 33q3 95 3 260l-3 261q-2 25 -11.5 34.5t-37.5 14.5l-54 10v36l154 -5q123 10 215 10q182 0 280 -101.5t98 -250.5q0 -164 -105.5 -265t-310.5 -101q-57 0 -177 8zM266 666q-12 0 -15 -3.5t-3 -12.5v-541q0 -49 33 -62.5t117 -13.5
q39 0 74.5 7t74.5 27t67.5 52.5t47 88.5t18.5 129q0 156 -78.5 242t-231.5 86q-18 0 -55.5 0.5t-48.5 0.5z" />
    <glyph glyph-name="E" unicode="E" horiz-adv-x="693" 
d="M248 377q78 1 137 4q24 2 35.5 12.5t18.5 38.5l14 55h35l-5 -128l5 -132h-35l-14 55q-8 28 -19 39t-35 12l-137 4v-228q0 -63 73 -63h123q43 0 70 15t54 65l47 86h34l-34 -217q-136 5 -196 5h-221l-154 -5v36l54 10q28 5 38.5 15.5t10.5 32.5q3 95 3 260l-3 261
q-2 25 -11.5 34.5t-37.5 14.5l-54 10v36l154 -5h251q26 0 66 3t67 5l26 3q-8 -61 -18 -203h-36l-12 49q-13 50 -30.5 74t-46.5 24h-199q-12 0 -15 -3.5t-3 -12.5v-262z" />
    <glyph glyph-name="F" unicode="F" horiz-adv-x="664" 
d="M198 0l-154 -5v36l54 10q28 5 38 15t11 33q3 95 3 260l-3 261q-2 25 -11.5 34.5t-37.5 14.5l-54 10v36l154 -5h270q27 0 67 3t67 5l26 3q-8 -61 -18 -203h-36l-13 49q-14 51 -30.5 74.5t-45.5 23.5h-219q-12 0 -15 -3.5t-3 -12.5v-282q108 1 166 4q25 1 36 12t18 39
l14 55h35l-5 -128l5 -132h-35l-14 55q-8 28 -19 39t-35 12l-166 4v-228q0 -23 10.5 -33.5t38.5 -14.5l64 -10v-36z" />
    <glyph glyph-name="G" unicode="G" horiz-adv-x="815" 
d="M600 74v150q0 24 -10 34t-39 15l-63 10v38l166 -5l131 5v-38l-34 -10q-29 -9 -39 -17.5t-10 -31.5v-181q-141 -58 -252 -58q-91 0 -162.5 24t-114.5 61t-70.5 87t-38 96.5t-10.5 95.5q0 87 33 158t88 115.5t124 68.5t143 24q111 0 193 -28l80 16l-22 -214h-32l-43 134
q-1 5 -24.5 15t-64 19.5t-78.5 9.5q-131 0 -210.5 -82.5t-79.5 -218.5q0 -64 18.5 -121.5t55.5 -106t102.5 -77t150.5 -28.5q39 0 75.5 11t36.5 30z" />
    <glyph glyph-name="H" unicode="H" horiz-adv-x="880" 
d="M245 379h390l-3 232q-1 23 -11 33t-38 15l-54 10v36l153 -5l154 5v-36l-54 -10q-28 -5 -38 -15t-11 -33q-3 -89 -3 -254l3 -268q1 -23 11 -33t38 -15l54 -10v-36l-154 5l-153 -5v36l54 10q28 5 38 15t11 33q3 90 3 246h-390l3 -246q1 -23 11 -33t38 -15l54 -10v-36
l-153 5l-154 -5v36l54 10q28 5 38 15t11 33q3 103 3 268l-3 254q-1 23 -11 33t-38 15l-54 10v36l154 -5l153 5v-36l-54 -10q-28 -5 -38 -15t-11 -33q-3 -76 -3 -232z" />
    <glyph glyph-name="I" unicode="I" horiz-adv-x="395" 
d="M198 0l-154 -5v36l54 10q28 5 38 15t11 33q3 95 3 260l-3 261q-2 25 -11.5 34.5t-37.5 14.5l-54 10v36l154 -5l153 5v-36l-54 -10q-28 -5 -37.5 -14.5t-11.5 -34.5q-3 -96 -3 -261l3 -260q1 -23 11 -33t38 -15l54 -10v-36z" />
    <glyph glyph-name="J" unicode="J" horiz-adv-x="385" 
d="M235 349l1 -258q1 -23 12 -33.5t39 -14.5l53 -7v-36h-105q-4 -82 -48 -127q-51 -51 -164 -53l-17 35q67 14 98 53t32 127q2 169 3 314l-3 261q-2 25 -11.5 34t-37.5 15l-49 10v36l149 -5l153 5v-36l-53 -10q-28 -5 -37.5 -14t-11.5 -35q-3 -96 -3 -261z" />
    <glyph glyph-name="K" unicode="K" horiz-adv-x="764" 
d="M198 0l-154 -5v36l54 10q28 5 38 15t11 33q3 95 3 260l-3 261q-2 25 -11.5 34.5t-37.5 14.5l-54 10v36l154 -5l153 5v-36l-54 -10q-28 -5 -37.5 -14.5t-11.5 -34.5q-3 -86 -3 -231h114q74 80 172 221q13 17 13 30q0 21 -43 29l-53 10v36l147 -5l134 5v-36l-46 -11
q-27 -6 -48.5 -22.5t-58.5 -62.5l-146 -173l223 -316q13 -19 27 -27t42 -15l46 -11v-36l-132 5l-48 -3q-63 99 -119.5 183.5t-80.5 119.5l-25 35h-118l3 -246q1 -23 11 -33t38 -15l54 -10v-36z" />
    <glyph glyph-name="L" unicode="L" horiz-adv-x="661" 
d="M249 102q1 -32 17 -44t55 -12h113q43 0 70 15t54 65l47 86h34l-24 -217q-146 5 -205 5h-212l-154 -5v36l54 10q28 5 38 15t11 33q3 95 3 260l-3 261q-2 25 -11.5 34.5t-37.5 14.5l-54 10v36l154 -5l153 5v-36l-54 -10q-28 -5 -37.5 -14.5t-11.5 -34.5q-3 -96 -3 -261
q0 -131 4 -247z" />
    <glyph glyph-name="M" unicode="M" horiz-adv-x="1027" 
d="M780 89l-6 545l-263 -640h-45q-142 342 -271 639q1 -410 1 -544q0 -23 10 -33t38 -15l54 -10v-36l-135 5l-124 -5v36l54 10q28 5 38 15t11 33q5 120 7.5 250.5t2.5 200.5v70q0 24 -10.5 34t-38.5 15l-54 10v36l134 -5l96 5l241 -582l219 546v36l85 -5l154 5v-36l-54 -10
q-29 -5 -39.5 -15.5t-9.5 -33.5l7 -521q0 -23 10.5 -33t38.5 -15l53 -10v-36l-153 5l-154 -5v36l54 10q28 5 38.5 15t10.5 33z" />
    <glyph glyph-name="N" unicode="N" horiz-adv-x="858" 
d="M152 610q0 23 -10 33.5t-38 15.5l-51 10v36l129 -5l95 5q20 -44 40 -70l359 -481q-4 198 -10 456q-1 24 -11 34t-38 15l-54 10v36l134 -5l130 5v-36l-54 -10q-28 -5 -38.5 -15t-10.5 -34q-6 -265 -6 -615h-50q-130 178 -247.5 335t-170.5 225l-52 68q1 -400 1 -534
q0 -23 10.5 -33t38.5 -15l54 -10v-36l-139 5l-124 -5v36l54 10q28 5 38 15t11 33q10 240 10 521z" />
    <glyph glyph-name="O" unicode="O" horiz-adv-x="829" 
d="M418 32q53 0 96.5 19.5t71.5 50t47 71.5t27 81.5t8 81.5q0 160 -75.5 246t-182.5 86q-66 0 -116.5 -29t-78 -75.5t-41 -97.5t-13.5 -103q0 -161 75.5 -246t181.5 -85zM426 715q65 0 126 -23t111.5 -66.5t81 -114t30.5 -157.5q0 -163 -100 -266t-269 -103
q-65 0 -126.5 22.5t-112.5 65t-82 113t-31 157.5q0 163 101 267.5t271 104.5z" />
    <glyph glyph-name="P" unicode="P" horiz-adv-x="652" 
d="M351 31v-36l-153 5l-154 -5v36l54 10q28 5 38 15t11 33q3 95 3 260l-3 261q-2 25 -11.5 34.5t-37.5 14.5l-54 10v36l193 -3q97 9 162 9q39 0 76 -10.5t70 -33t53.5 -63t20.5 -93.5q0 -40 -14.5 -77.5t-44 -70.5t-81.5 -53t-120 -20l-54 6v41q39 -1 49 -1q70 0 114.5 44.5
t44.5 127.5q0 75 -42 116.5t-111 41.5h-94q-12 0 -15.5 -4t-3.5 -12q-2 -136 -2 -301l3 -260q1 -23 11 -33t38 -15z" />
    <glyph glyph-name="Q" unicode="Q" horiz-adv-x="829" 
d="M426 715q65 0 126 -23t111.5 -66.5t81 -114t30.5 -157.5q0 -132 -67 -227t-186 -127q265 -122 399 -154q62 -15 108 -3l6 -42q-48 -22 -92.5 -32.5t-88 -6t-76 11.5t-77 29.5t-69.5 37.5t-73 45q-98 62 -176 100q-134 4 -231.5 98.5t-97.5 258.5q0 163 101 267.5
t271 104.5zM418 32q53 0 96.5 19.5t71.5 50t47 71.5t27 81.5t8 81.5q0 160 -75.5 246t-182.5 86q-66 0 -116.5 -29t-78 -75.5t-41 -97.5t-13.5 -103q0 -161 75.5 -246t181.5 -85z" />
    <glyph glyph-name="R" unicode="R" horiz-adv-x="739" 
d="M150 349l-3 261q-2 25 -11.5 34.5t-37.5 14.5l-54 10v36l202 -3q88 9 153 9q28 0 55.5 -4.5t56.5 -17.5t50 -33t35 -53.5t14 -76.5q0 -59 -38 -107.5t-106 -76.5v-4l111 -158q52 -74 98 -117q33 -32 91 -38l-10 -41q-104 0 -156 27t-96 91q-18 25 -69 108.5t-65 103.5
h-122q1 -108 4 -225q1 -23 11 -33t38 -15l54 -10v-36l-157 5l-154 -5v36l54 10q28 5 38.5 15.5t10.5 32.5q3 95 3 260zM340 666h-74q-12 0 -15 -3.5t-3 -12.5v-285q54 -8 144 -8q38 0 75.5 40.5t37.5 117.5q0 72 -46.5 111.5t-118.5 39.5z" />
    <glyph glyph-name="S" unicode="S" horiz-adv-x="588" 
d="M152 101q15 -34 56 -52.5t86 -18.5q60 0 103.5 32.5t43.5 90.5q0 41 -29.5 74.5t-67 52.5t-94 46.5t-87.5 48.5q-86 59 -86 153q0 79 64.5 133t172.5 54q42 0 88.5 -6.5t74 -13t33.5 -9.5q-12 -92 -19 -174h-38q-17 60 -36 118q-4 15 -32.5 27t-77.5 12q-60 0 -99 -30.5
t-39 -80.5q0 -42 37.5 -75t90.5 -56.5t106 -50.5t90.5 -72t37.5 -105q0 -99 -69 -156.5t-174 -57.5q-51 0 -106 10t-85 21l-30 10q1 94 -6 203l41 5q14 -57 50 -133z" />
    <glyph glyph-name="T" unicode="T" horiz-adv-x="712" 
d="M190 700l167 -3l167 3q38 0 76.5 3t57.5 5l20 3q1 -112 9 -203h-40l-17 59q-27 87 -89 87h-134q-3 -140 -3 -305l3 -260q1 -23 11 -33t38 -15l53 -10v-36l-152 5l-154 -5v36l54 10q28 5 38 15t11 33q3 95 3 260l-3 305h-133q-63 0 -90 -87l-18 -59h-40l11 203
q68 -11 154 -11z" />
    <glyph glyph-name="U" unicode="U" horiz-adv-x="838" 
d="M233 610v-368q0 -108 58 -155.5t149 -47.5q215 0 215 239q0 61 -1 191t-1 141q0 24 -10.5 34t-38.5 15l-54 10v36l134 -5l128 5v-36l-54 -10q-28 -5 -38.5 -15t-10.5 -34l-2 -341q0 -137 -73 -210.5t-215 -73.5q-139 0 -213.5 65t-74.5 190v370q0 24 -10.5 34t-38.5 15
l-54 10v36l154 -5l153 5v-36l-53 -10q-28 -5 -38.5 -15t-10.5 -34z" />
    <glyph glyph-name="V" unicode="V" horiz-adv-x="752" 
d="M417 -6l-83 -10q-111 310 -239 627q-10 23 -20.5 33.5t-32.5 14.5l-50 10v36l154 -5l162 5v-36l-54 -10q-29 -6 -40 -16.5t-4 -31.5q33 -96 82 -229t81 -218l32 -86l194 533q8 21 -3.5 31.5t-40.5 16.5l-53 10v36l157 -5l105 5v-36l-50 -10q-23 -4 -35 -14.5t-21 -32.5z
" />
    <glyph glyph-name="W" unicode="W" horiz-adv-x="1123" 
d="M802 -6l-83 -10q-116 313 -154 433l-164 -423l-83 -10q-133 385 -220 627q-9 23 -20 33.5t-33 14.5l-50 10v36l154 -5l162 5v-36l-54 -10q-29 -6 -40 -16.5t-4 -31.5l175 -533l156 395l-45 138q-8 23 -18.5 33.5t-33.5 14.5l-50 10v36l194 -4l127 4v-36l-59 -12
q-20 -4 -30.5 -12t-16 -28.5t8.5 -55.5l168 -483l185 533q7 21 -4 31.5t-40 16.5l-54 10v36l157 -5l105 5v-36l-50 -10q-23 -4 -35 -14.5t-21 -32.5q-72 -186 -129.5 -340.5t-78.5 -215.5z" />
    <glyph glyph-name="X" unicode="X" horiz-adv-x="725" 
d="M133 611q-28 39 -72 48l-50 10v36l153 -5l171 5v-36l-58 -10q-24 -4 -27.5 -20.5t11.5 -37.5q54 -86 119 -180q29 41 57.5 86t42.5 69l15 25q30 49 -15 58l-54 10v36l170 -5l95 5v-36l-50 -10q-37 -7 -69 -48q-102 -131 -166 -225q96 -140 212 -301q28 -37 62 -44l50 -10
v-36l-147 5l-160 -5v36l51 10q27 5 31 16.5t-10 30.5l-154 229q-72 -108 -151 -229q-14 -19 -10 -30.5t30 -16.5l57 -10v-36l-109 5l-147 -5v36l50 10q33 6 62 44q99 135 192 270z" />
    <glyph glyph-name="Y" unicode="Y" horiz-adv-x="697" 
d="M503 31v-36l-154 5l-153 -5v36l53 10q28 5 37 14.5t10 33.5q2 64 2 134v44q-69 118 -203 344q-14 22 -26.5 32.5t-34.5 15.5l-45 10v36l154 -5l157 5v-36l-54 -10q-60 -11 -40 -48l169 -303q64 106 167 300q22 40 -38 51l-54 10v36l153 -5l105 5v-36l-47 -10
q-22 -4 -34 -14.5t-25 -32.5l-202 -340v-49q0 -70 2 -134q1 -23 10 -33t37 -15z" />
    <glyph glyph-name="Z" unicode="Z" horiz-adv-x="694" 
d="M496 654h-307q-29 0 -46 -23.5t-30 -73.5l-13 -49h-36l-8 203q10 -1 26.5 -3t56.5 -5t66 -3l415 4v-43q-158 -218 -433 -599q-4 -4 -1.5 -10t12.5 -6h250q43 0 70.5 15t54.5 65l47 86h34l-34 -217q-136 5 -196 5h-250l-126 -4v42q174 230 448 616z" />
    <glyph glyph-name="bracketleft" unicode="[" horiz-adv-x="344" 
d="M93 -170v927h235v-35h-172q44 -176 44 -415q0 -236 -44 -443h172v-34h-235z" />
    <glyph glyph-name="backslash" unicode="\" horiz-adv-x="534" 
d="M474 -134l-452 949l39 19l450 -950z" />
    <glyph glyph-name="bracketright" unicode="]" horiz-adv-x="344" 
d="M251 757v-927h-235v34h172q-44 207 -44 443q0 104 11 208t22 155l11 52h-172v35h235z" />
    <glyph glyph-name="asciicircum" unicode="^" horiz-adv-x="577" 
d="M455 227l-161 433h-12l-161 -433h-42l179 473h60l179 -473h-42z" />
    <glyph glyph-name="underscore" unicode="_" horiz-adv-x="491" 
d="M416 -161h-341v50h341v-50z" />
    <glyph glyph-name="grave" unicode="`" horiz-adv-x="401" 
d="M214 736l93 -183l-37 -6l-177 189h121z" />
    <glyph glyph-name="a" unicode="a" horiz-adv-x="489" 
d="M178 -15q-62 0 -99.5 36.5t-37.5 86.5q0 145 267 163v65q0 121 -95 121q-63 0 -63 -39v-80l-24 -16q-31 5 -52 23t-21 48q0 39 51.5 67.5t136.5 28.5q82 0 120 -37t38 -121q0 -39 -4 -124t-4 -105q0 -59 47 -59q26 0 44 18l10 -18q-13 -27 -39 -42.5t-56 -15.5
q-39 0 -63 20.5t-27 57.5q-12 -29 -46 -53.5t-83 -24.5zM132 126q0 -38 23.5 -61t59.5 -23q37 0 63 23.5t27 74.5l3 103q-91 -14 -124 -32q-52 -28 -52 -85z" />
    <glyph glyph-name="b" unicode="b" horiz-adv-x="571" 
d="M150 409l9 -2q22 37 64.5 59.5t90.5 22.5q89 0 151.5 -65.5t62.5 -181.5q0 -102 -66.5 -179.5t-178.5 -77.5q-73 0 -137 29l-43 -22l-28 6v638q0 27 -4 38.5t-17 16.5l-41 15v14l122 35h27v-221q0 -28 -3 -59t-6 -49zM278 429q-59 0 -87.5 -27.5t-28.5 -63.5v-201
q0 -55 30 -86t92 -31q70 0 110.5 52.5t40.5 152.5q0 97 -45.5 150.5t-111.5 53.5z" />
    <glyph glyph-name="c" unicode="c" horiz-adv-x="483" 
d="M136 246q0 -97 51 -146t119 -49q43 0 80 20t53 53l19 -28q-59 -111 -196 -111q-91 0 -155 62t-64 182q0 112 66.5 186t172.5 74q79 0 117.5 -30t38.5 -61q0 -30 -20.5 -49.5t-51.5 -23.5l-29 17v58q0 34 -10.5 43t-44.5 9q-64 0 -105 -54.5t-41 -151.5z" />
    <glyph glyph-name="d" unicode="d" horiz-adv-x="593" 
d="M289 53q59 0 89.5 25t30.5 60v200q0 55 -34.5 84.5t-86.5 29.5q-76 0 -114 -62.5t-38 -141.5q0 -94 44 -144.5t109 -50.5zM496 534v-359q0 -78 4 -100q5 -26 50 -29l26 -2v-28l-136 -24h-28l2 72l-8 1q-57 -80 -158 -80q-88 0 -146.5 65t-58.5 182q0 109 68 183t174 74
q75 0 124 -27v127q0 55 -5.5 75t-24.5 27l-41 15v14l133 35h28q-3 -100 -3 -221z" />
    <glyph glyph-name="e" unicode="e" horiz-adv-x="500" 
d="M363 309q2 66 -23.5 105.5t-78.5 39.5q-52 0 -85 -39t-37 -109zM44 229q0 121 67 190.5t154 69.5q50 0 88.5 -18.5t60.5 -48.5t33 -63.5t11 -67.5v-18h-320q-1 -11 -1 -27q0 -97 49 -146t116 -49q43 0 80 20t53 53l19 -28q-59 -111 -194 -111q-91 0 -153.5 62t-62.5 182z
" />
    <glyph glyph-name="f" unicode="f" horiz-adv-x="339" 
d="M111 79v357h-76v34h76q0 77 23 135t61 90t81 47.5t90 15.5q33 0 66.5 -12t33.5 -32q0 -16 -24 -41t-47 -25q-1 0 -12.5 15t-32 29.5t-43.5 14.5q-56 0 -83 -51q-26 -49 -26 -187l118 7l-8 -56l-110 17v-352q0 -24 9 -35t36 -16l53 -10v-29l-142 5l-123 -5v29l31 7
q29 7 39 16.5t10 31.5z" />
    <glyph glyph-name="g" unicode="g" horiz-adv-x="531" 
d="M120 -111q0 -54 41.5 -82t105.5 -28q68 0 106 29.5t38 81.5q0 66 -62 79q-79 16 -173 19q-23 -11 -39.5 -37t-16.5 -62zM243 181q53 0 75.5 39.5t22.5 92.5q0 72 -29.5 108t-71.5 36q-53 0 -76 -40t-23 -92q0 -70 30 -107t72 -37zM510 388l-98 33l-6 -6q28 -41 28 -93
q0 -78 -55 -125.5t-142 -47.5q-45 0 -82 15q-17 -28 -17 -49t19.5 -30.5t95.5 -18.5l102 -12q30 -4 50.5 -9t43 -17.5t34.5 -36t12 -58.5q0 -82 -68.5 -137t-196.5 -55q-100 0 -147.5 38t-47.5 90q0 44 28.5 75t73.5 47v9q-32 4 -51 28t-19 55q0 43 62 93q-80 44 -80 140
q0 76 53.5 124.5t143.5 48.5q68 0 120 -35l155 23v-87z" />
    <glyph glyph-name="h" unicode="h" horiz-adv-x="582" 
d="M169 409l9 -2q18 28 60 55t97 27q159 0 159 -164l-2 -246q0 -22 10 -31.5t38 -16.5l30 -7v-29l-122 5l-123 -5v29l31 7q34 8 42 33q8 27 8 199q0 38 -3.5 65t-14 54t-33 40.5t-56.5 13.5q-70 0 -92 -38.5t-22 -119.5v-199q0 -23 10.5 -32.5t38.5 -15.5l30 -7v-29l-123 5
l-113 -5v29l21 7q30 10 39.5 18t9.5 30v510q0 55 -5 75t-24 27l-42 15v14l130 35h28v-221q0 -43 -4 -74t-8 -41z" />
    <glyph glyph-name="i" unicode="i" horiz-adv-x="296" 
d="M110 79v218q0 53 -6 74t-26 28l-41 15v14l126 67h36q-2 -73 -2 -170v-246q0 -23 9.5 -32t38.5 -16l31 -7v-29l-122 5l-124 -5v29l31 7q29 7 39 16.5t10 31.5zM78 663q0 29 20 48.5t48 19.5t48 -19.5t20 -48.5t-20 -48.5t-48 -19.5t-48 19.5t-20 48.5z" />
    <glyph glyph-name="j" unicode="j" horiz-adv-x="283" 
d="M97 -65v362q0 53 -6 74t-25 28l-42 15v14l127 67h36q-3 -73 -3 -170v-240q0 -23 10 -32.5t39 -16.5l30 -7v-29h-80v-83q0 -65 -42.5 -107t-113.5 -50l-9 -1l-17 25q54 18 75 52t21 99zM65 663q0 29 19.5 48.5t48.5 19.5t48.5 -19.5t19.5 -48.5t-19.5 -48.5t-48.5 -19.5
t-48.5 19.5t-19.5 48.5z" />
    <glyph glyph-name="k" unicode="k" horiz-adv-x="562" 
d="M186 478v-196h55l117 108q16 16 11 30.5t-26 17.5l-39 5v34l102 -5l132 5v-29l-28 -7q-53 -14 -91 -49l-115 -100l156 -214q22 -31 60 -41l32 -9v-29l-122 1l-27 -2q-13 27 -55 88.5t-78 109.5l-35 47h-49v-164q0 -23 10 -32t39 -16l30 -7v-29l-122 5l-123 -5v29l30 7
q29 7 39 16.5t10 31.5v510q0 55 -5.5 75t-24.5 27l-41 15v14l133 35h28q-3 -158 -3 -277z" />
    <glyph glyph-name="l" unicode="l" horiz-adv-x="285" 
d="M187 451v-372q0 -23 9.5 -32t38.5 -16l35 -7v-29l-127 5l-124 -5v29l31 7q29 6 39 15.5t10 32.5v510q0 55 -5.5 75t-24.5 27l-41 15v14l134 35h28q-3 -165 -3 -304z" />
    <glyph glyph-name="m" unicode="m" horiz-adv-x="898" 
d="M485 409l9 -2q16 29 58.5 55.5t98.5 26.5q159 0 159 -164l-2 -246q0 -22 10 -31.5t38 -16.5l30 -7v-29l-122 5l-123 -5v29l31 7q34 8 42 33q8 27 8 199q0 35 -3 59.5t-12.5 53.5t-32.5 44.5t-59 15.5q-70 0 -92 -38.5t-22 -119.5v-199q0 -22 10 -31.5t38 -16.5l30 -7v-29
l-122 5l-114 -5v29l21 7q35 11 42 33q8 27 8 199q0 35 -3 59.5t-12.5 53.5t-32.5 44.5t-59 15.5q-70 0 -92 -38.5t-22 -119.5v-199q0 -23 10 -32.5t39 -15.5l30 -7v-29l-123 5l-113 -5v29l21 7q30 10 39.5 18t9.5 30v218q0 55 -5.5 75t-24.5 27l-41 15v14l117 67h28l-3 -86
l9 -2q17 27 59.5 54.5t97.5 27.5q107 0 142 -80z" />
    <glyph glyph-name="n" unicode="n" 
d="M500 79q0 -22 10 -31.5t38 -16.5l30 -7v-29l-122 5l-123 -5v29l31 7q34 8 42 33q8 27 8 199q0 38 -3.5 65t-14 54t-33 40.5t-56.5 13.5q-70 0 -92 -38.5t-22 -119.5v-199q0 -23 10 -32.5t39 -15.5l30 -7v-29l-123 5l-113 -5v29l21 7q30 10 39.5 18t9.5 30v218
q0 55 -5.5 75t-24.5 27l-41 15v14l117 67h28l-3 -86l9 -2q17 27 59.5 54.5t97.5 27.5q159 0 159 -164z" />
    <glyph glyph-name="o" unicode="o" horiz-adv-x="557" 
d="M273 -15q-92 0 -161 64.5t-69 183.5q0 112 66 184t177 72q94 0 161 -65.5t67 -181.5t-66.5 -186.5t-174.5 -70.5zM281 22q51 0 84.5 34.5t44.5 78t11 93.5q0 113 -41.5 168.5t-102.5 55.5q-52 0 -85.5 -34.5t-44.5 -78t-11 -93.5q0 -109 42.5 -166.5t102.5 -57.5z" />
    <glyph glyph-name="p" unicode="p" horiz-adv-x="596" 
d="M305 424q-59 0 -88.5 -26t-29.5 -62v-199q0 -52 35 -82.5t84 -30.5q72 0 113 49.5t41 151.5q0 94 -45 146.5t-110 52.5zM171 15q15 -35 15 -109v-70q0 -23 10.5 -33.5t38.5 -14.5l45 -7v-29l-138 5l-122 -5v29l30 7q28 6 37.5 15.5t9.5 32.5v461q0 55 -5.5 75t-24.5 27
l-41 15v14l124 67h28l-3 -86l9 -2q22 37 64.5 59.5t90.5 22.5q89 0 151.5 -65.5t62.5 -181.5q0 -101 -66.5 -179t-178.5 -78q-77 0 -137 30z" />
    <glyph glyph-name="q" unicode="q" horiz-adv-x="576" 
d="M414 64l-8 1q-57 -80 -158 -80q-88 0 -146.5 65t-58.5 182q0 111 68 184t174 73q83 0 147 -39q16 24 60 39l16 -5q-1 -10 -2.5 -28.5t-4 -76.5t-2.5 -118l-1 -425q0 -23 9.5 -32.5t36.5 -15.5l31 -7v-29l-122 5l-138 -5v29l45 7q27 4 38 14.5t11 33.5v87q0 73 5 141z
M289 53q59 0 89.5 25t30.5 60v200q0 55 -34.5 84.5t-86.5 29.5q-76 0 -114 -62.5t-38 -141.5q0 -94 44 -144.5t109 -50.5z" />
    <glyph glyph-name="r" unicode="r" horiz-adv-x="420" 
d="M177 383l9 -2q26 37 67.5 70t81.5 33q35 0 54.5 -18t19.5 -43q0 -20 -14 -37.5t-38 -27.5h-14l-59 52q-64 -34 -91 -58v-273q0 -23 10.5 -33t38.5 -15l45 -7v-29l-138 5l-113 -5v29l21 7q30 10 39.5 18t9.5 30v218q0 55 -5.5 75t-24.5 27l-41 15v14l117 67h28z" />
    <glyph glyph-name="s" unicode="s" horiz-adv-x="421" 
d="M133 42q26 -21 63 -21q98 0 98 81q0 16 -5.5 29.5t-12 22.5t-20 18t-21.5 13t-25 11t-22 10q-69 32 -101 62.5t-32 83.5q0 69 51 103t127 34q80 0 129 -23l-12 -116l-34 -3q-9 34 -19 61q-17 46 -74 46q-38 0 -64.5 -18t-26.5 -54q0 -31 25 -53t61 -37.5t72 -33.5
t61 -50.5t25 -77.5q0 -68 -52 -106.5t-120 -38.5q-36 0 -73.5 7.5t-56.5 14.5l-19 7v134h35z" />
    <glyph glyph-name="t" unicode="t" horiz-adv-x="376" 
d="M152 602l38 -1v-136h157l-7 -57l-150 15v-269q0 -67 18.5 -90t57.5 -23q21 0 46.5 12t35.5 30l16 -21q-13 -37 -50.5 -57t-80.5 -20q-59 0 -94.5 32t-35.5 94v303h-90v35q35 15 62 29q58 29 77 124z" />
    <glyph glyph-name="u" unicode="u" horiz-adv-x="580" 
d="M398 64l-8 2q-19 -29 -56.5 -55t-91.5 -26q-153 0 -153 169l2 224q0 25 -8.5 37.5t-34.5 17.5l-31 6v29l118 5l48 6q-6 -55 -6 -299q0 -141 106 -141q29 0 50 8.5t32.5 22t18 37t8 45t1.5 53.5v173q0 25 -8.5 37.5t-34.5 17.5l-31 6v29l118 5l48 6q-5 -124 -5 -304
q0 -78 4 -100q5 -26 50 -29l26 -2v-28l-136 -24h-28z" />
    <glyph glyph-name="v" unicode="v" horiz-adv-x="535" 
d="M462 391q-44 -111 -85.5 -210t-61.5 -143l-20 -44h-53q-59 145 -174 399q-10 22 -18.5 31.5t-29.5 16.5l-21 7v29l112 -5l130 5v-29l-35 -7q-28 -6 -37.5 -17t-1.5 -31l127 -311q91 232 119 311q8 20 -3 30t-42 18l-24 7v29l99 -5l94 5v-29l-21 -7q-25 -9 -35 -18
t-19 -32z" />
    <glyph glyph-name="w" unicode="w" horiz-adv-x="775" 
d="M392 472h46l132 -364l82 285q4 21 -6 30.5t-39 17.5l-24 7v29l98 -5l94 5v-29l-20 -7q-25 -9 -32.5 -17t-16.5 -31l-143 -399h-40q-74 211 -134 373l-144 -373h-46q-51 168 -129 399q-7 23 -15 31t-33 17l-21 7v29l108 -5l132 5v-29l-35 -7q-28 -5 -37 -16t-2 -32
q26 -84 47 -155t29 -100l8 -30z" />
    <glyph glyph-name="x" unicode="x" horiz-adv-x="530" 
d="M110 393q-24 33 -69 48l-20 7v29l102 -5l129 5v-29l-34 -7q-15 -3 -19.5 -10.5t-1.5 -16t11 -21.5l70 -99l79 99q12 17 12 26q0 15 -28 22l-24 7v29l98 -5l94 5v-29l-20 -7q-62 -21 -78 -48q-53 -62 -111 -130l130 -184q26 -34 69 -48l20 -7v-29l-103 5l-129 -5v29l35 7
q13 3 18.5 7.5t4 12.5t-4 12.5t-9.5 15.5l-79 111l-88 -111q-26 -36 15 -48l24 -7v-29l-98 5l-94 -5v29l20 7q55 18 79 48q58 69 121 142z" />
    <glyph glyph-name="y" unicode="y" horiz-adv-x="526" 
d="M89 -263l155 257h-10l-165 399q-10 25 -18.5 32.5t-30.5 15.5l-21 7v29l112 -5l130 5v-29l-35 -7q-29 -6 -38.5 -16.5t-0.5 -31.5l118 -311l119 311q7 20 -4 30t-41 18l-25 7v29l99 -5l94 5v-29l-21 -7q-25 -8 -32 -16t-17 -32l-277 -666z" />
    <glyph glyph-name="z" unicode="z" horiz-adv-x="503" 
d="M156 0q-69 0 -120 -3v32l295 411h-108q-65 0 -89 -18.5t-35 -67.5l-10 -41l-35 2v164h386l5 -25l-295 -416h170q41 0 64 24.5t46 105.5h37l-18 -173q-65 5 -293 5z" />
    <glyph glyph-name="braceleft" unicode="{" horiz-adv-x="361" 
d="M126 302q100 -52 100 -173v-71q0 -27 1 -44t4 -41t10.5 -39.5t19 -30.5t31.5 -22t46 -7h7l-8 -36q-66 0 -108.5 12t-63 38.5t-27 55t-6.5 72.5q0 26 4 87.5t4 95.5q0 58 -26 94q-43 -27 -68 -27q-34 0 -34 37t34 37q25 0 68 -27q26 36 26 94q0 34 -4 95.5t-4 87.5
q0 44 6.5 72.5t27 55t63 38.5t108.5 12l8 -36h-7q-26 0 -46 -7t-31.5 -22t-19 -30.5t-10.5 -39.5t-4 -41t-1 -44v-71q0 -121 -100 -173v-2z" />
    <glyph glyph-name="bar" unicode="|" horiz-adv-x="216" 
d="M92 813h32v-1010h-32v1010z" />
    <glyph glyph-name="braceright" unicode="}" horiz-adv-x="361" 
d="M235 302v2q-100 52 -100 173v71q0 27 -1 44t-4 41t-10.5 39.5t-19 30.5t-31.5 22t-46 7h-7l7 36q67 0 109.5 -12t63 -38.5t27 -55t6.5 -72.5q0 -26 -4 -87.5t-4 -95.5q0 -58 26 -94q44 27 68 27q34 0 34 -37t-34 -37q-24 0 -68 27q-26 -36 -26 -94q0 -34 4 -95.5t4 -87.5
q0 -44 -6.5 -72.5t-27 -55t-63 -38.5t-109.5 -12l-7 36h7q26 0 46 7t31.5 22t19 30.5t10.5 39.5t4 41t1 44v71q0 121 100 173z" />
    <glyph glyph-name="asciitilde" unicode="~" 
d="M109 311h-38q0 55 31 86t79 31q38 0 120 -45t119 -45q69 0 69 70h38q0 -54 -30.5 -81.5t-79.5 -27.5q-42 0 -123.5 44t-115.5 44q-32 0 -50.5 -19t-18.5 -57z" />
    <glyph glyph-name="exclamdown" unicode="&#xa1;" horiz-adv-x="275" 
d="M122 237h30q10 -185 34 -331q15 -88 15 -104q0 -28 -17 -44t-46 -16q-31 0 -48 16t-17 44q0 16 15 104q24 146 34 331zM60 394q0 32 23 55t55 23t54.5 -23t22.5 -55t-22.5 -55t-54.5 -23t-55 23t-23 55z" />
    <glyph glyph-name="cent" unicode="&#xa2;" 
d="M121 -132l66 153q-95 64 -95 208q0 112 66.5 186t172.5 74q28 0 53 -5l62 142l30 -13l-59 -138q35 -14 52.5 -36t17.5 -41q0 -30 -20.5 -49.5t-51.5 -23.5l-29 17v62l-136 -317q45 -36 105 -36q43 0 80 20t53 53l19 -28q-59 -111 -196 -111q-49 0 -97 20l-63 -149z
M185 246q0 -82 40 -134l144 335q-11 5 -38 5q-64 0 -105 -54.5t-41 -151.5z" />
    <glyph glyph-name="sterling" unicode="&#xa3;" 
d="M282 434h194v-39h-198l-14 -111h212v-39h-219q-11 -51 -31.5 -86.5t-64.5 -74.5q23 3 43 3q39 0 95.5 -13.5t80.5 -13.5q101 0 143 52l13 -26q-16 -42 -64 -81t-117 -39q-36 0 -64.5 10t-73 35.5t-67.5 36.5q-33 -60 -78 -60q-20 0 -29 11.5t-9 23.5q0 23 21.5 41.5
t64.5 18.5q11 0 16 -1q30 52 37 163h-110v39h112q4 73 7 111h-119v39h124q2 62 19 111t43 80.5t60.5 52t70 29t72.5 8.5q33 0 66.5 -12t33.5 -32q0 -17 -24 -46.5t-47 -29.5q-1 0 -13 15.5t-33 31.5t-44 16q-50 0 -75.5 -54t-33.5 -170z" />
    <glyph glyph-name="currency" unicode="&#xa4;" 
d="M95 359q0 74 46 131l-72 74l26 27l72 -74q57 47 127 47t127 -47l73 74l26 -27l-72 -74q47 -57 47 -131q0 -73 -46 -130l71 -73l-26 -27l-72 73q-55 -47 -128 -47t-128 47l-71 -73l-26 27l71 73q-45 56 -45 130zM131 359q0 -72 47 -121.5t116 -49.5q70 0 117.5 50
t47.5 121q0 72 -48 122t-117 50t-116 -50t-47 -122z" />
    <glyph glyph-name="yen" unicode="&#xa5;" 
d="M57 274h190l-60 111h-130v39h109l-98 187q-13 22 -24.5 33t-30.5 15l-40 10v36l138 -5l154 5v-36l-49 -10q-53 -11 -35 -48l141 -288l142 285q21 40 -35 51l-48 10v36l144 -5l94 5v-36l-42 -10q-19 -5 -29.5 -15t-23.5 -32l-101 -188h106v-39h-126l-60 -111h186v-39h-187
v-146q0 -23 9.5 -33t34.5 -15l48 -10v-36l-138 5l-137 -5v36l47 10q26 5 35 15t9 33v146h-193v39z" />
    <glyph glyph-name="brokenbar" unicode="&#xa6;" horiz-adv-x="220" 
d="M126 358h-32v455h32v-455zM94 253h32v-450h-32v450z" />
    <glyph glyph-name="section" unicode="&#xa7;" 
d="M531 646l-36 -8q0 21 -7 42.5t-21.5 44.5t-44 37.5t-69.5 14.5q-85 0 -130.5 -69t-45.5 -179q0 -127 43.5 -262.5t88.5 -200.5l-26 -17q-32 43 -47 63.5t-53.5 82t-59 107.5t-39.5 111.5t-19 122.5q0 142 77.5 218.5t181.5 76.5q59 0 102.5 -21t64.5 -53t30.5 -59.5
t9.5 -51.5zM57 16l37 8q0 -21 7 -42.5t21.5 -44.5t44 -37.5t69.5 -14.5q84 0 129.5 69t45.5 179q0 126 -43.5 261.5t-88.5 201.5l27 17q31 -37 62.5 -83t69.5 -113t61.5 -144t23.5 -147q0 -137 -73 -216.5t-177 -79.5q-50 0 -89.5 14.5t-62.5 35.5t-38 48t-20.5 48.5
t-5.5 39.5z" />
    <glyph glyph-name="dieresis" unicode="&#xa8;" horiz-adv-x="401" 
d="M38 643q0 29 20 48.5t48 19.5t48 -19.5t20 -48.5t-20 -48.5t-48 -19.5t-48 19.5t-20 48.5zM227 643q0 29 19.5 48.5t48.5 19.5t48.5 -19.5t19.5 -48.5t-19.5 -48.5t-48.5 -19.5t-48.5 19.5t-19.5 48.5z" />
    <glyph glyph-name="copyright" unicode="&#xa9;" horiz-adv-x="906" 
d="M49 352q0 170 116.5 286t286.5 116q171 0 288 -116t117 -286q0 -169 -117 -285t-288 -116q-170 0 -286.5 116t-116.5 285zM92 352q0 -155 104 -260t256 -105q153 0 257.5 105t104.5 260q0 156 -104.5 261t-257.5 105q-152 0 -256 -105t-104 -261zM326 360
q0 -103 46 -150.5t118 -47.5q28 0 52.5 8t38.5 19t24.5 22t14.5 19l4 8l19 -28q-59 -111 -194 -111q-91 0 -153.5 62t-62.5 182q0 112 66.5 186t172.5 74q79 0 117.5 -30t38.5 -61q0 -30 -20.5 -49.5t-51.5 -23.5l-19 17v58q0 32 -14.5 42t-50.5 10q-64 0 -105 -54.5
t-41 -151.5z" />
    <glyph glyph-name="ordfeminine" unicode="&#xaa;" horiz-adv-x="442" 
d="M160 337q-49 0 -76 27.5t-27 66.5q0 101 201 120v29q0 36 -7 58t-22.5 31.5t-30 12t-38.5 2.5q-16 0 -21.5 -5t-5.5 -22v-53l-15 -11q-56 7 -56 49q0 30 40.5 51.5t106.5 21.5q59 0 90.5 -33.5t31.5 -92.5l-4 -150q-3 -56 36 -56q20 0 36 10l7 -13q-20 -43 -69 -43
q-29 0 -49 16.5t-24 43.5q-29 -60 -104 -60zM189 378q41 0 55 23t14 79v51q-131 -19 -131 -88q0 -28 17.5 -46.5t44.5 -18.5z" />
    <glyph glyph-name="guillemotleft" unicode="&#xab;" horiz-adv-x="571" 
d="M166 361v-12l143 -276h-33l-238 282l238 282h33zM381 361v-12l143 -276h-33l-238 282l238 282h33z" />
    <glyph glyph-name="logicalnot" unicode="&#xac;" 
d="M486 250v177h-422v39h462v-216h-40z" />
    <glyph glyph-name="uni00AD" unicode="&#xad;" horiz-adv-x="378" 
 />
    <glyph glyph-name="registered" unicode="&#xae;" horiz-adv-x="906" 
d="M49 352q0 170 116.5 286t286.5 116q171 0 288 -116t117 -286q0 -169 -117 -285t-288 -116q-170 0 -286.5 116t-116.5 285zM301 348l-2 177q-2 17 -8.5 23.5t-25.5 10.5l-37 7v24l158 -2q59 6 103 6q25 0 48 -5.5t46 -18.5t36.5 -39.5t13.5 -62.5q0 -41 -26 -73.5
t-72 -51.5v-3l76 -107q36 -51 66 -80q24 -21 63 -26q74 96 74 225q0 156 -104.5 261t-257.5 105q-152 0 -256 -105t-104 -261q0 -155 104 -260t256 -105q158 0 263 111q-49 -2 -84 11t-52.5 29.5t-39.5 47.5q-8 12 -43 67t-46 71h-63q1 -74 3 -153q1 -17 7.5 -23t25.5 -10
l36 -7v-24l-106 3l-125 -3v24l37 7q19 4 26 10.5t8 22.5q2 64 2 177zM430 563h-31q-12 0 -12 -10v-194q36 -6 78 -6q26 0 51.5 28t25.5 80q0 49 -31.5 75.5t-80.5 26.5z" />
    <glyph glyph-name="macron" unicode="&#xaf;" horiz-adv-x="401" 
d="M343 582h-286v60h286v-60z" />
    <glyph glyph-name="degree" unicode="&#xb0;" horiz-adv-x="417" 
d="M208 702q68 0 115.5 -46t47.5 -117t-47.5 -117.5t-115.5 -46.5t-115 46t-47 118q0 71 47 117t115 46zM208 420q48 0 79.5 34t31.5 85q0 50 -31.5 84t-79.5 34q-47 0 -78.5 -34t-31.5 -84t31.5 -84.5t78.5 -34.5z" />
    <glyph glyph-name="plusminus" unicode="&#xb1;" 
d="M64 338v40h211v215h40v-215h211v-40h-211v-216h-40v216h-211zM526 0h-462v40h462v-40z" />
    <glyph glyph-name="twosuperior" unicode="&#xb2;" horiz-adv-x="375" 
d="M46 314v32q102 92 142 137q36 40 45.5 64.5t9.5 51.5q0 37 -24 60.5t-64 23.5q-27 0 -27 -19v-63l-20 -15q-25 1 -43.5 14t-18.5 32q0 30 36.5 57.5t97.5 27.5q57 0 98 -28.5t41 -76.5q0 -31 -15.5 -57.5t-60.5 -68.5l-118 -109l202 4l-9 -68q-76 1 -163 1h-109z" />
    <glyph glyph-name="threesuperior" unicode="&#xb3;" horiz-adv-x="375" 
d="M157 302q-54 0 -83.5 18.5t-29.5 48.5q0 20 18.5 35t41.5 17l17 -14l2 -64q0 -9 34 -9q41 0 69 25t28 62q0 47 -27 63t-72 16q-23 0 -49 -3l-4 38q65 0 102.5 21t37.5 58q0 26 -19 43.5t-58 17.5q-49 0 -89 -32l-14 28q16 17 54 32t75 15q49 0 83.5 -23.5t34.5 -67.5
q0 -28 -23 -52t-63 -35q40 -6 72 -31t32 -72q0 -62 -50 -98.5t-120 -36.5z" />
    <glyph glyph-name="acute" unicode="&#xb4;" horiz-adv-x="401" 
d="M93 553l94 183h120l-175 -189z" />
    <glyph glyph-name="mu" unicode="&#xb5;" horiz-adv-x="580" 
d="M137 -243h-83q4 12 10 38t15.5 128t9.5 231l2 224q0 25 -8.5 37.5t-34.5 17.5l-31 6v29l118 5l48 6q-6 -55 -6 -299q0 -141 106 -141q29 0 50 8.5t32.5 22t18 37t8 45t1.5 53.5v173q0 25 -8.5 37.5t-34.5 17.5l-31 6v29l118 5l48 6q-5 -124 -5 -304q0 -78 4 -100
q5 -26 50 -29l26 -2v-28l-136 -24h-28l2 72l-8 2q-19 -29 -56.5 -55t-91.5 -26q-67 0 -105 33v-261z" />
    <glyph glyph-name="paragraph" unicode="&#xb6;" horiz-adv-x="671" 
d="M121 -164q0 29 19 48.5t47 19.5q29 0 48 -19t19 -47q0 -16 -9.5 -33t-22.5 -25l1 -6q45 0 70.5 25.5t25.5 94.5v343h-2q-156 0 -219.5 63t-63.5 175q0 104 73 164.5t177 60.5h275v-897h-45v854h-104q-44 0 -44 -39v-738q0 -60 -31.5 -99.5t-100.5 -39.5q-45 0 -79 24.5
t-34 70.5z" />
    <glyph glyph-name="periodcentered" unicode="&#xb7;" horiz-adv-x="268" 
d="M60 357q0 31 21.5 52.5t52.5 21.5t52.5 -21.5t21.5 -52.5t-21.5 -52.5t-52.5 -21.5t-52.5 21.5t-21.5 52.5z" />
    <glyph glyph-name="cedilla" unicode="&#xb8;" horiz-adv-x="401" 
d="M217 14l30 -8l-59 -68q20 0 40 -4.5t43.5 -15t38.5 -32.5t15 -53q0 -51 -38 -78.5t-94 -27.5q-63 0 -117 25l7 29q32 -14 70 -14q76 0 76 60q0 16 -10.5 30t-30 23.5t-34.5 15.5t-36 12t-23 7z" />
    <glyph glyph-name="onesuperior" unicode="&#xb9;" horiz-adv-x="375" 
d="M194 710h45v-336q0 -18 13 -19l59 -6v-33l-113 3l-107 -3v33l55 6q16 1 16 19v275l-85 -18v36z" />
    <glyph glyph-name="ordmasculine" unicode="&#xba;" horiz-adv-x="448" 
d="M220 337q-68 0 -120 48.5t-52 137.5q0 84 49 138t131 54q71 0 122 -49.5t51 -136.5q0 -86 -50.5 -139t-130.5 -53zM225 365q30 0 51 14.5t31.5 38.5t15 49t4.5 52q0 85 -29.5 126.5t-73.5 41.5q-30 0 -51 -14.5t-31.5 -38.5t-15 -49t-4.5 -52q0 -81 30 -124.5t73 -43.5z
" />
    <glyph glyph-name="guillemotright" unicode="&#xbb;" horiz-adv-x="571" 
d="M404 349v12l-142 276h32l238 -282l-238 -282h-32zM189 349v12l-142 276h32l238 -282l-238 -282h-32z" />
    <glyph glyph-name="onequarter" unicode="&#xbc;" horiz-adv-x="1020" 
d="M773 54v57h-187v42q7 15 189 264l66 -7q-182 -212 -211 -262h143v5q0 50 -7 99l81 2v-106h58v-37h-58v-57q0 -10 4 -14t16 -7l32 -8v-28l-91 3l-89 -3v29l32 7q22 4 22 21zM185 16l627 708l26 -24l-627 -707zM226 710h45v-336q0 -18 13 -19l59 -6v-33l-113 3l-107 -3v33
l55 6q16 1 16 19v275l-85 -18v36z" />
    <glyph glyph-name="onehalf" unicode="&#xbd;" horiz-adv-x="1020" 
d="M185 16l627 708l26 -24l-627 -707zM226 710h45v-336q0 -18 13 -19l59 -6v-33l-113 3l-107 -3v33l55 6q16 1 16 19v275l-85 -18v36zM628 0v32q102 92 142 137q36 40 45.5 64.5t9.5 51.5q0 37 -24 60.5t-64 23.5q-27 0 -27 -19v-63l-20 -15q-25 1 -43.5 14t-18.5 32
q0 30 36.5 57.5t97.5 27.5q57 0 98 -28.5t41 -76.5q0 -31 -15.5 -57.5t-60.5 -68.5l-118 -109l202 4l-9 -68q-76 1 -163 1h-109z" />
    <glyph glyph-name="threequarters" unicode="&#xbe;" horiz-adv-x="1020" 
d="M773 54v57h-187v42q7 15 189 264l66 -7q-182 -212 -211 -262h143v5q0 50 -7 99l81 2v-106h58v-37h-58v-57q0 -10 4 -14t16 -7l32 -8v-28l-91 3l-89 -3v29l32 7q22 4 22 21zM234 302q-54 0 -83.5 18.5t-29.5 48.5q0 20 18.5 35t41.5 17l17 -14l2 -64q0 -9 34 -9
q41 0 69 25t28 62q0 47 -27 63t-72 16q-23 0 -49 -3l-4 38q65 0 102.5 21t37.5 58q0 26 -19 43.5t-58 17.5q-49 0 -89 -32l-14 28q16 17 54 32t75 15q49 0 83.5 -23.5t34.5 -67.5q0 -28 -23 -52t-63 -35q40 -6 72 -31t32 -72q0 -62 -50 -98.5t-120 -36.5zM185 16l627 708
l26 -24l-627 -707z" />
    <glyph glyph-name="questiondown" unicode="&#xbf;" horiz-adv-x="439" 
d="M259 -226q56 0 56 31v106l21 17q31 -1 52 -24t21 -56q0 -41 -43.5 -73.5t-123.5 -32.5q-90 0 -145.5 40.5t-55.5 114.5q0 47 30.5 96.5t66.5 83t66.5 69t30.5 58.5q0 25 -3 43l24 -6l30 -76q-3 -35 -25.5 -72t-48 -63.5t-46.5 -63.5t-21 -74q0 -53 28 -85.5t86 -32.5z
M320 394q0 -32 -22.5 -55t-54.5 -23t-54.5 23t-22.5 55t22.5 55t54.5 23t54.5 -23t22.5 -55z" />
    <glyph glyph-name="Agrave" unicode="&#xc0;" horiz-adv-x="751" 
d="M470 291h-244l-71 -202q-8 -21 1.5 -32t38.5 -16l52 -10v-36l-153 5l-105 -5v36l50 10q23 4 35 14.5t21 32.5l242 619l68 19q111 -299 253 -637q10 -23 20 -33.5t33 -14.5l50 -10v-36l-154 5l-156 -5v36l54 10q29 5 39 16t3 32zM455 335l-107 285l-106 -285h213zM373 948
l93 -183l-37 -6l-177 189h121z" />
    <glyph glyph-name="Aacute" unicode="&#xc1;" horiz-adv-x="751" 
d="M470 291h-244l-71 -202q-8 -21 1.5 -32t38.5 -16l52 -10v-36l-153 5l-105 -5v36l50 10q23 4 35 14.5t21 32.5l242 619l68 19q111 -299 253 -637q10 -23 20 -33.5t33 -14.5l50 -10v-36l-154 5l-156 -5v36l54 10q29 5 39 16t3 32zM455 335l-107 285l-106 -285h213zM282 765
l94 183h120l-175 -189z" />
    <glyph glyph-name="Acircumflex" unicode="&#xc2;" horiz-adv-x="751" 
d="M470 291h-244l-71 -202q-8 -21 1.5 -32t38.5 -16l52 -10v-36l-153 5l-105 -5v36l50 10q23 4 35 14.5t21 32.5l242 619l68 19q111 -299 253 -637q10 -23 20 -33.5t33 -14.5l50 -10v-36l-154 5l-156 -5v36l54 10q29 5 39 16t3 32zM455 335l-107 285l-106 -285h213zM216 778
l130 176h54l132 -176l-21 -18l-136 115h-2l-133 -114z" />
    <glyph glyph-name="Atilde" unicode="&#xc3;" horiz-adv-x="751" 
d="M470 291h-244l-71 -202q-8 -21 1.5 -32t38.5 -16l52 -10v-36l-153 5l-105 -5v36l50 10q23 4 35 14.5t21 32.5l242 619l68 19q111 -299 253 -637q10 -23 20 -33.5t33 -14.5l50 -10v-36l-154 5l-156 -5v36l54 10q29 5 39 16t3 32zM455 335l-107 285l-106 -285h213zM463 865
q19 0 31.5 9.5t24.5 35.5l19 -11q-25 -107 -93 -107q-24 0 -92 19q-54 15 -60 15q-41 0 -62 -44l-19 11q9 43 32.5 75.5t61.5 32.5q31 0 81 -18q61 -18 76 -18z" />
    <glyph glyph-name="Adieresis" unicode="&#xc4;" horiz-adv-x="751" 
d="M470 291h-244l-71 -202q-8 -21 1.5 -32t38.5 -16l52 -10v-36l-153 5l-105 -5v36l50 10q23 4 35 14.5t21 32.5l242 619l68 19q111 -299 253 -637q10 -23 20 -33.5t33 -14.5l50 -10v-36l-154 5l-156 -5v36l54 10q29 5 39 16t3 32zM455 335l-107 285l-106 -285h213zM209 855
q0 29 19.5 48.5t48.5 19.5t48.5 -19.5t19.5 -48.5t-19.5 -48.5t-48.5 -19.5t-48.5 19.5t-19.5 48.5zM398 855q0 29 20 48.5t48 19.5t48 -19.5t20 -48.5t-20 -48.5t-48 -19.5t-48 19.5t-20 48.5z" />
    <glyph glyph-name="Aring" unicode="&#xc5;" horiz-adv-x="753" 
d="M274 793q0 -46 27 -76t73 -30t73.5 30t27.5 76t-27.5 76t-73.5 30t-73 -29.5t-27 -76.5zM229 793q0 62 42 103t103 41q62 0 104 -41t42 -103q0 -46 -24.5 -82t-64.5 -52q110 -293 228 -570q10 -23 20 -33.5t33 -14.5l50 -10v-36l-154 5l-156 -5v36l54 10q29 6 40 16.5
t3 31.5l-78 202h-244l-71 -202q-8 -21 1.5 -32t38.5 -16l52 -10v-36l-153 5l-105 -5v36l50 10q23 4 35 14.5t21 32.5q113 282 223 571q-41 16 -65.5 52t-24.5 82zM456 335l-107 285l-106 -285h213z" />
    <glyph glyph-name="AE" unicode="&#xc6;" horiz-adv-x="1039" 
d="M767 0h-222l-153 -5v36l54 10q31 5 41 15t10 33v205h-225l-107 -206q-11 -21 -3.5 -31.5t35.5 -15.5l58 -10v-36l-163 5l-115 -5v36l50 10q55 10 75 47l325 574l-35 7v36l153 -5h252q26 0 63.5 3t61.5 5l24 3l-8 -203h-36l-13 49q-13 50 -30 73.5t-46 23.5h-219v-275h119
q24 0 35 11t19 39l14 55h35l-5 -125l5 -132h-35l-14 55q-8 29 -19.5 41t-34.5 12h-119v-226q0 -63 75 -63h123q43 0 70 15t54 65l47 86h34l-34 -217q-136 5 -196 5zM497 610q0 18 -5.5 27.5t-21.5 14.5l-176 -314h203v272z" />
    <glyph glyph-name="Ccedilla" unicode="&#xc7;" horiz-adv-x="737" 
d="M158 376q0 -154 82.5 -242t230.5 -88q62 0 117 16l57 155h36q-3 -81 -3 -173q-12 -7 -33.5 -16.5t-89.5 -26t-136 -16.5q-15 0 -22 1l-41 -48q20 0 40 -4.5t43.5 -15t38.5 -32.5t15 -53q0 -51 -38 -78.5t-94 -27.5q-63 0 -117 25l7 29q32 -14 70 -14q76 0 76 60
q0 16 -10.5 30t-30 23.5t-34.5 15.5t-36 12t-23 7l91 75q-143 19 -222 118t-79 238q0 155 105.5 262t268.5 107q94 0 172 -26l79 11l-22 -211h-32l-18 54q-43 129 -179 129q-49 0 -93.5 -14t-85.5 -45.5t-65.5 -92.5t-24.5 -144z" />
    <glyph glyph-name="Egrave" unicode="&#xc8;" horiz-adv-x="693" 
d="M248 377q78 1 137 4q24 2 35.5 12.5t18.5 38.5l14 55h35l-5 -128l5 -132h-35l-14 55q-8 28 -19 39t-35 12l-137 4v-228q0 -63 73 -63h123q43 0 70 15t54 65l47 86h34l-34 -217q-136 5 -196 5h-221l-154 -5v36l54 10q28 5 38.5 15.5t10.5 32.5q3 95 3 260l-3 261
q-2 25 -11.5 34.5t-37.5 14.5l-54 10v36l154 -5h251q26 0 66 3t67 5l26 3q-8 -61 -18 -203h-36l-12 49q-13 50 -30.5 74t-46.5 24h-199q-12 0 -15 -3.5t-3 -12.5v-262zM350 948l93 -183l-37 -6l-177 189h121z" />
    <glyph glyph-name="Eacute" unicode="&#xc9;" horiz-adv-x="693" 
d="M248 377q78 1 137 4q24 2 35.5 12.5t18.5 38.5l14 55h35l-5 -128l5 -132h-35l-14 55q-8 28 -19 39t-35 12l-137 4v-228q0 -63 73 -63h123q43 0 70 15t54 65l47 86h34l-34 -217q-136 5 -196 5h-221l-154 -5v36l54 10q28 5 38.5 15.5t10.5 32.5q3 95 3 260l-3 261
q-2 25 -11.5 34.5t-37.5 14.5l-54 10v36l154 -5h251q26 0 66 3t67 5l26 3q-8 -61 -18 -203h-36l-12 49q-13 50 -30.5 74t-46.5 24h-199q-12 0 -15 -3.5t-3 -12.5v-262zM258 765l94 183h120l-175 -189z" />
    <glyph glyph-name="Ecircumflex" unicode="&#xca;" horiz-adv-x="693" 
d="M248 377q78 1 137 4q24 2 35.5 12.5t18.5 38.5l14 55h35l-5 -128l5 -132h-35l-14 55q-8 28 -19 39t-35 12l-137 4v-228q0 -63 73 -63h123q43 0 70 15t54 65l47 86h34l-34 -217q-136 5 -196 5h-221l-154 -5v36l54 10q28 5 38.5 15.5t10.5 32.5q3 95 3 260l-3 261
q-2 25 -11.5 34.5t-37.5 14.5l-54 10v36l154 -5h251q26 0 66 3t67 5l26 3q-8 -61 -18 -203h-36l-12 49q-13 50 -30.5 74t-46.5 24h-199q-12 0 -15 -3.5t-3 -12.5v-262zM193 778l130 176h54l132 -176l-21 -18l-136 115h-2l-133 -114z" />
    <glyph glyph-name="Edieresis" unicode="&#xcb;" horiz-adv-x="693" 
d="M248 377q78 1 137 4q24 2 35.5 12.5t18.5 38.5l14 55h35l-5 -128l5 -132h-35l-14 55q-8 28 -19 39t-35 12l-137 4v-228q0 -63 73 -63h123q43 0 70 15t54 65l47 86h34l-34 -217q-136 5 -196 5h-221l-154 -5v36l54 10q28 5 38.5 15.5t10.5 32.5q3 95 3 260l-3 261
q-2 25 -11.5 34.5t-37.5 14.5l-54 10v36l154 -5h251q26 0 66 3t67 5l26 3q-8 -61 -18 -203h-36l-12 49q-13 50 -30.5 74t-46.5 24h-199q-12 0 -15 -3.5t-3 -12.5v-262zM189 855q0 29 19.5 48.5t48.5 19.5t48.5 -19.5t19.5 -48.5t-19.5 -48.5t-48.5 -19.5t-48.5 19.5
t-19.5 48.5zM378 855q0 29 20 48.5t48 19.5t48 -19.5t20 -48.5t-20 -48.5t-48 -19.5t-48 19.5t-20 48.5z" />
    <glyph glyph-name="Igrave" unicode="&#xcc;" horiz-adv-x="395" 
d="M198 0l-154 -5v36l54 10q28 5 38 15t11 33q3 95 3 260l-3 261q-2 25 -11.5 34.5t-37.5 14.5l-54 10v36l154 -5l153 5v-36l-54 -10q-28 -5 -37.5 -14.5t-11.5 -34.5q-3 -96 -3 -261l3 -260q1 -23 11 -33t38 -15l54 -10v-36zM196 948l93 -183l-37 -6l-177 189h121z" />
    <glyph glyph-name="Iacute" unicode="&#xcd;" horiz-adv-x="395" 
d="M198 0l-154 -5v36l54 10q28 5 38 15t11 33q3 95 3 260l-3 261q-2 25 -11.5 34.5t-37.5 14.5l-54 10v36l154 -5l153 5v-36l-54 -10q-28 -5 -37.5 -14.5t-11.5 -34.5q-3 -96 -3 -261l3 -260q1 -23 11 -33t38 -15l54 -10v-36zM105 765l94 183h120l-175 -189z" />
    <glyph glyph-name="Icircumflex" unicode="&#xce;" horiz-adv-x="395" 
d="M198 0l-154 -5v36l54 10q28 5 38 15t11 33q3 95 3 260l-3 261q-2 25 -11.5 34.5t-37.5 14.5l-54 10v36l154 -5l153 5v-36l-54 -10q-28 -5 -37.5 -14.5t-11.5 -34.5q-3 -96 -3 -261l3 -260q1 -23 11 -33t38 -15l54 -10v-36zM39 778l130 176h54l132 -176l-21 -18l-136 115
h-2l-133 -114z" />
    <glyph glyph-name="Idieresis" unicode="&#xcf;" horiz-adv-x="395" 
d="M198 0l-154 -5v36l54 10q28 5 38 15t11 33q3 95 3 260l-3 261q-2 25 -11.5 34.5t-37.5 14.5l-54 10v36l154 -5l153 5v-36l-54 -10q-28 -5 -37.5 -14.5t-11.5 -34.5q-3 -96 -3 -261l3 -260q1 -23 11 -33t38 -15l54 -10v-36zM35 855q0 29 19.5 48.5t48.5 19.5t48.5 -19.5
t19.5 -48.5t-19.5 -48.5t-48.5 -19.5t-48.5 19.5t-19.5 48.5zM224 855q0 29 20 48.5t48 19.5t48 -19.5t20 -48.5t-20 -48.5t-48 -19.5t-48 19.5t-20 48.5z" />
    <glyph glyph-name="Eth" unicode="&#xd0;" horiz-adv-x="845" 
d="M198 0l-154 -5v36l54 10q28 5 38 15t11 33q3 90 3 246h-85v44h85l-3 231q-2 25 -11.5 34.5t-37.5 14.5l-54 10v36l154 -5q123 10 215 10q182 0 280 -101.5t98 -250.5q0 -164 -105.5 -265t-310.5 -101q-57 0 -177 8zM370 665h-104q-12 0 -15 -3.5t-3 -12.5v-270h229v-44
h-229v-226q0 -49 33 -62.5t117 -13.5q39 0 74.5 7t74.5 27t67.5 52.5t47 88.5t18.5 129q0 156 -78.5 242t-231.5 86z" />
    <glyph glyph-name="Ntilde" unicode="&#xd1;" horiz-adv-x="858" 
d="M152 610q0 23 -10 33.5t-38 15.5l-51 10v36l129 -5l95 5q20 -44 40 -70l359 -481q-4 198 -10 456q-1 24 -11 34t-38 15l-54 10v36l134 -5l130 5v-36l-54 -10q-28 -5 -38.5 -15t-10.5 -34q-6 -265 -6 -615h-50q-130 178 -247.5 335t-170.5 225l-52 68q1 -400 1 -534
q0 -23 10.5 -33t38.5 -15l54 -10v-36l-139 5l-124 -5v36l54 10q28 5 38 15t11 33q10 240 10 521zM504 865q19 0 31.5 9.5t24.5 35.5l19 -11q-25 -107 -93 -107q-24 0 -92 19q-54 15 -60 15q-41 0 -62 -44l-19 11q9 43 32.5 75.5t61.5 32.5q31 0 81 -18q61 -18 76 -18z" />
    <glyph glyph-name="Ograve" unicode="&#xd2;" horiz-adv-x="829" 
d="M418 32q53 0 96.5 19.5t71.5 50t47 71.5t27 81.5t8 81.5q0 160 -75.5 246t-182.5 86q-66 0 -116.5 -29t-78 -75.5t-41 -97.5t-13.5 -103q0 -161 75.5 -246t181.5 -85zM426 715q65 0 126 -23t111.5 -66.5t81 -114t30.5 -157.5q0 -163 -100 -266t-269 -103
q-65 0 -126.5 22.5t-112.5 65t-82 113t-31 157.5q0 163 101 267.5t271 104.5zM414 948l93 -183l-37 -6l-177 189h121z" />
    <glyph glyph-name="Oacute" unicode="&#xd3;" horiz-adv-x="829" 
d="M418 32q53 0 96.5 19.5t71.5 50t47 71.5t27 81.5t8 81.5q0 160 -75.5 246t-182.5 86q-66 0 -116.5 -29t-78 -75.5t-41 -97.5t-13.5 -103q0 -161 75.5 -246t181.5 -85zM426 715q65 0 126 -23t111.5 -66.5t81 -114t30.5 -157.5q0 -163 -100 -266t-269 -103
q-65 0 -126.5 22.5t-112.5 65t-82 113t-31 157.5q0 163 101 267.5t271 104.5zM322 765l94 183h120l-175 -189z" />
    <glyph glyph-name="Ocircumflex" unicode="&#xd4;" horiz-adv-x="829" 
d="M418 32q53 0 96.5 19.5t71.5 50t47 71.5t27 81.5t8 81.5q0 160 -75.5 246t-182.5 86q-66 0 -116.5 -29t-78 -75.5t-41 -97.5t-13.5 -103q0 -161 75.5 -246t181.5 -85zM426 715q65 0 126 -23t111.5 -66.5t81 -114t30.5 -157.5q0 -163 -100 -266t-269 -103
q-65 0 -126.5 22.5t-112.5 65t-82 113t-31 157.5q0 163 101 267.5t271 104.5zM256 778l130 176h54l132 -176l-21 -18l-136 115h-2l-133 -114z" />
    <glyph glyph-name="Otilde" unicode="&#xd5;" horiz-adv-x="829" 
d="M418 32q53 0 96.5 19.5t71.5 50t47 71.5t27 81.5t8 81.5q0 160 -75.5 246t-182.5 86q-66 0 -116.5 -29t-78 -75.5t-41 -97.5t-13.5 -103q0 -161 75.5 -246t181.5 -85zM426 715q65 0 126 -23t111.5 -66.5t81 -114t30.5 -157.5q0 -163 -100 -266t-269 -103
q-65 0 -126.5 22.5t-112.5 65t-82 113t-31 157.5q0 163 101 267.5t271 104.5zM502 865q19 0 31.5 9.5t24.5 35.5l19 -11q-25 -107 -93 -107q-24 0 -92 19q-54 15 -60 15q-41 0 -62 -44l-19 11q9 43 32.5 75.5t61.5 32.5q31 0 81 -18q61 -18 76 -18z" />
    <glyph glyph-name="Odieresis" unicode="&#xd6;" horiz-adv-x="829" 
d="M418 32q53 0 96.5 19.5t71.5 50t47 71.5t27 81.5t8 81.5q0 160 -75.5 246t-182.5 86q-66 0 -116.5 -29t-78 -75.5t-41 -97.5t-13.5 -103q0 -161 75.5 -246t181.5 -85zM426 715q65 0 126 -23t111.5 -66.5t81 -114t30.5 -157.5q0 -163 -100 -266t-269 -103
q-65 0 -126.5 22.5t-112.5 65t-82 113t-31 157.5q0 163 101 267.5t271 104.5zM252 855q0 29 20 48.5t48 19.5t48 -19.5t20 -48.5t-20 -48.5t-48 -19.5t-48 19.5t-20 48.5zM441 855q0 29 19.5 48.5t48.5 19.5t48.5 -19.5t19.5 -48.5t-19.5 -48.5t-48.5 -19.5t-48.5 19.5
t-19.5 48.5z" />
    <glyph glyph-name="multiply" unicode="&#xd7;" 
d="M480 144l-185 189l-183 -188l-28 28l184 188l-184 188l28 28l183 -188l178 182l28 -28l-177 -182l183 -189z" />
    <glyph glyph-name="Oslash" unicode="&#xd8;" horiz-adv-x="829" 
d="M426 715q107 0 194 -57l87 116l33 -24l-87 -116q122 -102 122 -280q0 -163 -100 -266t-269 -103q-107 0 -196 55l-93 -125l-34 25l94 124q-123 99 -123 279q0 163 101 267.5t271 104.5zM161 363q0 -145 65 -233l350 469q-69 69 -166 69q-66 0 -116.5 -29t-78 -75.5
t-41 -97.5t-13.5 -103zM418 32q53 0 96.5 19.5t71.5 50t47 71.5t27 81.5t8 81.5q0 143 -65 231l-350 -469q69 -66 165 -66z" />
    <glyph glyph-name="Ugrave" unicode="&#xd9;" horiz-adv-x="838" 
d="M233 610v-368q0 -108 58 -155.5t149 -47.5q215 0 215 239q0 61 -1 191t-1 141q0 24 -10.5 34t-38.5 15l-54 10v36l134 -5l128 5v-36l-54 -10q-28 -5 -38.5 -15t-10.5 -34l-2 -341q0 -137 -73 -210.5t-215 -73.5q-139 0 -213.5 65t-74.5 190v370q0 24 -10.5 34t-38.5 15
l-54 10v36l154 -5l153 5v-36l-53 -10q-28 -5 -38.5 -15t-10.5 -34zM418 948l93 -183l-37 -6l-177 189h121z" />
    <glyph glyph-name="Uacute" unicode="&#xda;" horiz-adv-x="838" 
d="M233 610v-368q0 -108 58 -155.5t149 -47.5q215 0 215 239q0 61 -1 191t-1 141q0 24 -10.5 34t-38.5 15l-54 10v36l134 -5l128 5v-36l-54 -10q-28 -5 -38.5 -15t-10.5 -34l-2 -341q0 -137 -73 -210.5t-215 -73.5q-139 0 -213.5 65t-74.5 190v370q0 24 -10.5 34t-38.5 15
l-54 10v36l154 -5l153 5v-36l-53 -10q-28 -5 -38.5 -15t-10.5 -34zM327 765l94 183h120l-175 -189z" />
    <glyph glyph-name="Ucircumflex" unicode="&#xdb;" horiz-adv-x="838" 
d="M233 610v-368q0 -108 58 -155.5t149 -47.5q215 0 215 239q0 61 -1 191t-1 141q0 24 -10.5 34t-38.5 15l-54 10v36l134 -5l128 5v-36l-54 -10q-28 -5 -38.5 -15t-10.5 -34l-2 -341q0 -137 -73 -210.5t-215 -73.5q-139 0 -213.5 65t-74.5 190v370q0 24 -10.5 34t-38.5 15
l-54 10v36l154 -5l153 5v-36l-53 -10q-28 -5 -38.5 -15t-10.5 -34zM261 778l130 176h54l132 -176l-21 -18l-136 115h-2l-133 -114z" />
    <glyph glyph-name="Udieresis" unicode="&#xdc;" horiz-adv-x="838" 
d="M233 610v-368q0 -108 58 -155.5t149 -47.5q215 0 215 239q0 61 -1 191t-1 141q0 24 -10.5 34t-38.5 15l-54 10v36l134 -5l128 5v-36l-54 -10q-28 -5 -38.5 -15t-10.5 -34l-2 -341q0 -137 -73 -210.5t-215 -73.5q-139 0 -213.5 65t-74.5 190v370q0 24 -10.5 34t-38.5 15
l-54 10v36l154 -5l153 5v-36l-53 -10q-28 -5 -38.5 -15t-10.5 -34zM257 855q0 29 19.5 48.5t48.5 19.5t48.5 -19.5t19.5 -48.5t-19.5 -48.5t-48.5 -19.5t-48.5 19.5t-19.5 48.5zM446 855q0 29 20 48.5t48 19.5t48 -19.5t20 -48.5t-20 -48.5t-48 -19.5t-48 19.5t-20 48.5z
" />
    <glyph glyph-name="Yacute" unicode="&#xdd;" horiz-adv-x="697" 
d="M503 31v-36l-154 5l-153 -5v36l53 10q28 5 37 14.5t10 33.5q2 64 2 134v44q-69 118 -203 344q-14 22 -26.5 32.5t-34.5 15.5l-45 10v36l154 -5l157 5v-36l-54 -10q-60 -11 -40 -48l169 -303q64 106 167 300q22 40 -38 51l-54 10v36l153 -5l105 5v-36l-47 -10
q-22 -4 -34 -14.5t-25 -32.5l-202 -340v-49q0 -70 2 -134q1 -23 10 -33t37 -15zM294 765l94 183h120l-175 -189z" />
    <glyph glyph-name="Thorn" unicode="&#xde;" horiz-adv-x="669" 
d="M416 572q85 0 151 -50t66 -152q0 -41 -12.5 -78t-39 -71t-77 -54t-118.5 -20l-63 6v41q38 -1 54 -1q66 0 110 45t44 127q0 75 -42.5 116.5t-111.5 41.5h-130q-2 -88 -2 -174l3 -260q1 -23 11 -33t38 -15l54 -10v-36l-153 5l-154 -5v36l54 10q28 5 38 15t11 33q3 95 3 260
l-3 261q-2 25 -11.5 34.5t-37.5 14.5l-54 10v36l154 -5l153 5v-36l-54 -10q-28 -5 -37.5 -14.5t-11.5 -34.5q0 -20 -1 -48q82 10 169 10z" />
    <glyph glyph-name="germandbls" unicode="&#xdf;" horiz-adv-x="564" 
d="M120 0l-93 -5v29l31 7q29 6 39 15.5t10 32.5v355h-66v34h65q0 143 61.5 217t163.5 74q76 0 123 -40t47 -101q0 -39 -22.5 -72.5t-49.5 -52.5t-49.5 -42.5t-22.5 -44.5q0 -30 28 -65t61 -63.5t61 -70t28 -83.5q0 -59 -41.5 -99t-112.5 -40q-28 0 -55 7t-40 14l-12 7l13 31
q40 -22 84 -22q45 0 66.5 22t21.5 56q0 29 -25.5 62t-55.5 58t-55.5 60t-25.5 68q0 32 20 68t44 63.5t44 67t20 77.5q0 53 -27.5 76.5t-72.5 23.5q-131 0 -131 -186v-540z" />
    <glyph glyph-name="agrave" unicode="&#xe0;" horiz-adv-x="489" 
d="M178 -15q-62 0 -99.5 36.5t-37.5 86.5q0 145 267 163v65q0 121 -95 121q-63 0 -63 -39v-80l-24 -16q-31 5 -52 23t-21 48q0 39 51.5 67.5t136.5 28.5q82 0 120 -37t38 -121q0 -39 -4 -124t-4 -105q0 -59 47 -59q26 0 44 18l10 -18q-13 -27 -39 -42.5t-56 -15.5
q-39 0 -63 20.5t-27 57.5q-12 -29 -46 -53.5t-83 -24.5zM132 126q0 -38 23.5 -61t59.5 -23q37 0 63 23.5t27 74.5l3 103q-91 -14 -124 -32q-52 -28 -52 -85zM246 736l93 -183l-37 -6l-177 189h121z" />
    <glyph glyph-name="aacute" unicode="&#xe1;" horiz-adv-x="489" 
d="M178 -15q-62 0 -99.5 36.5t-37.5 86.5q0 145 267 163v65q0 121 -95 121q-63 0 -63 -39v-80l-24 -16q-31 5 -52 23t-21 48q0 39 51.5 67.5t136.5 28.5q82 0 120 -37t38 -121q0 -39 -4 -124t-4 -105q0 -59 47 -59q26 0 44 18l10 -18q-13 -27 -39 -42.5t-56 -15.5
q-39 0 -63 20.5t-27 57.5q-12 -29 -46 -53.5t-83 -24.5zM132 126q0 -38 23.5 -61t59.5 -23q37 0 63 23.5t27 74.5l3 103q-91 -14 -124 -32q-52 -28 -52 -85zM155 553l94 183h120l-175 -189z" />
    <glyph glyph-name="acircumflex" unicode="&#xe2;" horiz-adv-x="489" 
d="M178 -15q-62 0 -99.5 36.5t-37.5 86.5q0 145 267 163v65q0 121 -95 121q-63 0 -63 -39v-80l-24 -16q-31 5 -52 23t-21 48q0 39 51.5 67.5t136.5 28.5q82 0 120 -37t38 -121q0 -39 -4 -124t-4 -105q0 -59 47 -59q26 0 44 18l10 -18q-13 -27 -39 -42.5t-56 -15.5
q-39 0 -63 20.5t-27 57.5q-12 -29 -46 -53.5t-83 -24.5zM132 126q0 -38 23.5 -61t59.5 -23q37 0 63 23.5t27 74.5l3 103q-91 -14 -124 -32q-52 -28 -52 -85zM89 566l130 176h54l132 -176l-21 -18l-136 115h-2l-133 -114z" />
    <glyph glyph-name="atilde" unicode="&#xe3;" horiz-adv-x="489" 
d="M178 -15q-62 0 -99.5 36.5t-37.5 86.5q0 145 267 163v65q0 121 -95 121q-63 0 -63 -39v-80l-24 -16q-31 5 -52 23t-21 48q0 39 51.5 67.5t136.5 28.5q82 0 120 -37t38 -121q0 -39 -4 -124t-4 -105q0 -59 47 -59q26 0 44 18l10 -18q-13 -27 -39 -42.5t-56 -15.5
q-39 0 -63 20.5t-27 57.5q-12 -29 -46 -53.5t-83 -24.5zM132 126q0 -38 23.5 -61t59.5 -23q37 0 63 23.5t27 74.5l3 103q-91 -14 -124 -32q-52 -28 -52 -85zM316 653q19 0 31.5 9.5t24.5 35.5l19 -11q-25 -107 -93 -107q-24 0 -92 19q-54 15 -60 15q-41 0 -62 -44l-19 11
q9 43 32.5 75.5t61.5 32.5q31 0 81 -18q61 -18 76 -18z" />
    <glyph glyph-name="adieresis" unicode="&#xe4;" horiz-adv-x="489" 
d="M178 -15q-62 0 -99.5 36.5t-37.5 86.5q0 145 267 163v65q0 121 -95 121q-63 0 -63 -39v-80l-24 -16q-31 5 -52 23t-21 48q0 39 51.5 67.5t136.5 28.5q82 0 120 -37t38 -121q0 -39 -4 -124t-4 -105q0 -59 47 -59q26 0 44 18l10 -18q-13 -27 -39 -42.5t-56 -15.5
q-39 0 -63 20.5t-27 57.5q-12 -29 -46 -53.5t-83 -24.5zM132 126q0 -38 23.5 -61t59.5 -23q37 0 63 23.5t27 74.5l3 103q-91 -14 -124 -32q-52 -28 -52 -85zM75 643q0 29 19.5 48.5t48.5 19.5t48.5 -19.5t19.5 -48.5t-19.5 -48.5t-48.5 -19.5t-48.5 19.5t-19.5 48.5z
M264 643q0 29 20 48.5t48 19.5t48 -19.5t20 -48.5t-20 -48.5t-48 -19.5t-48 19.5t-20 48.5z" />
    <glyph glyph-name="aring" unicode="&#xe5;" horiz-adv-x="489" 
d="M178 -15q-62 0 -99.5 36.5t-37.5 86.5q0 145 267 163v65q0 121 -95 121q-63 0 -63 -39v-80l-24 -16q-31 5 -52 23t-21 48q0 39 51.5 67.5t136.5 28.5q82 0 120 -37t38 -121q0 -39 -4 -124t-4 -105q0 -59 47 -59q26 0 44 18l10 -18q-13 -27 -39 -42.5t-56 -15.5
q-39 0 -63 20.5t-27 57.5q-12 -29 -46 -53.5t-83 -24.5zM132 126q0 -38 23.5 -61t59.5 -23q37 0 63 23.5t27 74.5l3 103q-91 -14 -124 -32q-52 -28 -52 -85zM163 635q0 -35 20 -57t54 -22q35 0 55 22t20 57t-20 57t-55 22q-34 0 -54 -22t-20 -57zM129 635q0 46 31.5 77
t76.5 31q46 0 77.5 -31t31.5 -77t-31.5 -76.5t-77.5 -30.5q-45 0 -76.5 31t-31.5 76z" />
    <glyph glyph-name="ae" unicode="&#xe6;" horiz-adv-x="750" 
d="M518 489q91 0 136.5 -59t45.5 -137v-18l-299 -24v-5q0 -96 46 -147t116 -51q39 0 72 19t47 38l14 19l18 -28q-58 -111 -190 -111q-64 0 -117.5 28t-74.5 81q-12 -43 -57 -76t-103 -33q-62 0 -96.5 36t-34.5 87q0 135 267 163l-1 65q0 121 -95 121q-63 0 -63 -39v-80
l-24 -16q-31 5 -52 23t-21 48q0 39 53 67.5t138 28.5q105 0 136 -62q53 62 139 62zM507 456q-46 0 -78 -41t-29 -134l204 25q5 72 -20 111t-77 39zM132 121q0 -40 23.5 -63t59.5 -23q37 0 68 30.5t29 81.5l-4 96q-29 -4 -45 -7t-44.5 -12.5t-44.5 -21t-29 -33t-13 -48.5z
" />
    <glyph glyph-name="ccedilla" unicode="&#xe7;" horiz-adv-x="483" 
d="M136 246q0 -97 51 -146t119 -49q43 0 80 20t53 53l19 -28q-57 -107 -188 -111l-41 -47q20 0 40 -4.5t43.5 -15t38.5 -32.5t15 -53q0 -51 -38 -78.5t-94 -27.5q-63 0 -117 25l7 29q32 -14 70 -14q76 0 76 60q0 16 -10.5 30t-30 23.5t-34.5 15.5t-36 12t-23 7l89 73
q-79 11 -130.5 72t-51.5 169q0 112 66.5 186t172.5 74q79 0 117.5 -30t38.5 -61q0 -30 -20.5 -49.5t-51.5 -23.5l-29 17v58q0 34 -10.5 43t-44.5 9q-64 0 -105 -54.5t-41 -151.5z" />
    <glyph glyph-name="egrave" unicode="&#xe8;" horiz-adv-x="500" 
d="M363 309q2 66 -23.5 105.5t-78.5 39.5q-52 0 -85 -39t-37 -109zM44 229q0 121 67 190.5t154 69.5q50 0 88.5 -18.5t60.5 -48.5t33 -63.5t11 -67.5v-18h-320q-1 -11 -1 -27q0 -97 49 -146t116 -49q43 0 80 20t53 53l19 -28q-59 -111 -194 -111q-91 0 -153.5 62t-62.5 182z
M258 736l93 -183l-37 -6l-177 189h121z" />
    <glyph glyph-name="eacute" unicode="&#xe9;" horiz-adv-x="500" 
d="M363 309q2 66 -23.5 105.5t-78.5 39.5q-52 0 -85 -39t-37 -109zM44 229q0 121 67 190.5t154 69.5q50 0 88.5 -18.5t60.5 -48.5t33 -63.5t11 -67.5v-18h-320q-1 -11 -1 -27q0 -97 49 -146t116 -49q43 0 80 20t53 53l19 -28q-59 -111 -194 -111q-91 0 -153.5 62t-62.5 182z
M166 553l94 183h120l-175 -189z" />
    <glyph glyph-name="ecircumflex" unicode="&#xea;" horiz-adv-x="500" 
d="M363 309q2 66 -23.5 105.5t-78.5 39.5q-52 0 -85 -39t-37 -109zM44 229q0 121 67 190.5t154 69.5q50 0 88.5 -18.5t60.5 -48.5t33 -63.5t11 -67.5v-18h-320q-1 -11 -1 -27q0 -97 49 -146t116 -49q43 0 80 20t53 53l19 -28q-59 -111 -194 -111q-91 0 -153.5 62t-62.5 182z
M101 566l130 176h54l132 -176l-21 -18l-136 115h-2l-133 -114z" />
    <glyph glyph-name="edieresis" unicode="&#xeb;" horiz-adv-x="500" 
d="M363 309q2 66 -23.5 105.5t-78.5 39.5q-52 0 -85 -39t-37 -109zM44 229q0 121 67 190.5t154 69.5q50 0 88.5 -18.5t60.5 -48.5t33 -63.5t11 -67.5v-18h-320q-1 -11 -1 -27q0 -97 49 -146t116 -49q43 0 80 20t53 53l19 -28q-59 -111 -194 -111q-91 0 -153.5 62t-62.5 182z
M97 643q0 29 19.5 48.5t48.5 19.5t48.5 -19.5t19.5 -48.5t-19.5 -48.5t-48.5 -19.5t-48.5 19.5t-19.5 48.5zM286 643q0 29 20 48.5t48 19.5t48 -19.5t20 -48.5t-20 -48.5t-48 -19.5t-48 19.5t-20 48.5z" />
    <glyph glyph-name="igrave" unicode="&#xec;" horiz-adv-x="296" 
d="M147 736l93 -183l-37 -6l-177 189h121zM110 79v218q0 53 -6 74t-26 28l-41 15v14l126 67h36q-2 -73 -2 -170v-246q0 -23 9.5 -32t38.5 -16l31 -7v-29l-122 5l-124 -5v29l31 7q29 7 39 16.5t10 31.5z" />
    <glyph glyph-name="iacute" unicode="&#xed;" horiz-adv-x="296" 
d="M55 553l94 183h120l-175 -189zM110 79v218q0 53 -6 74t-26 28l-41 15v14l126 67h36q-2 -73 -2 -170v-246q0 -23 9.5 -32t38.5 -16l31 -7v-29l-122 5l-124 -5v29l31 7q29 7 39 16.5t10 31.5z" />
    <glyph glyph-name="icircumflex" unicode="&#xee;" horiz-adv-x="296" 
d="M110 79v218q0 53 -6 74t-26 28l-41 15v14l126 67h36q-2 -73 -2 -170v-246q0 -23 9.5 -32t38.5 -16l31 -7v-29l-122 5l-124 -5v29l31 7q29 7 39 16.5t10 31.5zM-10 566l130 176h54l132 -176l-21 -18l-136 115h-2l-133 -114z" />
    <glyph glyph-name="idieresis" unicode="&#xef;" horiz-adv-x="296" 
d="M-14 643q0 29 20 48.5t48 19.5t48 -19.5t20 -48.5t-20 -48.5t-48 -19.5t-48 19.5t-20 48.5zM175 643q0 29 19.5 48.5t48.5 19.5t48.5 -19.5t19.5 -48.5t-19.5 -48.5t-48.5 -19.5t-48.5 19.5t-19.5 48.5zM110 79v218q0 53 -6 74t-26 28l-41 15v14l126 67h36
q-2 -73 -2 -170v-246q0 -23 9.5 -32t38.5 -16l31 -7v-29l-122 5l-124 -5v29l31 7q29 7 39 16.5t10 31.5z" />
    <glyph glyph-name="eth" unicode="&#xf0;" horiz-adv-x="557" 
d="M174 582l-14 29l80 41q-65 70 -107 96l21 21q74 -35 139 -89l94 50l14 -29l-82 -43q89 -82 142 -194t53 -222q0 -116 -66.5 -186.5t-174.5 -70.5q-92 0 -161 64.5t-69 183.5q0 114 61.5 185t171.5 71q56 0 97 -29q-41 86 -112 168zM281 22q51 0 84.5 34.5t44.5 78
t11 93.5q0 113 -41.5 168.5t-102.5 55.5q-52 0 -85.5 -34.5t-44.5 -78t-11 -93.5q0 -109 42.5 -166.5t102.5 -57.5z" />
    <glyph glyph-name="ntilde" unicode="&#xf1;" 
d="M500 79q0 -22 10 -31.5t38 -16.5l30 -7v-29l-122 5l-123 -5v29l31 7q34 8 42 33q8 27 8 199q0 38 -3.5 65t-14 54t-33 40.5t-56.5 13.5q-70 0 -92 -38.5t-22 -119.5v-199q0 -23 10 -32.5t39 -15.5l30 -7v-29l-123 5l-113 -5v29l21 7q30 10 39.5 18t9.5 30v218
q0 55 -5.5 75t-24.5 27l-41 15v14l117 67h28l-3 -86l9 -2q17 27 59.5 54.5t97.5 27.5q159 0 159 -164zM384 653q19 0 31.5 9.5t24.5 35.5l19 -11q-25 -107 -93 -107q-24 0 -92 19q-54 15 -60 15q-41 0 -62 -44l-19 11q9 43 32.5 75.5t61.5 32.5q31 0 81 -18q61 -18 76 -18z
" />
    <glyph glyph-name="ograve" unicode="&#xf2;" horiz-adv-x="557" 
d="M273 -15q-92 0 -161 64.5t-69 183.5q0 112 66 184t177 72q94 0 161 -65.5t67 -181.5t-66.5 -186.5t-174.5 -70.5zM281 22q51 0 84.5 34.5t44.5 78t11 93.5q0 113 -41.5 168.5t-102.5 55.5q-52 0 -85.5 -34.5t-44.5 -78t-11 -93.5q0 -109 42.5 -166.5t102.5 -57.5z
M292 736l93 -183l-37 -6l-177 189h121z" />
    <glyph glyph-name="oacute" unicode="&#xf3;" horiz-adv-x="557" 
d="M273 -15q-92 0 -161 64.5t-69 183.5q0 112 66 184t177 72q94 0 161 -65.5t67 -181.5t-66.5 -186.5t-174.5 -70.5zM281 22q51 0 84.5 34.5t44.5 78t11 93.5q0 113 -41.5 168.5t-102.5 55.5q-52 0 -85.5 -34.5t-44.5 -78t-11 -93.5q0 -109 42.5 -166.5t102.5 -57.5z
M171 553l94 183h120l-175 -189z" />
    <glyph glyph-name="ocircumflex" unicode="&#xf4;" horiz-adv-x="557" 
d="M273 -15q-92 0 -161 64.5t-69 183.5q0 112 66 184t177 72q94 0 161 -65.5t67 -181.5t-66.5 -186.5t-174.5 -70.5zM281 22q51 0 84.5 34.5t44.5 78t11 93.5q0 113 -41.5 168.5t-102.5 55.5q-52 0 -85.5 -34.5t-44.5 -78t-11 -93.5q0 -109 42.5 -166.5t102.5 -57.5z
M120 566l130 176h54l132 -176l-21 -18l-136 115h-2l-133 -114z" />
    <glyph glyph-name="otilde" unicode="&#xf5;" horiz-adv-x="557" 
d="M273 -15q-92 0 -161 64.5t-69 183.5q0 112 66 184t177 72q94 0 161 -65.5t67 -181.5t-66.5 -186.5t-174.5 -70.5zM281 22q51 0 84.5 34.5t44.5 78t11 93.5q0 113 -41.5 168.5t-102.5 55.5q-52 0 -85.5 -34.5t-44.5 -78t-11 -93.5q0 -109 42.5 -166.5t102.5 -57.5z
M366 653q19 0 31.5 9.5t24.5 35.5l19 -11q-25 -107 -93 -107q-24 0 -92 19q-54 15 -60 15q-41 0 -62 -44l-19 11q9 43 32.5 75.5t61.5 32.5q31 0 81 -18q61 -18 76 -18z" />
    <glyph glyph-name="odieresis" unicode="&#xf6;" horiz-adv-x="557" 
d="M273 -15q-92 0 -161 64.5t-69 183.5q0 112 66 184t177 72q94 0 161 -65.5t67 -181.5t-66.5 -186.5t-174.5 -70.5zM281 22q51 0 84.5 34.5t44.5 78t11 93.5q0 113 -41.5 168.5t-102.5 55.5q-52 0 -85.5 -34.5t-44.5 -78t-11 -93.5q0 -109 42.5 -166.5t102.5 -57.5z
M116 643q0 29 20 48.5t48 19.5t48 -19.5t20 -48.5t-20 -48.5t-48 -19.5t-48 19.5t-20 48.5zM305 643q0 29 19.5 48.5t48.5 19.5t48.5 -19.5t19.5 -48.5t-19.5 -48.5t-48.5 -19.5t-48.5 19.5t-19.5 48.5z" />
    <glyph glyph-name="divide" unicode="&#xf7;" 
d="M64 375h462v-39h-462v39zM226 190q0 29 20 49.5t49 20.5t49 -20.5t20 -49.5t-20 -49.5t-49 -20.5t-49 20.5t-20 49.5zM226 521q0 29 20 49.5t49 20.5t49 -20.5t20 -49.5t-20 -49.5t-49 -20.5t-49 20.5t-20 49.5z" />
    <glyph glyph-name="oslash" unicode="&#xf8;" horiz-adv-x="557" 
d="M48 -23l61 75q-66 66 -66 181q0 112 66 184t177 72q81 0 142 -49l62 75l21 -18l-62 -76q65 -70 65 -179q0 -116 -66.5 -186.5t-174.5 -70.5q-82 0 -143 48l-61 -75zM136 246q0 -81 23 -133l226 274q-40 65 -108 65q-52 0 -85.5 -34.5t-44.5 -78t-11 -93.5zM281 22
q51 0 84.5 34.5t44.5 78t11 93.5q0 80 -22 132l-225 -274q39 -64 107 -64z" />
    <glyph glyph-name="ugrave" unicode="&#xf9;" horiz-adv-x="580" 
d="M398 64l-8 2q-19 -29 -56.5 -55t-91.5 -26q-153 0 -153 169l2 224q0 25 -8.5 37.5t-34.5 17.5l-31 6v29l118 5l48 6q-6 -55 -6 -299q0 -141 106 -141q29 0 50 8.5t32.5 22t18 37t8 45t1.5 53.5v173q0 25 -8.5 37.5t-34.5 17.5l-31 6v29l118 5l48 6q-5 -124 -5 -304
q0 -78 4 -100q5 -26 50 -29l26 -2v-28l-136 -24h-28zM283 736l93 -183l-37 -6l-177 189h121z" />
    <glyph glyph-name="uacute" unicode="&#xfa;" horiz-adv-x="580" 
d="M398 64l-8 2q-19 -29 -56.5 -55t-91.5 -26q-153 0 -153 169l2 224q0 25 -8.5 37.5t-34.5 17.5l-31 6v29l118 5l48 6q-6 -55 -6 -299q0 -141 106 -141q29 0 50 8.5t32.5 22t18 37t8 45t1.5 53.5v173q0 25 -8.5 37.5t-34.5 17.5l-31 6v29l118 5l48 6q-5 -124 -5 -304
q0 -78 4 -100q5 -26 50 -29l26 -2v-28l-136 -24h-28zM192 553l94 183h120l-175 -189z" />
    <glyph glyph-name="ucircumflex" unicode="&#xfb;" horiz-adv-x="580" 
d="M398 64l-8 2q-19 -29 -56.5 -55t-91.5 -26q-153 0 -153 169l2 224q0 25 -8.5 37.5t-34.5 17.5l-31 6v29l118 5l48 6q-6 -55 -6 -299q0 -141 106 -141q29 0 50 8.5t32.5 22t18 37t8 45t1.5 53.5v173q0 25 -8.5 37.5t-34.5 17.5l-31 6v29l118 5l48 6q-5 -124 -5 -304
q0 -78 4 -100q5 -26 50 -29l26 -2v-28l-136 -24h-28zM126 566l130 176h54l132 -176l-21 -18l-136 115h-2l-133 -114z" />
    <glyph glyph-name="udieresis" unicode="&#xfc;" horiz-adv-x="580" 
d="M398 64l-8 2q-19 -29 -56.5 -55t-91.5 -26q-153 0 -153 169l2 224q0 25 -8.5 37.5t-34.5 17.5l-31 6v29l118 5l48 6q-6 -55 -6 -299q0 -141 106 -141q29 0 50 8.5t32.5 22t18 37t8 45t1.5 53.5v173q0 25 -8.5 37.5t-34.5 17.5l-31 6v29l118 5l48 6q-5 -124 -5 -304
q0 -78 4 -100q5 -26 50 -29l26 -2v-28l-136 -24h-28zM122 643q0 29 20 48.5t48 19.5t48 -19.5t20 -48.5t-20 -48.5t-48 -19.5t-48 19.5t-20 48.5zM311 643q0 29 19.5 48.5t48.5 19.5t48.5 -19.5t19.5 -48.5t-19.5 -48.5t-48.5 -19.5t-48.5 19.5t-19.5 48.5z" />
    <glyph glyph-name="yacute" unicode="&#xfd;" horiz-adv-x="526" 
d="M89 -263l155 257h-10l-165 399q-10 25 -18.5 32.5t-30.5 15.5l-21 7v29l112 -5l130 5v-29l-35 -7q-29 -6 -38.5 -16.5t-0.5 -31.5l118 -311l119 311q7 20 -4 30t-41 18l-25 7v29l99 -5l94 5v-29l-21 -7q-25 -8 -32 -16t-17 -32l-277 -666zM180 553l94 183h120l-175 -189z
" />
    <glyph glyph-name="thorn" unicode="&#xfe;" horiz-adv-x="572" 
d="M76 -164v743q0 55 -5.5 75t-24.5 27l-41 15v14l130 35h28v-211q0 -35 -3.5 -66.5t-7.5 -45.5l-4 -14l8 -1q58 82 162 82q92 0 151.5 -68.5t59.5 -171.5q0 -112 -67 -188t-173 -76q-39 0 -81 12t-59 27q17 -35 17 -108v-80q0 -23 10.5 -33.5t38.5 -14.5l45 -7v-29l-138 5
l-123 -5v29l30 7q28 6 37.5 15.5t9.5 32.5zM279 429q-57 0 -86.5 -27.5t-29.5 -69.5v-194q0 -114 121 -114q66 0 109.5 50.5t43.5 154.5q0 96 -45 148t-113 52z" />
    <glyph glyph-name="ydieresis" unicode="&#xff;" horiz-adv-x="526" 
d="M89 -263l155 257h-10l-165 399q-10 25 -18.5 32.5t-30.5 15.5l-21 7v29l112 -5l130 5v-29l-35 -7q-29 -6 -38.5 -16.5t-0.5 -31.5l118 -311l119 311q7 20 -4 30t-41 18l-25 7v29l99 -5l94 5v-29l-21 -7q-25 -8 -32 -16t-17 -32l-277 -666zM110 643q0 29 20 48.5t48 19.5
t48 -19.5t20 -48.5t-20 -48.5t-48 -19.5t-48 19.5t-20 48.5zM299 643q0 29 19.5 48.5t48.5 19.5t48.5 -19.5t19.5 -48.5t-19.5 -48.5t-48.5 -19.5t-48.5 19.5t-19.5 48.5z" />
    <glyph glyph-name="Amacron" unicode="&#x100;" horiz-adv-x="751" 
d="M470 291h-244l-71 -202q-8 -21 1.5 -32t38.5 -16l52 -10v-36l-153 5l-105 -5v36l50 10q23 4 35 14.5t21 32.5l242 619l68 19q111 -299 253 -637q10 -23 20 -33.5t33 -14.5l50 -10v-36l-154 5l-156 -5v36l54 10q29 5 39 16t3 32zM455 335l-107 285l-106 -285h213zM518 794
h-286v60h286v-60z" />
    <glyph glyph-name="amacron" unicode="&#x101;" horiz-adv-x="489" 
d="M178 -15q-62 0 -99.5 36.5t-37.5 86.5q0 145 267 163v65q0 121 -95 121q-63 0 -63 -39v-80l-24 -16q-31 5 -52 23t-21 48q0 39 51.5 67.5t136.5 28.5q82 0 120 -37t38 -121q0 -39 -4 -124t-4 -105q0 -59 47 -59q26 0 44 18l10 -18q-13 -27 -39 -42.5t-56 -15.5
q-39 0 -63 20.5t-27 57.5q-12 -29 -46 -53.5t-83 -24.5zM132 126q0 -38 23.5 -61t59.5 -23q37 0 63 23.5t27 74.5l3 103q-91 -14 -124 -32q-52 -28 -52 -85zM381 582h-286v60h286v-60z" />
    <glyph glyph-name="Abreve" unicode="&#x102;" horiz-adv-x="751" 
d="M470 291h-244l-71 -202q-8 -21 1.5 -32t38.5 -16l52 -10v-36l-153 5l-105 -5v36l50 10q23 4 35 14.5t21 32.5l242 619l68 19q111 -299 253 -637q10 -23 20 -33.5t33 -14.5l50 -10v-36l-154 5l-156 -5v36l54 10q29 5 39 16t3 32zM455 335l-107 285l-106 -285h213zM374 841
q36 0 59 10t31.5 30t10.5 33t2 35v5h37v-37q0 -69 -36.5 -111t-103.5 -42q-66 0 -102.5 42t-36.5 111v37h37v-5q0 -22 2 -35t10.5 -33t31 -30t58.5 -10z" />
    <glyph glyph-name="abreve" unicode="&#x103;" horiz-adv-x="489" 
d="M178 -15q-62 0 -99.5 36.5t-37.5 86.5q0 145 267 163v65q0 121 -95 121q-63 0 -63 -39v-80l-24 -16q-31 5 -52 23t-21 48q0 39 51.5 67.5t136.5 28.5q82 0 120 -37t38 -121q0 -39 -4 -124t-4 -105q0 -59 47 -59q26 0 44 18l10 -18q-13 -27 -39 -42.5t-56 -15.5
q-39 0 -63 20.5t-27 57.5q-12 -29 -46 -53.5t-83 -24.5zM132 126q0 -38 23.5 -61t59.5 -23q37 0 63 23.5t27 74.5l3 103q-91 -14 -124 -32q-52 -28 -52 -85zM237 629q36 0 59 10t31.5 30t10.5 33t2 35v5h37v-37q0 -69 -36.5 -111t-103.5 -42q-66 0 -102.5 42t-36.5 111v37
h37v-5q0 -22 2 -35t10.5 -33t31 -30t58.5 -10z" />
    <glyph glyph-name="Aogonek" unicode="&#x104;" horiz-adv-x="751" 
d="M470 291h-244l-71 -202q-8 -21 1.5 -32t38.5 -16l52 -10v-36l-153 5l-105 -5v36l50 10q23 4 35 14.5t21 32.5l242 619l68 19q111 -299 253 -637q10 -23 20 -33.5t33 -14.5l50 -10v-36l-76 3q-78 -83 -78 -153q0 -24 8.5 -39t24.5 -21.5t29.5 -8t33.5 -1.5q19 0 33 3
l-17 -31q-39 -14 -85 -14q-51 0 -83.5 27.5t-32.5 72.5t36.5 89t91.5 77l-39 1l-156 -5v36l54 10q29 5 39 16t3 32zM455 335l-107 285l-106 -285h213z" />
    <glyph glyph-name="aogonek" unicode="&#x105;" horiz-adv-x="489" 
d="M178 -15q-62 0 -99.5 36.5t-37.5 86.5q0 145 267 163v65q0 121 -95 121q-63 0 -63 -39v-80l-24 -16q-31 5 -52 23t-21 48q0 39 51.5 67.5t136.5 28.5q82 0 120 -37t38 -121q0 -39 -4 -124t-4 -105q0 -59 47 -59q26 0 44 18l10 -18q-18 -37 -56 -51q-73 -77 -73 -147
q0 -24 8.5 -39t24.5 -21.5t29.5 -8t33.5 -1.5q19 0 33 3l-17 -31q-39 -14 -85 -14q-51 0 -83.5 27.5t-32.5 72.5q0 41 30 81t78 72q-33 4 -53 24t-22 53q-12 -29 -46 -53.5t-83 -24.5zM132 126q0 -38 23.5 -61t59.5 -23q37 0 63 23.5t27 74.5l3 103q-91 -14 -124 -32
q-52 -28 -52 -85z" />
    <glyph glyph-name="Cacute" unicode="&#x106;" horiz-adv-x="737" 
d="M158 376q0 -154 82.5 -242t230.5 -88q62 0 117 16l57 155h36q-3 -81 -3 -173q-12 -7 -33.5 -16.5t-89.5 -26t-136 -16.5q-172 0 -269 103.5t-97 257.5q0 155 105.5 262t268.5 107q94 0 172 -26l79 11l-22 -211h-32l-18 54q-43 129 -179 129q-49 0 -93.5 -14t-85.5 -45.5
t-65.5 -92.5t-24.5 -144zM295 765l94 183h120l-175 -189z" />
    <glyph glyph-name="cacute" unicode="&#x107;" horiz-adv-x="483" 
d="M136 246q0 -97 51 -146t119 -49q43 0 80 20t53 53l19 -28q-59 -111 -196 -111q-91 0 -155 62t-64 182q0 112 66.5 186t172.5 74q79 0 117.5 -30t38.5 -61q0 -30 -20.5 -49.5t-51.5 -23.5l-29 17v58q0 34 -10.5 43t-44.5 9q-64 0 -105 -54.5t-41 -151.5zM135 553l94 183
h120l-175 -189z" />
    <glyph glyph-name="Ccircumflex" unicode="&#x108;" horiz-adv-x="737" 
d="M158 376q0 -154 82.5 -242t230.5 -88q62 0 117 16l57 155h36q-3 -81 -3 -173q-12 -7 -33.5 -16.5t-89.5 -26t-136 -16.5q-172 0 -269 103.5t-97 257.5q0 155 105.5 262t268.5 107q94 0 172 -26l79 11l-22 -211h-32l-18 54q-43 129 -179 129q-49 0 -93.5 -14t-85.5 -45.5
t-65.5 -92.5t-24.5 -144zM225 778l130 176h54l132 -176l-21 -18l-136 115h-2l-133 -114z" />
    <glyph glyph-name="ccircumflex" unicode="&#x109;" horiz-adv-x="483" 
d="M136 246q0 -97 51 -146t119 -49q43 0 80 20t53 53l19 -28q-59 -111 -196 -111q-91 0 -155 62t-64 182q0 112 66.5 186t172.5 74q79 0 117.5 -30t38.5 -61q0 -30 -20.5 -49.5t-51.5 -23.5l-29 17v58q0 34 -10.5 43t-44.5 9q-64 0 -105 -54.5t-41 -151.5zM84 566l130 176
h54l132 -176l-21 -18l-136 115h-2l-133 -114z" />
    <glyph glyph-name="Cdotaccent" unicode="&#x10a;" horiz-adv-x="737" 
d="M158 376q0 -154 82.5 -242t230.5 -88q62 0 117 16l57 155h36q-3 -81 -3 -173q-12 -7 -33.5 -16.5t-89.5 -26t-136 -16.5q-172 0 -269 103.5t-97 257.5q0 155 105.5 262t268.5 107q94 0 172 -26l79 11l-22 -211h-32l-18 54q-43 129 -179 129q-49 0 -93.5 -14t-85.5 -45.5
t-65.5 -92.5t-24.5 -144zM291 882q0 32 22.5 55t54.5 23t54.5 -23t22.5 -55t-22.5 -55t-54.5 -23t-54.5 23t-22.5 55z" />
    <glyph glyph-name="cdotaccent" unicode="&#x10b;" horiz-adv-x="483" 
d="M136 246q0 -97 51 -146t119 -49q43 0 80 20t53 53l19 -28q-59 -111 -196 -111q-91 0 -155 62t-64 182q0 112 66.5 186t172.5 74q79 0 117.5 -30t38.5 -61q0 -30 -20.5 -49.5t-51.5 -23.5l-29 17v58q0 34 -10.5 43t-44.5 9q-64 0 -105 -54.5t-41 -151.5zM164 648
q0 32 22.5 55t54.5 23t54.5 -23t22.5 -55t-22.5 -55t-54.5 -23t-54.5 23t-22.5 55z" />
    <glyph glyph-name="Ccaron" unicode="&#x10c;" horiz-adv-x="737" 
d="M158 376q0 -154 82.5 -242t230.5 -88q62 0 117 16l57 155h36q-3 -81 -3 -173q-12 -7 -33.5 -16.5t-89.5 -26t-136 -16.5q-172 0 -269 103.5t-97 257.5q0 155 105.5 262t268.5 107q94 0 172 -26l79 11l-22 -211h-32l-18 54q-43 129 -179 129q-49 0 -93.5 -14t-85.5 -45.5
t-65.5 -92.5t-24.5 -144zM359 761l-130 176l24 17l133 -115h2l136 116l21 -18l-132 -176h-54z" />
    <glyph glyph-name="ccaron" unicode="&#x10d;" horiz-adv-x="483" 
d="M136 246q0 -97 51 -146t119 -49q43 0 80 20t53 53l19 -28q-59 -111 -196 -111q-91 0 -155 62t-64 182q0 112 66.5 186t172.5 74q79 0 117.5 -30t38.5 -61q0 -30 -20.5 -49.5t-51.5 -23.5l-29 17v58q0 34 -10.5 43t-44.5 9q-64 0 -105 -54.5t-41 -151.5zM214 549l-130 176
l24 17l133 -115h2l136 116l21 -18l-132 -176h-54z" />
    <glyph glyph-name="Dcaron" unicode="&#x10e;" horiz-adv-x="845" 
d="M198 0l-154 -5v36l54 10q28 5 38 15t11 33q3 95 3 260l-3 261q-2 25 -11.5 34.5t-37.5 14.5l-54 10v36l154 -5q123 10 215 10q182 0 280 -101.5t98 -250.5q0 -164 -105.5 -265t-310.5 -101q-57 0 -177 8zM266 666q-12 0 -15 -3.5t-3 -12.5v-541q0 -49 33 -62.5t117 -13.5
q39 0 74.5 7t74.5 27t67.5 52.5t47 88.5t18.5 129q0 156 -78.5 242t-231.5 86q-18 0 -55.5 0.5t-48.5 0.5zM401 761l-130 176l24 17l133 -115h2l136 116l21 -18l-132 -176h-54z" />
    <glyph glyph-name="dcaron" unicode="&#x10f;" horiz-adv-x="742" 
d="M289 53q59 0 89.5 25t30.5 60v200q0 55 -34.5 84.5t-86.5 29.5q-76 0 -114 -62.5t-38 -141.5q0 -94 44 -144.5t109 -50.5zM496 534v-359q0 -78 4 -100q5 -26 50 -29l26 -2v-28l-136 -24h-28l2 72l-8 1q-57 -80 -158 -80q-88 0 -146.5 65t-58.5 182q0 109 68 183t174 74
q75 0 124 -27v127q0 55 -5.5 75t-24.5 27l-41 15v14l133 35h28q-3 -100 -3 -221zM593 481l-21 20q43 21 69 48t26 52t-19 44.5t-55 28.5q0 23 21.5 47t46.5 24q30 0 55.5 -27.5t25.5 -67.5q0 -56 -45 -103t-104 -66z" />
    <glyph glyph-name="Dcroat" unicode="&#x110;" horiz-adv-x="845" 
d="M198 0l-154 -5v36l54 10q28 5 38 15t11 33q3 90 3 246h-85v44h85l-3 231q-2 25 -11.5 34.5t-37.5 14.5l-54 10v36l154 -5q123 10 215 10q182 0 280 -101.5t98 -250.5q0 -164 -105.5 -265t-310.5 -101q-57 0 -177 8zM370 665h-104q-12 0 -15 -3.5t-3 -12.5v-270h229v-44
h-229v-226q0 -49 33 -62.5t117 -13.5q39 0 74.5 7t74.5 27t67.5 52.5t47 88.5t18.5 129q0 156 -78.5 242t-231.5 86z" />
    <glyph glyph-name="dcroat" unicode="&#x111;" horiz-adv-x="593" 
d="M496 175q0 -78 4 -100q5 -26 50 -29l26 -2v-28l-136 -24h-28l2 72l-8 1q-57 -80 -158 -80q-88 0 -146.5 65t-58.5 182q0 109 68 183t174 74q75 0 124 -27v87h-142v34h142v6q0 55 -5.5 75t-24.5 27l-41 15v14l133 35h28q-3 -75 -3 -172h63v-34h-63v-374zM289 53
q59 0 89.5 25t30.5 60v200q0 55 -34.5 84.5t-86.5 29.5q-76 0 -114 -62.5t-38 -141.5q0 -94 44 -144.5t109 -50.5z" />
    <glyph glyph-name="Emacron" unicode="&#x112;" horiz-adv-x="693" 
d="M248 377q78 1 137 4q24 2 35.5 12.5t18.5 38.5l14 55h35l-5 -128l5 -132h-35l-14 55q-8 28 -19 39t-35 12l-137 4v-228q0 -63 73 -63h123q43 0 70 15t54 65l47 86h34l-34 -217q-136 5 -196 5h-221l-154 -5v36l54 10q28 5 38.5 15.5t10.5 32.5q3 95 3 260l-3 261
q-2 25 -11.5 34.5t-37.5 14.5l-54 10v36l154 -5h251q26 0 66 3t67 5l26 3q-8 -61 -18 -203h-36l-12 49q-13 50 -30.5 74t-46.5 24h-199q-12 0 -15 -3.5t-3 -12.5v-262zM495 794h-286v60h286v-60z" />
    <glyph glyph-name="emacron" unicode="&#x113;" horiz-adv-x="500" 
d="M363 309q2 66 -23.5 105.5t-78.5 39.5q-52 0 -85 -39t-37 -109zM44 229q0 121 67 190.5t154 69.5q50 0 88.5 -18.5t60.5 -48.5t33 -63.5t11 -67.5v-18h-320q-1 -11 -1 -27q0 -97 49 -146t116 -49q43 0 80 20t53 53l19 -28q-59 -111 -194 -111q-91 0 -153.5 62t-62.5 182z
M403 582h-286v60h286v-60z" />
    <glyph glyph-name="Ebreve" unicode="&#x114;" horiz-adv-x="693" 
d="M248 377q78 1 137 4q24 2 35.5 12.5t18.5 38.5l14 55h35l-5 -128l5 -132h-35l-14 55q-8 28 -19 39t-35 12l-137 4v-228q0 -63 73 -63h123q43 0 70 15t54 65l47 86h34l-34 -217q-136 5 -196 5h-221l-154 -5v36l54 10q28 5 38.5 15.5t10.5 32.5q3 95 3 260l-3 261
q-2 25 -11.5 34.5t-37.5 14.5l-54 10v36l154 -5h251q26 0 66 3t67 5l26 3q-8 -61 -18 -203h-36l-12 49q-13 50 -30.5 74t-46.5 24h-199q-12 0 -15 -3.5t-3 -12.5v-262zM351 841q36 0 59 10t31.5 30t10.5 33t2 35v5h37v-37q0 -69 -36.5 -111t-103.5 -42q-66 0 -102.5 42
t-36.5 111v37h37v-5q0 -22 2 -35t10.5 -33t31 -30t58.5 -10z" />
    <glyph glyph-name="ebreve" unicode="&#x115;" horiz-adv-x="500" 
d="M363 309q2 66 -23.5 105.5t-78.5 39.5q-52 0 -85 -39t-37 -109zM44 229q0 121 67 190.5t154 69.5q50 0 88.5 -18.5t60.5 -48.5t33 -63.5t11 -67.5v-18h-320q-1 -11 -1 -27q0 -97 49 -146t116 -49q43 0 80 20t53 53l19 -28q-59 -111 -194 -111q-91 0 -153.5 62t-62.5 182z
M259 629q36 0 59 10t31.5 30t10.5 33t2 35v5h37v-37q0 -69 -36.5 -111t-103.5 -42q-66 0 -102.5 42t-36.5 111v37h37v-5q0 -22 2 -35t10.5 -33t31 -30t58.5 -10z" />
    <glyph glyph-name="Edotaccent" unicode="&#x116;" horiz-adv-x="693" 
d="M248 377q78 1 137 4q24 2 35.5 12.5t18.5 38.5l14 55h35l-5 -128l5 -132h-35l-14 55q-8 28 -19 39t-35 12l-137 4v-228q0 -63 73 -63h123q43 0 70 15t54 65l47 86h34l-34 -217q-136 5 -196 5h-221l-154 -5v36l54 10q28 5 38.5 15.5t10.5 32.5q3 95 3 260l-3 261
q-2 25 -11.5 34.5t-37.5 14.5l-54 10v36l154 -5h251q26 0 66 3t67 5l26 3q-8 -61 -18 -203h-36l-12 49q-13 50 -30.5 74t-46.5 24h-199q-12 0 -15 -3.5t-3 -12.5v-262zM269 882q0 32 22.5 55t54.5 23t54.5 -23t22.5 -55t-22.5 -55t-54.5 -23t-54.5 23t-22.5 55z" />
    <glyph glyph-name="edotaccent" unicode="&#x117;" horiz-adv-x="500" 
d="M363 309q2 66 -23.5 105.5t-78.5 39.5q-52 0 -85 -39t-37 -109zM44 229q0 121 67 190.5t154 69.5q50 0 88.5 -18.5t60.5 -48.5t33 -63.5t11 -67.5v-18h-320q-1 -11 -1 -27q0 -97 49 -146t116 -49q43 0 80 20t53 53l19 -28q-59 -111 -194 -111q-91 0 -153.5 62t-62.5 182z
M179 648q0 32 22.5 55t54.5 23t54.5 -23t22.5 -55t-22.5 -55t-54.5 -23t-54.5 23t-22.5 55z" />
    <glyph glyph-name="Eogonek" unicode="&#x118;" horiz-adv-x="693" 
d="M248 377q78 1 137 4q24 2 35.5 12.5t18.5 38.5l14 55h35l-5 -128l5 -132h-35l-14 55q-8 28 -19 39t-35 12l-137 4v-228q0 -63 73 -63h123q43 0 70 15t54 65l47 86h34l-34 -217q-24 1 -55 2q-78 -83 -78 -152q0 -24 8.5 -39t24.5 -21.5t29.5 -8t33.5 -1.5t33 3l-17 -31
q-39 -14 -85 -14q-51 0 -83.5 27.5t-32.5 72.5t36 89t91 76q-74 2 -101 2h-221l-154 -5v36l54 10q28 5 38.5 15.5t10.5 32.5q3 95 3 260l-3 261q-2 25 -11.5 34.5t-37.5 14.5l-54 10v36l154 -5h251q26 0 66 3t67 5l26 3q-8 -61 -18 -203h-36l-12 49q-13 50 -30.5 74
t-46.5 24h-199q-12 0 -15 -3.5t-3 -12.5v-262z" />
    <glyph glyph-name="eogonek" unicode="&#x119;" horiz-adv-x="500" 
d="M44 229q0 121 67 190.5t154 69.5q50 0 88.5 -18.5t60.5 -48.5t33 -63.5t11 -67.5v-18h-320q-1 -11 -1 -27q0 -97 49 -146t116 -49q43 0 80 20t53 53l19 -28q-38 -71 -110 -97q-79 -84 -79 -154q0 -24 8.5 -39t24.5 -21.5t29.5 -8t33.5 -1.5q19 0 33 3l-17 -31
q-39 -14 -85 -14q-51 0 -83.5 27.5t-32.5 72.5q0 41 30 81.5t77 71.5q-4 0 -12 -0.5t-11 -0.5q-91 0 -153.5 62t-62.5 182zM363 309q2 66 -23.5 105.5t-78.5 39.5q-52 0 -85 -39t-37 -109z" />
    <glyph glyph-name="Ecaron" unicode="&#x11a;" horiz-adv-x="693" 
d="M248 377q78 1 137 4q24 2 35.5 12.5t18.5 38.5l14 55h35l-5 -128l5 -132h-35l-14 55q-8 28 -19 39t-35 12l-137 4v-228q0 -63 73 -63h123q43 0 70 15t54 65l47 86h34l-34 -217q-136 5 -196 5h-221l-154 -5v36l54 10q28 5 38.5 15.5t10.5 32.5q3 95 3 260l-3 261
q-2 25 -11.5 34.5t-37.5 14.5l-54 10v36l154 -5h251q26 0 66 3t67 5l26 3q-8 -61 -18 -203h-36l-12 49q-13 50 -30.5 74t-46.5 24h-199q-12 0 -15 -3.5t-3 -12.5v-262zM323 761l-130 176l24 17l133 -115h2l136 116l21 -18l-132 -176h-54z" />
    <glyph glyph-name="ecaron" unicode="&#x11b;" horiz-adv-x="500" 
d="M363 309q2 66 -23.5 105.5t-78.5 39.5q-52 0 -85 -39t-37 -109zM44 229q0 121 67 190.5t154 69.5q50 0 88.5 -18.5t60.5 -48.5t33 -63.5t11 -67.5v-18h-320q-1 -11 -1 -27q0 -97 49 -146t116 -49q43 0 80 20t53 53l19 -28q-59 -111 -194 -111q-91 0 -153.5 62t-62.5 182z
M231 549l-130 176l24 17l133 -115h2l136 116l21 -18l-132 -176h-54z" />
    <glyph glyph-name="Gcircumflex" unicode="&#x11c;" horiz-adv-x="815" 
d="M600 74v150q0 24 -10 34t-39 15l-63 10v38l166 -5l131 5v-38l-34 -10q-29 -9 -39 -17.5t-10 -31.5v-181q-141 -58 -252 -58q-91 0 -162.5 24t-114.5 61t-70.5 87t-38 96.5t-10.5 95.5q0 87 33 158t88 115.5t124 68.5t143 24q111 0 193 -28l80 16l-22 -214h-32l-43 134
q-1 5 -24.5 15t-64 19.5t-78.5 9.5q-131 0 -210.5 -82.5t-79.5 -218.5q0 -64 18.5 -121.5t55.5 -106t102.5 -77t150.5 -28.5q39 0 75.5 11t36.5 30zM251 778l130 176h54l132 -176l-21 -18l-136 115h-2l-133 -114z" />
    <glyph glyph-name="gcircumflex" unicode="&#x11d;" horiz-adv-x="531" 
d="M120 -111q0 -54 41.5 -82t105.5 -28q68 0 106 29.5t38 81.5q0 66 -62 79q-79 16 -173 19q-23 -11 -39.5 -37t-16.5 -62zM243 181q53 0 75.5 39.5t22.5 92.5q0 72 -29.5 108t-71.5 36q-53 0 -76 -40t-23 -92q0 -70 30 -107t72 -37zM510 388l-98 33l-6 -6q28 -41 28 -93
q0 -78 -55 -125.5t-142 -47.5q-45 0 -82 15q-17 -28 -17 -49t19.5 -30.5t95.5 -18.5l102 -12q30 -4 50.5 -9t43 -17.5t34.5 -36t12 -58.5q0 -82 -68.5 -137t-196.5 -55q-100 0 -147.5 38t-47.5 90q0 44 28.5 75t73.5 47v9q-32 4 -51 28t-19 55q0 43 62 93q-80 44 -80 140
q0 76 53.5 124.5t143.5 48.5q68 0 120 -35l155 23v-87zM103 566l130 176h54l132 -176l-21 -18l-136 115h-2l-133 -114z" />
    <glyph glyph-name="Gbreve" unicode="&#x11e;" horiz-adv-x="815" 
d="M600 74v150q0 24 -10 34t-39 15l-63 10v38l166 -5l131 5v-38l-34 -10q-29 -9 -39 -17.5t-10 -31.5v-181q-141 -58 -252 -58q-91 0 -162.5 24t-114.5 61t-70.5 87t-38 96.5t-10.5 95.5q0 87 33 158t88 115.5t124 68.5t143 24q111 0 193 -28l80 16l-22 -214h-32l-43 134
q-1 5 -24.5 15t-64 19.5t-78.5 9.5q-131 0 -210.5 -82.5t-79.5 -218.5q0 -64 18.5 -121.5t55.5 -106t102.5 -77t150.5 -28.5q39 0 75.5 11t36.5 30zM409 841q36 0 59 10t31.5 30t10.5 33t2 35v5h37v-37q0 -69 -36.5 -111t-103.5 -42q-66 0 -102.5 42t-36.5 111v37h37v-5
q0 -22 2 -35t10.5 -33t31 -30t58.5 -10z" />
    <glyph glyph-name="gbreve" unicode="&#x11f;" horiz-adv-x="531" 
d="M120 -111q0 -54 41.5 -82t105.5 -28q68 0 106 29.5t38 81.5q0 66 -62 79q-79 16 -173 19q-23 -11 -39.5 -37t-16.5 -62zM243 181q53 0 75.5 39.5t22.5 92.5q0 72 -29.5 108t-71.5 36q-53 0 -76 -40t-23 -92q0 -70 30 -107t72 -37zM510 388l-98 33l-6 -6q28 -41 28 -93
q0 -78 -55 -125.5t-142 -47.5q-45 0 -82 15q-17 -28 -17 -49t19.5 -30.5t95.5 -18.5l102 -12q30 -4 50.5 -9t43 -17.5t34.5 -36t12 -58.5q0 -82 -68.5 -137t-196.5 -55q-100 0 -147.5 38t-47.5 90q0 44 28.5 75t73.5 47v9q-32 4 -51 28t-19 55q0 43 62 93q-80 44 -80 140
q0 76 53.5 124.5t143.5 48.5q68 0 120 -35l155 23v-87zM240 629q36 0 59 10t31.5 30t10.5 33t2 35v5h37v-37q0 -69 -36.5 -111t-103.5 -42q-66 0 -102.5 42t-36.5 111v37h37v-5q0 -22 2 -35t10.5 -33t31 -30t58.5 -10z" />
    <glyph glyph-name="Gdotaccent" unicode="&#x120;" horiz-adv-x="815" 
d="M600 74v150q0 24 -10 34t-39 15l-63 10v38l166 -5l131 5v-38l-34 -10q-29 -9 -39 -17.5t-10 -31.5v-181q-141 -58 -252 -58q-91 0 -162.5 24t-114.5 61t-70.5 87t-38 96.5t-10.5 95.5q0 87 33 158t88 115.5t124 68.5t143 24q111 0 193 -28l80 16l-22 -214h-32l-43 134
q-1 5 -24.5 15t-64 19.5t-78.5 9.5q-131 0 -210.5 -82.5t-79.5 -218.5q0 -64 18.5 -121.5t55.5 -106t102.5 -77t150.5 -28.5q39 0 75.5 11t36.5 30zM331 882q0 32 22.5 55t54.5 23t54.5 -23t22.5 -55t-22.5 -55t-54.5 -23t-54.5 23t-22.5 55z" />
    <glyph glyph-name="gdotaccent" unicode="&#x121;" horiz-adv-x="531" 
d="M120 -111q0 -54 41.5 -82t105.5 -28q68 0 106 29.5t38 81.5q0 66 -62 79q-79 16 -173 19q-23 -11 -39.5 -37t-16.5 -62zM243 181q53 0 75.5 39.5t22.5 92.5q0 72 -29.5 108t-71.5 36q-53 0 -76 -40t-23 -92q0 -70 30 -107t72 -37zM510 388l-98 33l-6 -6q28 -41 28 -93
q0 -78 -55 -125.5t-142 -47.5q-45 0 -82 15q-17 -28 -17 -49t19.5 -30.5t95.5 -18.5l102 -12q30 -4 50.5 -9t43 -17.5t34.5 -36t12 -58.5q0 -82 -68.5 -137t-196.5 -55q-100 0 -147.5 38t-47.5 90q0 44 28.5 75t73.5 47v9q-32 4 -51 28t-19 55q0 43 62 93q-80 44 -80 140
q0 76 53.5 124.5t143.5 48.5q68 0 120 -35l155 23v-87zM168 648q0 32 22.5 55t54.5 23t54.5 -23t22.5 -55t-22.5 -55t-54.5 -23t-54.5 23t-22.5 55z" />
    <glyph glyph-name="Gcommaaccent" unicode="&#x122;" horiz-adv-x="815" 
d="M600 74v150q0 24 -10 34t-39 15l-63 10v38l166 -5l131 5v-38l-34 -10q-29 -9 -39 -17.5t-10 -31.5v-181q-141 -58 -252 -58q-91 0 -162.5 24t-114.5 61t-70.5 87t-38 96.5t-10.5 95.5q0 87 33 158t88 115.5t124 68.5t143 24q111 0 193 -28l80 16l-22 -214h-32l-43 134
q-1 5 -24.5 15t-64 19.5t-78.5 9.5q-131 0 -210.5 -82.5t-79.5 -218.5q0 -64 18.5 -121.5t55.5 -106t102.5 -77t150.5 -28.5q39 0 75.5 11t36.5 30zM344 -319l-21 20q43 21 69 48t26 52t-19 44.5t-55 28.5q0 23 21.5 47t46.5 24q30 0 55.5 -27.5t25.5 -67.5q0 -56 -45 -103
t-104 -66z" />
    <glyph glyph-name="gcommaaccent" unicode="&#x123;" horiz-adv-x="531" 
d="M120 -111q0 -54 41.5 -82t105.5 -28q68 0 106 29.5t38 81.5q0 66 -62 79q-79 16 -173 19q-23 -11 -39.5 -37t-16.5 -62zM243 181q53 0 75.5 39.5t22.5 92.5q0 72 -29.5 108t-71.5 36q-53 0 -76 -40t-23 -92q0 -70 30 -107t72 -37zM510 388l-98 33l-6 -6q28 -41 28 -93
q0 -78 -55 -125.5t-142 -47.5q-45 0 -82 15q-17 -28 -17 -49t19.5 -30.5t95.5 -18.5l102 -12q30 -4 50.5 -9t43 -17.5t34.5 -36t12 -58.5q0 -82 -68.5 -137t-196.5 -55q-100 0 -147.5 38t-47.5 90q0 44 28.5 75t73.5 47v9q-32 4 -51 28t-19 55q0 43 62 93q-80 44 -80 140
q0 76 53.5 124.5t143.5 48.5q68 0 120 -35l155 23v-87zM323 806l21 -20q-43 -21 -69 -48t-26 -52t19 -44.5t55 -28.5q0 -23 -21.5 -47t-46.5 -24q-30 0 -55.5 27.5t-25.5 67.5q0 56 45 103t104 66z" />
    <glyph glyph-name="Hcircumflex" unicode="&#x124;" horiz-adv-x="880" 
d="M245 379h390l-3 232q-1 23 -11 33t-38 15l-54 10v36l153 -5l154 5v-36l-54 -10q-28 -5 -38 -15t-11 -33q-3 -89 -3 -254l3 -268q1 -23 11 -33t38 -15l54 -10v-36l-154 5l-153 -5v36l54 10q28 5 38 15t11 33q3 90 3 246h-390l3 -246q1 -23 11 -33t38 -15l54 -10v-36
l-153 5l-154 -5v36l54 10q28 5 38 15t11 33q3 103 3 268l-3 254q-1 23 -11 33t-38 15l-54 10v36l154 -5l153 5v-36l-54 -10q-28 -5 -38 -15t-11 -33q-3 -76 -3 -232zM273 778l130 176h54l132 -176l-21 -18l-136 115h-2l-133 -114z" />
    <glyph glyph-name="hcircumflex" unicode="&#x125;" horiz-adv-x="582" 
d="M169 409l9 -2q18 28 60 55t97 27q159 0 159 -164l-2 -246q0 -22 10 -31.5t38 -16.5l30 -7v-29l-122 5l-123 -5v29l31 7q34 8 42 33q8 27 8 199q0 38 -3.5 65t-14 54t-33 40.5t-56.5 13.5q-70 0 -92 -38.5t-22 -119.5v-199q0 -23 10.5 -32.5t38.5 -15.5l30 -7v-29l-123 5
l-113 -5v29l21 7q30 10 39.5 18t9.5 30v510q0 55 -5 75t-24 27l-42 15v14l130 35h28v-221q0 -43 -4 -74t-8 -41zM128 854l130 176h54l132 -176l-21 -18l-136 115h-2l-133 -114z" />
    <glyph glyph-name="Hbar" unicode="&#x126;" horiz-adv-x="880" 
d="M248 611q-1 -32 -2 -86h388l-2 86q-1 23 -11 33t-38 15l-54 10v36l153 -5l154 5v-36l-54 -10q-28 -5 -38 -15t-11 -33q-1 -34 -2 -86h89v-44h-90v-124l3 -268q1 -23 11 -33t38 -15l54 -10v-36l-154 5l-153 -5v36l54 10q28 5 38 15t11 33q3 90 3 246h-390l3 -246
q1 -23 11 -33t38 -15l54 -10v-36l-153 5l-154 -5v36l54 10q28 5 38 15t11 33q3 103 3 268q0 85 -1 124h-89v44h89l-2 86q-1 23 -11 33t-38 15l-54 10v36l154 -5l153 5v-36l-54 -10q-28 -5 -38 -15t-11 -33zM245 379h390q0 69 -1 102h-389v-102z" />
    <glyph glyph-name="hbar" unicode="&#x127;" horiz-adv-x="582" 
d="M35 583h63q-1 50 -7 76t-23 32l-41 15v14l130 35h28v-172h143v-34h-143v-25q0 -43 -4 -72t-8 -36l-4 -8l9 -1q18 28 60 55t97 27q159 0 159 -164l-2 -246q0 -22 10 -31.5t39 -16.5l29 -7v-29l-122 5l-122 -5v29l30 7q34 8 42 33q2 6 3.5 14t2.5 20t1.5 21.5t0.5 28.5
v31.5v39.5v44q0 105 -28 139q-26 34 -79 34q-70 0 -92 -38.5t-22 -119.5v-199q0 -23 10.5 -32.5t38.5 -15.5l30 -7v-29l-123 5l-113 -5v29l21 7q21 7 29.5 11t14 13t5.5 24v470h-63v34z" />
    <glyph glyph-name="Itilde" unicode="&#x128;" horiz-adv-x="395" 
d="M198 0l-154 -5v36l54 10q28 5 38 15t11 33q3 95 3 260l-3 261q-2 25 -11.5 34.5t-37.5 14.5l-54 10v36l154 -5l153 5v-36l-54 -10q-28 -5 -37.5 -14.5t-11.5 -34.5q-3 -96 -3 -261l3 -260q1 -23 11 -33t38 -15l54 -10v-36zM286 865q19 0 31.5 9.5t24.5 35.5l19 -11
q-25 -107 -93 -107q-24 0 -92 19q-54 15 -60 15q-41 0 -62 -44l-19 11q9 43 32.5 75.5t61.5 32.5q31 0 81 -18q61 -18 76 -18z" />
    <glyph glyph-name="itilde" unicode="&#x129;" horiz-adv-x="296" 
d="M236 653q19 0 31.5 9.5t24.5 35.5l19 -11q-25 -107 -93 -107q-24 0 -92 19q-54 15 -60 15q-41 0 -62 -44l-19 11q9 43 32.5 75.5t61.5 32.5q31 0 81 -18q61 -18 76 -18zM110 79v218q0 53 -6 74t-26 28l-41 15v14l126 67h36q-2 -73 -2 -170v-246q0 -23 9.5 -32t38.5 -16
l31 -7v-29l-122 5l-124 -5v29l31 7q29 7 39 16.5t10 31.5z" />
    <glyph glyph-name="imacron" unicode="&#x12b;" horiz-adv-x="296" 
d="M291 582h-286v60h286v-60zM110 79v218q0 53 -6 74t-26 28l-41 15v14l126 67h36q-2 -73 -2 -170v-246q0 -23 9.5 -32t38.5 -16l31 -7v-29l-122 5l-124 -5v29l31 7q29 7 39 16.5t10 31.5z" />
    <glyph glyph-name="Ibreve" unicode="&#x12c;" horiz-adv-x="395" 
d="M198 0l-154 -5v36l54 10q28 5 38 15t11 33q3 95 3 260l-3 261q-2 25 -11.5 34.5t-37.5 14.5l-54 10v36l154 -5l153 5v-36l-54 -10q-28 -5 -37.5 -14.5t-11.5 -34.5q-3 -96 -3 -261l3 -260q1 -23 11 -33t38 -15l54 -10v-36zM197 841q36 0 59 10t31.5 30t10.5 33t2 35v5h37
v-37q0 -69 -36.5 -111t-103.5 -42q-66 0 -102.5 42t-36.5 111v37h37v-5q0 -22 2 -35t10.5 -33t31 -30t58.5 -10z" />
    <glyph glyph-name="Iogonek" unicode="&#x12e;" horiz-adv-x="395" 
d="M198 0l-154 -5v36l54 10q28 5 38 15t11 33q3 95 3 260l-3 261q-2 25 -11.5 34.5t-37.5 14.5l-54 10v36l154 -5l153 5v-36l-54 -10q-28 -5 -37.5 -14.5t-11.5 -34.5q-3 -96 -3 -261l3 -260q1 -23 11 -33t38 -15l54 -10v-36l-71 3q-78 -83 -78 -153q0 -24 8.5 -39
t24.5 -21.5t29.5 -8t33.5 -1.5t33 3l-17 -31q-39 -14 -85 -14q-51 0 -83.5 27.5t-32.5 72.5t36.5 89t91.5 77z" />
    <glyph glyph-name="iogonek" unicode="&#x12f;" horiz-adv-x="296" 
d="M110 79v218q0 53 -6 74t-26 28l-41 15v14l126 67h36q-2 -73 -2 -170v-246q0 -23 9.5 -32t38.5 -16l31 -7v-29l-70 3q-78 -83 -78 -153q0 -24 8.5 -39t24.5 -21.5t29.5 -8t33.5 -1.5t33 3l-17 -31q-39 -14 -85 -14q-51 0 -83.5 27.5t-32.5 72.5t37 89.5t92 77.5h-14
l-124 -5v29l31 7q29 7 39 16.5t10 31.5zM78 663q0 29 20 48.5t48 19.5t48 -19.5t20 -48.5t-20 -48.5t-48 -19.5t-48 19.5t-20 48.5z" />
    <glyph glyph-name="Idotaccent" unicode="&#x130;" horiz-adv-x="395" 
d="M198 0l-154 -5v36l54 10q28 5 38 15t11 33q3 95 3 260l-3 261q-2 25 -11.5 34.5t-37.5 14.5l-54 10v36l154 -5l153 5v-36l-54 -10q-28 -5 -37.5 -14.5t-11.5 -34.5q-3 -96 -3 -261l3 -260q1 -23 11 -33t38 -15l54 -10v-36zM121 882q0 32 22.5 55t54.5 23t54.5 -23
t22.5 -55t-22.5 -55t-54.5 -23t-54.5 23t-22.5 55z" />
    <glyph glyph-name="dotlessi" unicode="&#x131;" horiz-adv-x="296" 
d="M110 79v218q0 53 -6 74t-26 28l-41 15v14l126 67h36q-2 -73 -2 -170v-246q0 -23 9.5 -32t38.5 -16l31 -7v-29l-122 5l-124 -5v29l31 7q29 7 39 16.5t10 31.5z" />
    <glyph glyph-name="IJ" unicode="&#x132;" horiz-adv-x="781" 
d="M198 0l-154 -5v36l54 10q28 5 38 15t11 33q3 95 3 260l-3 261q-2 25 -11.5 34.5t-37.5 14.5l-54 10v36l154 -5l153 5v-36l-54 -10q-28 -5 -37.5 -14.5t-11.5 -34.5q-3 -96 -3 -261l3 -260q1 -23 11 -33t38 -15l54 -10v-36zM631 349l1 -258q1 -23 12 -33.5t39 -14.5l53 -7
v-36h-105q-4 -82 -48 -127q-51 -51 -164 -53l-17 35q67 14 98 53t32 127q2 169 3 314l-3 261q-2 25 -11.5 34t-37.5 15l-49 10v36l149 -5l153 5v-36l-53 -10q-29 -5 -38 -14t-11 -35q-3 -96 -3 -261z" />
    <glyph glyph-name="ij" unicode="&#x133;" horiz-adv-x="569" 
d="M110 79v218q0 53 -6 74t-26 28l-41 15v14l126 67h36q-2 -73 -2 -170v-246q0 -23 9.5 -32t38.5 -16l31 -7v-29l-122 5l-124 -5v29l31 7q29 7 39 16.5t10 31.5zM78 663q0 29 20 48.5t48 19.5t48 -19.5t20 -48.5t-20 -48.5t-48 -19.5t-48 19.5t-20 48.5zM383 -65v362
q0 53 -6 74t-25 28l-42 15v14l127 67h36q-3 -73 -3 -170v-240q0 -23 10 -32.5t39 -16.5l30 -7v-29h-80v-83q0 -65 -42.5 -107t-113.5 -50l-9 -1l-17 25q54 18 75 52t21 99zM351 663q0 29 19.5 48.5t48.5 19.5t48.5 -19.5t19.5 -48.5t-19.5 -48.5t-48.5 -19.5t-48.5 19.5
t-19.5 48.5z" />
    <glyph glyph-name="Jcircumflex" unicode="&#x134;" horiz-adv-x="385" 
d="M235 349l1 -258q1 -23 12 -33.5t39 -14.5l53 -7v-36h-105q-4 -82 -48 -127q-51 -51 -164 -53l-17 35q67 14 98 53t32 127q2 169 3 314l-3 261q-2 25 -11.5 34t-37.5 15l-49 10v36l149 -5l153 5v-36l-53 -10q-28 -5 -37.5 -14t-11.5 -35q-3 -96 -3 -261zM23 778l130 176
h54l132 -176l-21 -18l-136 115h-2l-133 -114z" />
    <glyph glyph-name="jcircumflex" unicode="&#x135;" horiz-adv-x="283" 
d="M97 -65v362q0 53 -6 74t-25 28l-42 15v14l127 67h36q-3 -73 -3 -170v-240q0 -23 10 -32.5t39 -16.5l30 -7v-29h-80v-83q0 -65 -42.5 -107t-113.5 -50l-9 -1l-17 25q54 18 75 52t21 99zM-21 566l130 176h54l132 -176l-21 -18l-136 115h-2l-133 -114z" />
    <glyph glyph-name="Kcommaaccent" unicode="&#x136;" horiz-adv-x="763" 
d="M198 0l-154 -5v36l54 10q28 5 38 15t11 33q3 95 3 260l-3 261q-2 25 -11.5 34.5t-37.5 14.5l-54 10v36l154 -5l153 5v-36l-54 -10q-28 -5 -37.5 -14.5t-11.5 -34.5q-3 -86 -3 -231h114q74 80 172 221q13 17 13 30q0 21 -43 29l-53 10v36l147 -5l134 5v-36l-46 -11
q-27 -6 -48.5 -22.5t-58.5 -62.5l-146 -173l223 -316q13 -19 27 -27t42 -15l46 -11v-36l-132 5l-48 -3q-63 99 -119.5 183.5t-80.5 119.5l-25 35h-118l3 -246q1 -23 11 -33t38 -15l54 -10v-36zM318 -319l-21 20q43 21 69 48t26 52t-19 44.5t-55 28.5q0 23 21.5 47t46.5 24
q30 0 55.5 -27.5t25.5 -67.5q0 -56 -45 -103t-104 -66z" />
    <glyph glyph-name="kcommaaccent" unicode="&#x137;" horiz-adv-x="563" 
d="M186 478v-196h55l117 108q16 16 11 30.5t-26 17.5l-39 5v34l102 -5l132 5v-29l-28 -7q-53 -14 -91 -49l-115 -100l156 -214q22 -31 60 -41l32 -9v-29l-122 1l-27 -2q-13 27 -55 88.5t-78 109.5l-35 47h-49v-164q0 -23 10 -32t39 -16l30 -7v-29l-122 5l-123 -5v29l30 7
q29 7 39 16.5t10 31.5v510q0 55 -5.5 75t-24.5 27l-41 15v14l133 35h28q-3 -158 -3 -277zM216 -319l-21 20q43 21 69 48t26 52t-19 44.5t-55 28.5q0 23 21.5 47t46.5 24q30 0 55.5 -27.5t25.5 -67.5q0 -56 -45 -103t-104 -66z" />
    <glyph glyph-name="kgreenlandic" unicode="&#x138;" horiz-adv-x="570" 
d="M197 262h70l103 131q15 18 11 31t-25 17l-30 5v34l90 -5l132 5v-29l-27 -7q-41 -10 -57.5 -19.5t-33.5 -29.5l-101 -121l136 -196q22 -31 60 -41l35 -9v-29l-119 1l-30 -2q-13 27 -51 83.5t-70 98.5l-31 43h-62v-144q0 -23 9.5 -32t38.5 -16l31 -7v-29l-122 5l-124 -5v29
l31 7q29 7 39 16.5t10 31.5v318q0 22 -10 31.5t-39 16.5l-31 7v29l124 -5l120 5v-29l-29 -7q-29 -7 -38.5 -16t-9.5 -32v-135z" />
    <glyph glyph-name="Lacute" unicode="&#x139;" horiz-adv-x="661" 
d="M249 102q1 -32 17 -44t55 -12h113q43 0 70 15t54 65l47 86h34l-24 -217q-146 5 -205 5h-212l-154 -5v36l54 10q28 5 38 15t11 33q3 95 3 260l-3 261q-2 25 -11.5 34.5t-37.5 14.5l-54 10v36l154 -5l153 5v-36l-54 -10q-28 -5 -37.5 -14.5t-11.5 -34.5q-3 -96 -3 -261
q0 -131 4 -247zM251 765l94 183h120l-175 -189z" />
    <glyph glyph-name="lacute" unicode="&#x13a;" horiz-adv-x="285" 
d="M187 451v-372q0 -23 9.5 -32t38.5 -16l35 -7v-29l-127 5l-124 -5v29l31 7q29 6 39 15.5t10 32.5v510q0 55 -5.5 75t-24.5 27l-41 15v14l134 35h28q-3 -165 -3 -304zM35 825l94 183h120l-175 -189z" />
    <glyph glyph-name="Lcommaaccent" unicode="&#x13b;" horiz-adv-x="660" 
d="M249 102q1 -32 17 -44t55 -12h113q43 0 70 15t54 65l47 86h34l-24 -217q-146 5 -205 5h-212l-154 -5v36l54 10q28 5 38 15t11 33q3 95 3 260l-3 261q-2 25 -11.5 34.5t-37.5 14.5l-54 10v36l154 -5l153 5v-36l-54 -10q-28 -5 -37.5 -14.5t-11.5 -34.5q-3 -96 -3 -261
q0 -131 4 -247zM266 -319l-21 20q43 21 69 48t26 52t-19 44.5t-55 28.5q0 23 21.5 47t46.5 24q30 0 55.5 -27.5t25.5 -67.5q0 -56 -45 -103t-104 -66z" />
    <glyph glyph-name="lcommaaccent" unicode="&#x13c;" horiz-adv-x="286" 
d="M187 451v-372q0 -23 9.5 -32t38.5 -16l35 -7v-29l-127 5l-124 -5v29l31 7q29 6 39 15.5t10 32.5v510q0 55 -5.5 75t-24.5 27l-41 15v14l134 35h28q-3 -165 -3 -304zM69 -319l-21 20q43 21 69 48t26 52t-19 44.5t-55 28.5q0 23 21.5 47t46.5 24q30 0 55.5 -27.5
t25.5 -67.5q0 -56 -45 -103t-104 -66z" />
    <glyph glyph-name="Lcaron" unicode="&#x13d;" horiz-adv-x="662" 
d="M249 102q1 -32 17 -44t55 -12h113q43 0 70 15t54 65l47 86h34l-24 -217q-146 5 -205 5h-212l-154 -5v36l54 10q28 5 38 15t11 33q3 95 3 260l-3 261q-2 25 -11.5 34.5t-37.5 14.5l-54 10v36l154 -5l153 5v-36l-54 -10q-28 -5 -37.5 -14.5t-11.5 -34.5q-3 -96 -3 -261
q0 -131 4 -247zM444 481l-21 20q43 21 69 48t26 52t-19 44.5t-55 28.5q0 23 21.5 47t46.5 24q30 0 55.5 -27.5t25.5 -67.5q0 -56 -45 -103t-104 -66z" />
    <glyph glyph-name="lcaron" unicode="&#x13e;" horiz-adv-x="433" 
d="M187 451v-372q0 -23 9.5 -32t38.5 -16l35 -7v-29l-127 5l-124 -5v29l31 7q29 6 39 15.5t10 32.5v510q0 55 -5.5 75t-24.5 27l-41 15v14l134 35h28q-3 -165 -3 -304zM284 481l-21 20q43 21 69 48t26 52t-19 44.5t-55 28.5q0 23 21.5 47t46.5 24q30 0 55.5 -27.5
t25.5 -67.5q0 -56 -45 -103t-104 -66z" />
    <glyph glyph-name="Ldot" unicode="&#x13f;" horiz-adv-x="661" 
d="M249 102q1 -32 17 -44t55 -12h113q43 0 70 15t54 65l47 86h34l-24 -217q-146 5 -205 5h-212l-154 -5v36l54 10q28 5 38 15t11 33q3 95 3 260l-3 261q-2 25 -11.5 34.5t-37.5 14.5l-54 10v36l154 -5l153 5v-36l-54 -10q-28 -5 -37.5 -14.5t-11.5 -34.5q-3 -96 -3 -261
q0 -131 4 -247zM372 357q0 31 21.5 52.5t52.5 21.5t52.5 -21.5t21.5 -52.5t-21.5 -52.5t-52.5 -21.5t-52.5 21.5t-21.5 52.5z" />
    <glyph glyph-name="ldot" unicode="&#x140;" horiz-adv-x="420" 
d="M187 451v-372q0 -23 9.5 -32t38.5 -16l35 -7v-29l-127 5l-124 -5v29l31 7q29 6 39 15.5t10 32.5v510q0 55 -5.5 75t-24.5 27l-41 15v14l134 35h28q-3 -165 -3 -304zM279 357q0 31 21.5 52.5t52.5 21.5t52.5 -21.5t21.5 -52.5t-21.5 -52.5t-52.5 -21.5t-52.5 21.5
t-21.5 52.5z" />
    <glyph glyph-name="Lslash" unicode="&#x141;" horiz-adv-x="667" 
d="M465 403l-213 -86v-208q1 -63 73 -63h113q43 0 70 15t54 65l47 86h34l-34 -217q-136 5 -195 5h-212l-154 -5v36l54 10q28 5 38.5 15t10.5 33v188l-102 -41v46l102 41v287q0 24 -10.5 34t-38.5 15l-54 10v36l154 -5l153 5v-36l-54 -10q-28 -5 -38.5 -15t-10.5 -34v-247
l213 86v-46z" />
    <glyph glyph-name="lslash" unicode="&#x142;" horiz-adv-x="291" 
d="M190 351l86 35v-46l-86 -35v-226q0 -23 9.5 -32t37.5 -16l36 -7v-29l-127 5l-125 -5v29l32 7q29 6 39 15.5t10 32.5v192l-88 -35v46l88 35v272q0 55 -5.5 75t-24.5 27l-41 15v14l131 35h28v-404z" />
    <glyph glyph-name="Nacute" unicode="&#x143;" horiz-adv-x="858" 
d="M152 610q0 23 -10 33.5t-38 15.5l-51 10v36l129 -5l95 5q20 -44 40 -70l359 -481q-4 198 -10 456q-1 24 -11 34t-38 15l-54 10v36l134 -5l130 5v-36l-54 -10q-28 -5 -38.5 -15t-10.5 -34q-6 -265 -6 -615h-50q-130 178 -247.5 335t-170.5 225l-52 68q1 -400 1 -534
q0 -23 10.5 -33t38.5 -15l54 -10v-36l-139 5l-124 -5v36l54 10q28 5 38 15t11 33q10 240 10 521zM324 765l94 183h120l-175 -189z" />
    <glyph glyph-name="nacute" unicode="&#x144;" 
d="M500 79q0 -22 10 -31.5t38 -16.5l30 -7v-29l-122 5l-123 -5v29l31 7q34 8 42 33q8 27 8 199q0 38 -3.5 65t-14 54t-33 40.5t-56.5 13.5q-70 0 -92 -38.5t-22 -119.5v-199q0 -23 10 -32.5t39 -15.5l30 -7v-29l-123 5l-113 -5v29l21 7q30 10 39.5 18t9.5 30v218
q0 55 -5.5 75t-24.5 27l-41 15v14l117 67h28l-3 -86l9 -2q17 27 59.5 54.5t97.5 27.5q159 0 159 -164zM204 553l94 183h120l-175 -189z" />
    <glyph glyph-name="Ncommaaccent" unicode="&#x145;" horiz-adv-x="858" 
d="M152 610q0 23 -10 33.5t-38 15.5l-51 10v36l129 -5l95 5q20 -44 40 -70l359 -481q-4 198 -10 456q-1 24 -11 34t-38 15l-54 10v36l134 -5l130 5v-36l-54 -10q-28 -5 -38.5 -15t-10.5 -34q-6 -265 -6 -615h-50q-130 178 -247.5 335t-170.5 225l-52 68q1 -400 1 -534
q0 -23 10.5 -33t38.5 -15l54 -10v-36l-139 5l-124 -5v36l54 10q28 5 38 15t11 33q10 240 10 521zM365 -319l-21 20q43 21 69 48t26 52t-19 44.5t-55 28.5q0 23 21.5 47t46.5 24q30 0 55.5 -27.5t25.5 -67.5q0 -56 -45 -103t-104 -66z" />
    <glyph glyph-name="ncommaaccent" unicode="&#x146;" horiz-adv-x="591" 
d="M500 79q0 -22 10 -31.5t38 -16.5l30 -7v-29l-122 5l-123 -5v29l31 7q34 8 42 33q8 27 8 199q0 38 -3.5 65t-14 54t-33 40.5t-56.5 13.5q-70 0 -92 -38.5t-22 -119.5v-199q0 -23 10 -32.5t39 -15.5l30 -7v-29l-123 5l-113 -5v29l21 7q30 10 39.5 18t9.5 30v218
q0 55 -5.5 75t-24.5 27l-41 15v14l117 67h28l-3 -86l9 -2q17 27 59.5 54.5t97.5 27.5q159 0 159 -164zM231 -319l-21 20q43 21 69 48t26 52t-19 44.5t-55 28.5q0 23 21.5 47t46.5 24q30 0 55.5 -27.5t25.5 -67.5q0 -56 -45 -103t-104 -66z" />
    <glyph glyph-name="Ncaron" unicode="&#x147;" horiz-adv-x="858" 
d="M152 610q0 23 -10 33.5t-38 15.5l-51 10v36l129 -5l95 5q20 -44 40 -70l359 -481q-4 198 -10 456q-1 24 -11 34t-38 15l-54 10v36l134 -5l130 5v-36l-54 -10q-28 -5 -38.5 -15t-10.5 -34q-6 -265 -6 -615h-50q-130 178 -247.5 335t-170.5 225l-52 68q1 -400 1 -534
q0 -23 10.5 -33t38.5 -15l54 -10v-36l-139 5l-124 -5v36l54 10q28 5 38 15t11 33q10 240 10 521zM388 761l-130 176l24 17l133 -115h2l136 116l21 -18l-132 -176h-54z" />
    <glyph glyph-name="ncaron" unicode="&#x148;" 
d="M500 79q0 -22 10 -31.5t38 -16.5l30 -7v-29l-122 5l-123 -5v29l31 7q34 8 42 33q8 27 8 199q0 38 -3.5 65t-14 54t-33 40.5t-56.5 13.5q-70 0 -92 -38.5t-22 -119.5v-199q0 -23 10 -32.5t39 -15.5l30 -7v-29l-123 5l-113 -5v29l21 7q30 10 39.5 18t9.5 30v218
q0 55 -5.5 75t-24.5 27l-41 15v14l117 67h28l-3 -86l9 -2q17 27 59.5 54.5t97.5 27.5q159 0 159 -164zM268 549l-130 176l24 17l133 -115h2l136 116l21 -18l-132 -176h-54z" />
    <glyph glyph-name="napostrophe" unicode="&#x149;" 
d="M500 79q0 -22 10 -31.5t38 -16.5l30 -7v-29l-122 5l-123 -5v29l31 7q34 8 42 33q8 27 8 199q0 38 -3.5 65t-14 54t-33 40.5t-56.5 13.5q-70 0 -92 -38.5t-22 -119.5v-199q0 -23 10 -32.5t39 -15.5l30 -7v-29l-123 5l-113 -5v29l21 7q30 10 39.5 18t9.5 30v218
q0 55 -5.5 75t-24.5 27l-41 15v14l117 67h28l-3 -86l9 -2q17 27 59.5 54.5t97.5 27.5q159 0 159 -164zM55 516l-21 20q43 21 69 48t26 52t-19 44.5t-55 28.5q0 23 21.5 47t46.5 24q30 0 55.5 -27.5t25.5 -67.5q0 -56 -45 -103t-104 -66z" />
    <glyph glyph-name="Eng" unicode="&#x14a;" horiz-adv-x="849" 
d="M714 610l-5 -671q-1 -101 -54 -149.5t-161 -49.5l-17 35q68 14 99 53.5t31 126.5v98l-411 580v-544q0 -23 10 -33t38 -15l54 -10v-36l-134 5l-124 -5v36l54 10q28 5 38.5 15t10.5 33l10 521q0 24 -10.5 34t-38.5 15l-54 10v36l134 -5l92 5l392 -562l-10 467q-1 24 -11 34
t-38 15l-54 10v36l134 -5l127 5v-36l-53 -10q-29 -5 -39 -15t-10 -34z" />
    <glyph glyph-name="eng" unicode="&#x14b;" horiz-adv-x="593" 
d="M490 -2v-81q0 -67 -45 -108.5t-120 -49.5l-17 25q62 19 84 65q8 16 13 39t7.5 45t3.5 63.5t1 70.5t-0.5 92t-0.5 104q0 105 -27 139t-79 34q-70 0 -92 -38.5t-22 -119.5v-199q0 -23 10.5 -33t37.5 -15l41 -7v-29l-133 5l-123 -5v29l31 7q28 6 38.5 15.5t10.5 32.5v218
q0 55 -5.5 75t-24.5 27l-41 15v14l116 67h29l-3 -87l9 -1q17 27 59.5 54.5t97.5 27.5q158 0 158 -170l-2 -240q0 -22 10 -31t39 -17l26 -7v-29z" />
    <glyph glyph-name="Omacron" unicode="&#x14c;" horiz-adv-x="829" 
d="M418 32q53 0 96.5 19.5t71.5 50t47 71.5t27 81.5t8 81.5q0 160 -75.5 246t-182.5 86q-66 0 -116.5 -29t-78 -75.5t-41 -97.5t-13.5 -103q0 -161 75.5 -246t181.5 -85zM426 715q65 0 126 -23t111.5 -66.5t81 -114t30.5 -157.5q0 -163 -100 -266t-269 -103
q-65 0 -126.5 22.5t-112.5 65t-82 113t-31 157.5q0 163 101 267.5t271 104.5zM557 794h-286v60h286v-60z" />
    <glyph glyph-name="omacron" unicode="&#x14d;" horiz-adv-x="557" 
d="M273 -15q-92 0 -161 64.5t-69 183.5q0 112 66 184t177 72q94 0 161 -65.5t67 -181.5t-66.5 -186.5t-174.5 -70.5zM281 22q51 0 84.5 34.5t44.5 78t11 93.5q0 113 -41.5 168.5t-102.5 55.5q-52 0 -85.5 -34.5t-44.5 -78t-11 -93.5q0 -109 42.5 -166.5t102.5 -57.5z
M423 582h-286v60h286v-60z" />
    <glyph glyph-name="Obreve" unicode="&#x14e;" horiz-adv-x="829" 
d="M418 32q53 0 96.5 19.5t71.5 50t47 71.5t27 81.5t8 81.5q0 160 -75.5 246t-182.5 86q-66 0 -116.5 -29t-78 -75.5t-41 -97.5t-13.5 -103q0 -161 75.5 -246t181.5 -85zM426 715q65 0 126 -23t111.5 -66.5t81 -114t30.5 -157.5q0 -163 -100 -266t-269 -103
q-65 0 -126.5 22.5t-112.5 65t-82 113t-31 157.5q0 163 101 267.5t271 104.5zM414 841q36 0 59 10t31.5 30t10.5 33t2 35v5h37v-37q0 -69 -36.5 -111t-103.5 -42q-66 0 -102.5 42t-36.5 111v37h37v-5q0 -22 2 -35t10.5 -33t31 -30t58.5 -10z" />
    <glyph glyph-name="obreve" unicode="&#x14f;" horiz-adv-x="557" 
d="M273 -15q-92 0 -161 64.5t-69 183.5q0 112 66 184t177 72q94 0 161 -65.5t67 -181.5t-66.5 -186.5t-174.5 -70.5zM281 22q51 0 84.5 34.5t44.5 78t11 93.5q0 113 -41.5 168.5t-102.5 55.5q-52 0 -85.5 -34.5t-44.5 -78t-11 -93.5q0 -109 42.5 -166.5t102.5 -57.5z
M278 629q36 0 59 10t31.5 30t10.5 33t2 35v5h37v-37q0 -69 -36.5 -111t-103.5 -42q-66 0 -102.5 42t-36.5 111v37h37v-5q0 -22 2 -35t10.5 -33t31 -30t58.5 -10z" />
    <glyph glyph-name="Ohungarumlaut" unicode="&#x150;" horiz-adv-x="829" 
d="M418 32q53 0 96.5 19.5t71.5 50t47 71.5t27 81.5t8 81.5q0 160 -75.5 246t-182.5 86q-66 0 -116.5 -29t-78 -75.5t-41 -97.5t-13.5 -103q0 -161 75.5 -246t181.5 -85zM426 715q65 0 126 -23t111.5 -66.5t81 -114t30.5 -157.5q0 -163 -100 -266t-269 -103
q-65 0 -126.5 22.5t-112.5 65t-82 113t-31 157.5q0 163 101 267.5t271 104.5zM268 765l94 183h120l-175 -189zM427 765l94 183h120l-175 -189z" />
    <glyph glyph-name="ohungarumlaut" unicode="&#x151;" horiz-adv-x="557" 
d="M273 -15q-92 0 -161 64.5t-69 183.5q0 112 66 184t177 72q94 0 161 -65.5t67 -181.5t-66.5 -186.5t-174.5 -70.5zM281 22q51 0 84.5 34.5t44.5 78t11 93.5q0 113 -41.5 168.5t-102.5 55.5q-52 0 -85.5 -34.5t-44.5 -78t-11 -93.5q0 -109 42.5 -166.5t102.5 -57.5z
M112 553l94 183h120l-175 -189zM271 553l94 183h120l-175 -189z" />
    <glyph glyph-name="OE" unicode="&#x152;" horiz-adv-x="1143" 
d="M530 662q-40 2 -61 2q-302 0 -302 -324q0 -144 79 -221.5t229 -77.5l125 -1v553q-1 33 -17 49.5t-53 19.5zM869 0h-273q-110 -8 -164 -8q-182 0 -279.5 98.5t-97.5 246.5q0 93 33 165.5t90.5 117.5t130 68t155.5 23q24 0 183 -11h252q26 0 66 3t67 5l26 3
q-8 -61 -18 -203h-36l-13 49q-13 51 -30 74.5t-46 23.5h-201q-12 0 -15 -3.5t-3 -12.5v-262q80 1 139 4q24 2 35.5 12.5t18.5 38.5l13 55h36l-5 -128l5 -132h-36l-13 55q-8 28 -19 39t-35 12l-139 4v-228q0 -63 73 -63h125q43 0 70 15t54 65l47 86h34l-34 -217
q-136 5 -196 5z" />
    <glyph glyph-name="oe" unicode="&#x153;" horiz-adv-x="877" 
d="M273 -15q-92 0 -161 64.5t-69 183.5q0 112 66 184t177 72q54 0 102.5 -24t80.5 -69q32 45 78.5 69t94.5 24q50 0 88.5 -18.5t60.5 -48.5t33 -63.5t11 -67.5v-18h-320q-1 -8 -1 -19v-8q0 -97 49 -146t116 -49q43 0 80 20t53 53l19 -28q-59 -111 -194 -111q-115 0 -175 88
q-66 -88 -189 -88zM740 309q2 66 -23.5 105.5t-78.5 39.5q-52 0 -85 -39t-37 -109zM281 22q51 0 84.5 34.5t44.5 78t11 93.5q0 113 -41.5 168.5t-102.5 55.5q-52 0 -85.5 -34.5t-44.5 -78t-11 -93.5q0 -109 42.5 -166.5t102.5 -57.5z" />
    <glyph glyph-name="Racute" unicode="&#x154;" horiz-adv-x="739" 
d="M150 349l-3 261q-2 25 -11.5 34.5t-37.5 14.5l-54 10v36l202 -3q88 9 153 9q28 0 55.5 -4.5t56.5 -17.5t50 -33t35 -53.5t14 -76.5q0 -59 -38 -107.5t-106 -76.5v-4l111 -158q52 -74 98 -117q33 -32 91 -38l-10 -41q-104 0 -156 27t-96 91q-18 25 -69 108.5t-65 103.5
h-122q1 -108 4 -225q1 -23 11 -33t38 -15l54 -10v-36l-157 5l-154 -5v36l54 10q28 5 38.5 15.5t10.5 32.5q3 95 3 260zM340 666h-74q-12 0 -15 -3.5t-3 -12.5v-285q54 -8 144 -8q38 0 75.5 40.5t37.5 117.5q0 72 -46.5 111.5t-118.5 39.5zM287 765l94 183h120l-175 -189z
" />
    <glyph glyph-name="racute" unicode="&#x155;" horiz-adv-x="420" 
d="M177 383l9 -2q26 37 67.5 70t81.5 33q35 0 54.5 -18t19.5 -43q0 -20 -14 -37.5t-38 -27.5h-14l-59 52q-64 -34 -91 -58v-273q0 -23 10.5 -33t38.5 -15l45 -7v-29l-138 5l-113 -5v29l21 7q30 10 39.5 18t9.5 30v218q0 55 -5.5 75t-24.5 27l-41 15v14l117 67h28zM108 553
l94 183h120l-175 -189z" />
    <glyph glyph-name="Rcommaaccent" unicode="&#x156;" horiz-adv-x="738" 
d="M150 349l-3 261q-2 25 -11.5 34.5t-37.5 14.5l-54 10v36l202 -3q88 9 153 9q28 0 55.5 -4.5t56.5 -17.5t50 -33t35 -53.5t14 -76.5q0 -59 -38 -107.5t-106 -76.5v-4l111 -158q52 -74 98 -117q33 -32 91 -38l-10 -41q-104 0 -156 27t-96 91q-18 25 -69 108.5t-65 103.5
h-122q1 -108 4 -225q1 -23 11 -33t38 -15l54 -10v-36l-157 5l-154 -5v36l54 10q28 5 38.5 15.5t10.5 32.5q3 95 3 260zM340 666h-74q-12 0 -15 -3.5t-3 -12.5v-285q54 -8 144 -8q38 0 75.5 40.5t37.5 117.5q0 72 -46.5 111.5t-118.5 39.5zM305 -319l-21 20q43 21 69 48
t26 52t-19 44.5t-55 28.5q0 23 21.5 47t46.5 24q30 0 55.5 -27.5t25.5 -67.5q0 -56 -45 -103t-104 -66z" />
    <glyph glyph-name="rcommaaccent" unicode="&#x157;" horiz-adv-x="420" 
d="M177 383l9 -2q26 37 67.5 70t81.5 33q35 0 54.5 -18t19.5 -43q0 -20 -14 -37.5t-38 -27.5h-14l-59 52q-64 -34 -91 -58v-273q0 -23 10.5 -33t38.5 -15l45 -7v-29l-138 5l-113 -5v29l21 7q30 10 39.5 18t9.5 30v218q0 55 -5.5 75t-24.5 27l-41 15v14l117 67h28zM145 -319
l-21 20q43 21 69 48t26 52t-19 44.5t-55 28.5q0 23 21.5 47t46.5 24q30 0 55.5 -27.5t25.5 -67.5q0 -56 -45 -103t-104 -66z" />
    <glyph glyph-name="Rcaron" unicode="&#x158;" horiz-adv-x="739" 
d="M150 349l-3 261q-2 25 -11.5 34.5t-37.5 14.5l-54 10v36l202 -3q88 9 153 9q28 0 55.5 -4.5t56.5 -17.5t50 -33t35 -53.5t14 -76.5q0 -59 -38 -107.5t-106 -76.5v-4l111 -158q52 -74 98 -117q33 -32 91 -38l-10 -41q-104 0 -156 27t-96 91q-18 25 -69 108.5t-65 103.5
h-122q1 -108 4 -225q1 -23 11 -33t38 -15l54 -10v-36l-157 5l-154 -5v36l54 10q28 5 38.5 15.5t10.5 32.5q3 95 3 260zM340 666h-74q-12 0 -15 -3.5t-3 -12.5v-285q54 -8 144 -8q38 0 75.5 40.5t37.5 117.5q0 72 -46.5 111.5t-118.5 39.5zM336 761l-130 176l24 17l133 -115
h2l136 116l21 -18l-132 -176h-54z" />
    <glyph glyph-name="rcaron" unicode="&#x159;" horiz-adv-x="420" 
d="M177 383l9 -2q26 37 67.5 70t81.5 33q35 0 54.5 -18t19.5 -43q0 -20 -14 -37.5t-38 -27.5h-14l-59 52q-64 -34 -91 -58v-273q0 -23 10.5 -33t38.5 -15l45 -7v-29l-138 5l-113 -5v29l21 7q30 10 39.5 18t9.5 30v218q0 55 -5.5 75t-24.5 27l-41 15v14l117 67h28zM187 549
l-130 176l24 17l133 -115h2l136 116l21 -18l-132 -176h-54z" />
    <glyph glyph-name="Sacute" unicode="&#x15a;" horiz-adv-x="588" 
d="M152 101q15 -34 56 -52.5t86 -18.5q60 0 103.5 32.5t43.5 90.5q0 41 -29.5 74.5t-67 52.5t-94 46.5t-87.5 48.5q-86 59 -86 153q0 79 64.5 133t172.5 54q42 0 88.5 -6.5t74 -13t33.5 -9.5q-12 -92 -19 -174h-38q-17 60 -36 118q-4 15 -32.5 27t-77.5 12q-60 0 -99 -30.5
t-39 -80.5q0 -42 37.5 -75t90.5 -56.5t106 -50.5t90.5 -72t37.5 -105q0 -99 -69 -156.5t-174 -57.5q-51 0 -106 10t-85 21l-30 10q1 94 -6 203l41 5q14 -57 50 -133zM178 765l94 183h120l-175 -189z" />
    <glyph glyph-name="sacute" unicode="&#x15b;" horiz-adv-x="421" 
d="M133 42q26 -21 63 -21q98 0 98 81q0 16 -5.5 29.5t-12 22.5t-20 18t-21.5 13t-25 11t-22 10q-69 32 -101 62.5t-32 83.5q0 69 51 103t127 34q80 0 129 -23l-12 -116l-34 -3q-9 34 -19 61q-17 46 -74 46q-38 0 -64.5 -18t-26.5 -54q0 -31 25 -53t61 -37.5t72 -33.5
t61 -50.5t25 -77.5q0 -68 -52 -106.5t-120 -38.5q-36 0 -73.5 7.5t-56.5 14.5l-19 7v134h35zM103 553l94 183h120l-175 -189z" />
    <glyph glyph-name="Scircumflex" unicode="&#x15c;" horiz-adv-x="588" 
d="M152 101q15 -34 56 -52.5t86 -18.5q60 0 103.5 32.5t43.5 90.5q0 41 -29.5 74.5t-67 52.5t-94 46.5t-87.5 48.5q-86 59 -86 153q0 79 64.5 133t172.5 54q42 0 88.5 -6.5t74 -13t33.5 -9.5q-12 -92 -19 -174h-38q-17 60 -36 118q-4 15 -32.5 27t-77.5 12q-60 0 -99 -30.5
t-39 -80.5q0 -42 37.5 -75t90.5 -56.5t106 -50.5t90.5 -72t37.5 -105q0 -99 -69 -156.5t-174 -57.5q-51 0 -106 10t-85 21l-30 10q1 94 -6 203l41 5q14 -57 50 -133zM127 778l130 176h54l132 -176l-21 -18l-136 115h-2l-133 -114z" />
    <glyph glyph-name="scircumflex" unicode="&#x15d;" horiz-adv-x="421" 
d="M133 42q26 -21 63 -21q98 0 98 81q0 16 -5.5 29.5t-12 22.5t-20 18t-21.5 13t-25 11t-22 10q-69 32 -101 62.5t-32 83.5q0 69 51 103t127 34q80 0 129 -23l-12 -116l-34 -3q-9 34 -19 61q-17 46 -74 46q-38 0 -64.5 -18t-26.5 -54q0 -31 25 -53t61 -37.5t72 -33.5
t61 -50.5t25 -77.5q0 -68 -52 -106.5t-120 -38.5q-36 0 -73.5 7.5t-56.5 14.5l-19 7v134h35zM52 566l130 176h54l132 -176l-21 -18l-136 115h-2l-133 -114z" />
    <glyph glyph-name="Scedilla" unicode="&#x15e;" horiz-adv-x="588" 
d="M152 101q15 -34 56 -52.5t86 -18.5q60 0 103.5 32.5t43.5 90.5q0 41 -29.5 74.5t-67 52.5t-94 46.5t-87.5 48.5q-86 59 -86 153q0 79 64.5 133t172.5 54q42 0 88.5 -6.5t74 -13t33.5 -9.5q-12 -92 -19 -174h-38q-17 60 -36 118q-4 15 -32.5 27t-77.5 12q-60 0 -99 -30.5
t-39 -80.5q0 -42 37.5 -75t90.5 -56.5t106 -50.5t90.5 -72t37.5 -105q0 -90 -58 -146t-150 -66l-42 -49q20 0 40 -4.5t43.5 -15t38.5 -32.5t15 -53q0 -51 -38 -78.5t-94 -27.5q-63 0 -117 25l7 29q32 -14 70 -14q76 0 76 60q0 16 -10.5 30t-30 23.5t-34.5 15.5t-36 12t-23 7
l86 70q-48 1 -100 11.5t-80 19.5l-27 10q1 94 -6 203l41 5q14 -57 50 -133z" />
    <glyph glyph-name="scedilla" unicode="&#x15f;" horiz-adv-x="421" 
d="M133 42q26 -21 63 -21q98 0 98 81q0 16 -5.5 29.5t-12 22.5t-20 18t-21.5 13t-25 11t-22 10q-69 32 -101 62.5t-32 83.5q0 69 51 103t127 34q80 0 129 -23l-12 -116l-34 -3q-9 34 -19 61q-17 46 -74 46q-38 0 -64.5 -18t-26.5 -54q0 -31 25 -53t61 -37.5t72 -33.5
t61 -50.5t25 -77.5q0 -64 -46.5 -102t-110.5 -42l-41 -48q20 0 40 -4.5t43.5 -15t38.5 -32.5t15 -53q0 -51 -38 -78.5t-94 -27.5q-63 0 -117 25l7 29q32 -14 70 -14q76 0 76 60q0 16 -10.5 30t-30 23.5t-34.5 15.5t-36 12t-23 7l87 71q-30 3 -59 10t-43 12l-15 6v134h35z
" />
    <glyph glyph-name="Scaron" unicode="&#x160;" horiz-adv-x="588" 
d="M152 101q15 -34 56 -52.5t86 -18.5q60 0 103.5 32.5t43.5 90.5q0 41 -29.5 74.5t-67 52.5t-94 46.5t-87.5 48.5q-86 59 -86 153q0 79 64.5 133t172.5 54q42 0 88.5 -6.5t74 -13t33.5 -9.5q-12 -92 -19 -174h-38q-17 60 -36 118q-4 15 -32.5 27t-77.5 12q-60 0 -99 -30.5
t-39 -80.5q0 -42 37.5 -75t90.5 -56.5t106 -50.5t90.5 -72t37.5 -105q0 -99 -69 -156.5t-174 -57.5q-51 0 -106 10t-85 21l-30 10q1 94 -6 203l41 5q14 -57 50 -133zM257 761l-130 176l24 17l133 -115h2l136 116l21 -18l-132 -176h-54z" />
    <glyph glyph-name="scaron" unicode="&#x161;" horiz-adv-x="421" 
d="M133 42q26 -21 63 -21q98 0 98 81q0 16 -5.5 29.5t-12 22.5t-20 18t-21.5 13t-25 11t-22 10q-69 32 -101 62.5t-32 83.5q0 69 51 103t127 34q80 0 129 -23l-12 -116l-34 -3q-9 34 -19 61q-17 46 -74 46q-38 0 -64.5 -18t-26.5 -54q0 -31 25 -53t61 -37.5t72 -33.5
t61 -50.5t25 -77.5q0 -68 -52 -106.5t-120 -38.5q-36 0 -73.5 7.5t-56.5 14.5l-19 7v134h35zM182 549l-130 176l24 17l133 -115h2l136 116l21 -18l-132 -176h-54z" />
    <glyph glyph-name="Tcommaaccent" unicode="&#x162;" horiz-adv-x="710" 
d="M189 700l167 -3l167 3q38 0 76.5 3t58.5 5l19 3q1 -112 9 -203h-40l-17 59q-27 87 -89 87h-134q-3 -140 -3 -305l3 -260q1 -23 11 -33t38 -15l53 -10v-36l-152 5l-154 -5v36l54 10q28 5 38 15t11 33q3 95 3 260l-3 305h-133q-63 0 -90 -87l-18 -59h-40l11 203
q68 -11 154 -11zM281 -319l-21 20q43 21 69 48t26 52t-19 44.5t-55 28.5q0 23 21.5 47t46.5 24q30 0 55.5 -27.5t25.5 -67.5q0 -56 -45 -103t-104 -66z" />
    <glyph glyph-name="tcommaaccent" unicode="&#x163;" horiz-adv-x="377" 
d="M152 602l38 -1v-136h157l-7 -57l-150 15v-269q0 -67 18.5 -90t57.5 -23q21 0 46.5 12t35.5 30l16 -21q-13 -37 -50.5 -57t-80.5 -20q-59 0 -94.5 32t-35.5 94v303h-90v35q35 15 62 29q58 29 77 124zM124 -319l-21 20q43 21 69 48t26 52t-19 44.5t-55 28.5q0 23 21.5 47
t46.5 24q30 0 55.5 -27.5t25.5 -67.5q0 -56 -45 -103t-104 -66z" />
    <glyph glyph-name="Tcaron" unicode="&#x164;" horiz-adv-x="712" 
d="M190 700l167 -3l167 3q38 0 76.5 3t57.5 5l20 3q1 -112 9 -203h-40l-17 59q-27 87 -89 87h-134q-3 -140 -3 -305l3 -260q1 -23 11 -33t38 -15l53 -10v-36l-152 5l-154 -5v36l54 10q28 5 38 15t11 33q3 95 3 260l-3 305h-133q-63 0 -90 -87l-18 -59h-40l11 203
q68 -11 154 -11zM328 761l-130 176l24 17l133 -115h2l136 116l21 -18l-132 -176h-54z" />
    <glyph glyph-name="tcaron" unicode="&#x165;" horiz-adv-x="376" 
d="M152 602l38 -1v-136h157l-7 -57l-150 15v-269q0 -67 18.5 -90t57.5 -23q21 0 46.5 12t35.5 30l16 -21q-13 -37 -50.5 -57t-80.5 -20q-59 0 -94.5 32t-35.5 94v303h-90v35q35 15 62 29q58 29 77 124zM271 536l-21 20q43 21 69 48t26 52t-19 44.5t-55 28.5q0 23 21.5 47
t46.5 24q30 0 55.5 -27.5t25.5 -67.5q0 -56 -45 -103t-104 -66z" />
    <glyph glyph-name="Tbar" unicode="&#x166;" horiz-adv-x="712" 
d="M190 700l167 -3l167 3q38 0 76.5 3t57.5 5l20 3q1 -112 9 -203h-40l-17 59q-27 87 -89 87h-133q-3 -124 -3 -275h140v-44h-140l3 -246q1 -23 11 -33t38 -15l53 -10v-36l-153 5l-154 -5v36l54 10q28 5 38 15t11 33q3 90 3 246h-140v44h140l-3 275h-133q-63 0 -90 -87
l-18 -59h-40l11 203q68 -11 154 -11z" />
    <glyph glyph-name="tbar" unicode="&#x167;" horiz-adv-x="379" 
d="M154 602l38 -1v-136h157l-7 -57l-150 15v-105h151v-47h-151v-117q0 -67 18.5 -90t57.5 -23q21 0 46.5 12t35.5 30l16 -21q-13 -37 -50.5 -57t-80.5 -20q-59 0 -94.5 32t-35.5 94v160h-90v47h90v96h-90v35q35 15 62 29q58 29 77 124z" />
    <glyph glyph-name="Utilde" unicode="&#x168;" horiz-adv-x="838" 
d="M233 610v-368q0 -108 58 -155.5t149 -47.5q215 0 215 239q0 61 -1 191t-1 141q0 24 -10.5 34t-38.5 15l-54 10v36l134 -5l128 5v-36l-54 -10q-28 -5 -38.5 -15t-10.5 -34l-2 -341q0 -137 -73 -210.5t-215 -73.5q-139 0 -213.5 65t-74.5 190v370q0 24 -10.5 34t-38.5 15
l-54 10v36l154 -5l153 5v-36l-53 -10q-28 -5 -38.5 -15t-10.5 -34zM508 865q19 0 31.5 9.5t24.5 35.5l19 -11q-25 -107 -93 -107q-24 0 -92 19q-54 15 -60 15q-41 0 -62 -44l-19 11q9 43 32.5 75.5t61.5 32.5q31 0 81 -18q61 -18 76 -18z" />
    <glyph glyph-name="utilde" unicode="&#x169;" horiz-adv-x="580" 
d="M398 64l-8 2q-19 -29 -56.5 -55t-91.5 -26q-153 0 -153 169l2 224q0 25 -8.5 37.5t-34.5 17.5l-31 6v29l118 5l48 6q-6 -55 -6 -299q0 -141 106 -141q29 0 50 8.5t32.5 22t18 37t8 45t1.5 53.5v173q0 25 -8.5 37.5t-34.5 17.5l-31 6v29l118 5l48 6q-5 -124 -5 -304
q0 -78 4 -100q5 -26 50 -29l26 -2v-28l-136 -24h-28zM372 653q19 0 31.5 9.5t24.5 35.5l19 -11q-25 -107 -93 -107q-24 0 -92 19q-54 15 -60 15q-41 0 -62 -44l-19 11q9 43 32.5 75.5t61.5 32.5q31 0 81 -18q61 -18 76 -18z" />
    <glyph glyph-name="Umacron" unicode="&#x16a;" horiz-adv-x="838" 
d="M233 610v-368q0 -108 58 -155.5t149 -47.5q215 0 215 239q0 61 -1 191t-1 141q0 24 -10.5 34t-38.5 15l-54 10v36l134 -5l128 5v-36l-54 -10q-28 -5 -38.5 -15t-10.5 -34l-2 -341q0 -137 -73 -210.5t-215 -73.5q-139 0 -213.5 65t-74.5 190v370q0 24 -10.5 34t-38.5 15
l-54 10v36l154 -5l153 5v-36l-53 -10q-28 -5 -38.5 -15t-10.5 -34zM563 794h-286v60h286v-60z" />
    <glyph glyph-name="umacron" unicode="&#x16b;" horiz-adv-x="580" 
d="M398 64l-8 2q-19 -29 -56.5 -55t-91.5 -26q-153 0 -153 169l2 224q0 25 -8.5 37.5t-34.5 17.5l-31 6v29l118 5l48 6q-6 -55 -6 -299q0 -141 106 -141q29 0 50 8.5t32.5 22t18 37t8 45t1.5 53.5v173q0 25 -8.5 37.5t-34.5 17.5l-31 6v29l118 5l48 6q-5 -124 -5 -304
q0 -78 4 -100q5 -26 50 -29l26 -2v-28l-136 -24h-28zM427 582h-286v60h286v-60z" />
    <glyph glyph-name="Ubreve" unicode="&#x16c;" horiz-adv-x="838" 
d="M233 610v-368q0 -108 58 -155.5t149 -47.5q215 0 215 239q0 61 -1 191t-1 141q0 24 -10.5 34t-38.5 15l-54 10v36l134 -5l128 5v-36l-54 -10q-28 -5 -38.5 -15t-10.5 -34l-2 -341q0 -137 -73 -210.5t-215 -73.5q-139 0 -213.5 65t-74.5 190v370q0 24 -10.5 34t-38.5 15
l-54 10v36l154 -5l153 5v-36l-53 -10q-28 -5 -38.5 -15t-10.5 -34zM419 841q36 0 59 10t31.5 30t10.5 33t2 35v5h37v-37q0 -69 -36.5 -111t-103.5 -42q-66 0 -102.5 42t-36.5 111v37h37v-5q0 -22 2 -35t10.5 -33t31 -30t58.5 -10z" />
    <glyph glyph-name="ubreve" unicode="&#x16d;" horiz-adv-x="580" 
d="M398 64l-8 2q-19 -29 -56.5 -55t-91.5 -26q-153 0 -153 169l2 224q0 25 -8.5 37.5t-34.5 17.5l-31 6v29l118 5l48 6q-6 -55 -6 -299q0 -141 106 -141q29 0 50 8.5t32.5 22t18 37t8 45t1.5 53.5v173q0 25 -8.5 37.5t-34.5 17.5l-31 6v29l118 5l48 6q-5 -124 -5 -304
q0 -78 4 -100q5 -26 50 -29l26 -2v-28l-136 -24h-28zM284 629q36 0 59 10t31.5 30t10.5 33t2 35v5h37v-37q0 -69 -36.5 -111t-103.5 -42q-66 0 -102.5 42t-36.5 111v37h37v-5q0 -22 2 -35t10.5 -33t31 -30t58.5 -10z" />
    <glyph glyph-name="Uring" unicode="&#x16e;" horiz-adv-x="838" 
d="M233 610v-368q0 -108 58 -155.5t149 -47.5q215 0 215 239q0 61 -1 191t-1 141q0 24 -10.5 34t-38.5 15l-54 10v36l134 -5l128 5v-36l-54 -10q-28 -5 -38.5 -15t-10.5 -34l-2 -341q0 -137 -73 -210.5t-215 -73.5q-139 0 -213.5 65t-74.5 190v370q0 24 -10.5 34t-38.5 15
l-54 10v36l154 -5l153 5v-36l-53 -10q-28 -5 -38.5 -15t-10.5 -34zM333 864q0 -40 23 -65.5t63 -25.5t63.5 25.5t23.5 65.5t-23.5 65.5t-63.5 25.5t-63 -25.5t-23 -65.5zM294 864q0 53 36.5 88.5t88.5 35.5q53 0 89.5 -35.5t36.5 -88.5t-36.5 -88.5t-89.5 -35.5
q-52 0 -88.5 35.5t-36.5 88.5z" />
    <glyph glyph-name="uring" unicode="&#x16f;" horiz-adv-x="580" 
d="M398 64l-8 2q-19 -29 -56.5 -55t-91.5 -26q-153 0 -153 169l2 224q0 25 -8.5 37.5t-34.5 17.5l-31 6v29l118 5l48 6q-6 -55 -6 -299q0 -141 106 -141q29 0 50 8.5t32.5 22t18 37t8 45t1.5 53.5v173q0 25 -8.5 37.5t-34.5 17.5l-31 6v29l118 5l48 6q-5 -124 -5 -304
q0 -78 4 -100q5 -26 50 -29l26 -2v-28l-136 -24h-28zM198 652q0 -40 23 -65.5t63 -25.5t63.5 25.5t23.5 65.5t-23.5 65.5t-63.5 25.5t-63 -25.5t-23 -65.5zM159 652q0 53 36.5 88.5t88.5 35.5q53 0 89.5 -35.5t36.5 -88.5t-36.5 -88.5t-89.5 -35.5q-52 0 -88.5 35.5
t-36.5 88.5z" />
    <glyph glyph-name="Uhungarumlaut" unicode="&#x170;" horiz-adv-x="838" 
d="M233 610v-368q0 -108 58 -155.5t149 -47.5q215 0 215 239q0 61 -1 191t-1 141q0 24 -10.5 34t-38.5 15l-54 10v36l134 -5l128 5v-36l-54 -10q-28 -5 -38.5 -15t-10.5 -34l-2 -341q0 -137 -73 -210.5t-215 -73.5q-139 0 -213.5 65t-74.5 190v370q0 24 -10.5 34t-38.5 15
l-54 10v36l154 -5l153 5v-36l-53 -10q-28 -5 -38.5 -15t-10.5 -34zM246 787l94 183h120l-175 -189zM438 787l93 183h121l-177 -189z" />
    <glyph glyph-name="uhungarumlaut" unicode="&#x171;" horiz-adv-x="580" 
d="M398 64l-8 2q-19 -29 -56.5 -55t-91.5 -26q-153 0 -153 169l2 224q0 25 -8.5 37.5t-34.5 17.5l-31 6v29l118 5l48 6q-6 -55 -6 -299q0 -141 106 -141q29 0 50 8.5t32.5 22t18 37t8 45t1.5 53.5v173q0 25 -8.5 37.5t-34.5 17.5l-31 6v29l118 5l48 6q-5 -124 -5 -304
q0 -78 4 -100q5 -26 50 -29l26 -2v-28l-136 -24h-28zM101 553l94 183h120l-175 -189zM293 553l93 183h121l-177 -189z" />
    <glyph glyph-name="Uogonek" unicode="&#x172;" horiz-adv-x="838" 
d="M233 610v-368q0 -108 58 -155.5t149 -47.5q215 0 215 239q0 61 -1 191t-1 141q0 24 -10.5 34t-38.5 15l-54 10v36l134 -5l128 5v-36l-54 -10q-28 -5 -38.5 -15t-10.5 -34l-2 -341q0 -220 -181 -270q-79 -84 -79 -154q0 -24 8.5 -39t24.5 -21.5t29.5 -8t33.5 -1.5
q19 0 33 3l-17 -31q-39 -14 -85 -14q-51 0 -83.5 27.5t-32.5 72.5q0 41 30.5 82t79.5 73q-24 -3 -49 -3q-139 0 -213.5 65t-74.5 190v370q0 24 -10.5 34t-38.5 15l-54 10v36l154 -5l153 5v-36l-53 -10q-28 -5 -38.5 -15t-10.5 -34z" />
    <glyph glyph-name="uogonek" unicode="&#x173;" horiz-adv-x="580" 
d="M398 64l-8 2q-19 -29 -56.5 -55t-91.5 -26q-153 0 -153 169l2 224q0 25 -8.5 37.5t-34.5 17.5l-31 6v29l118 5l48 6q-6 -55 -6 -299q0 -141 106 -141q29 0 50 8.5t32.5 22t18 37t8 45t1.5 53.5v173q0 25 -8.5 37.5t-34.5 17.5l-31 6v29l118 5l48 6q-5 -124 -5 -304
q0 -78 4 -100q5 -26 50 -29l26 -2v-28l-40 -7q-89 -86 -89 -164q0 -24 8.5 -39t24.5 -21.5t29.5 -8t33.5 -1.5q19 0 33 3l-17 -31q-39 -14 -85 -14q-51 0 -83.5 27.5t-32.5 72.5q0 46 37.5 91t93.5 77l-49 -9h-28z" />
    <glyph glyph-name="Wcircumflex" unicode="&#x174;" horiz-adv-x="1123" 
d="M802 -6l-83 -10q-116 313 -154 433l-164 -423l-83 -10q-133 385 -220 627q-9 23 -20 33.5t-33 14.5l-50 10v36l154 -5l162 5v-36l-54 -10q-29 -6 -40 -16.5t-4 -31.5l175 -533l156 395l-45 138q-8 23 -18.5 33.5t-33.5 14.5l-50 10v36l194 -4l127 4v-36l-59 -12
q-20 -4 -30.5 -12t-16 -28.5t8.5 -55.5l168 -483l185 533q7 21 -4 31.5t-40 16.5l-54 10v36l157 -5l105 5v-36l-50 -10q-23 -4 -35 -14.5t-21 -32.5q-72 -186 -129.5 -340.5t-78.5 -215.5zM413 778l130 176h54l132 -176l-21 -18l-136 115h-2l-133 -114z" />
    <glyph glyph-name="wcircumflex" unicode="&#x175;" horiz-adv-x="775" 
d="M392 472h46l132 -364l82 285q4 21 -6 30.5t-39 17.5l-24 7v29l98 -5l94 5v-29l-20 -7q-25 -9 -32.5 -17t-16.5 -31l-143 -399h-40q-74 211 -134 373l-144 -373h-46q-51 168 -129 399q-7 23 -15 31t-33 17l-21 7v29l108 -5l132 5v-29l-35 -7q-28 -5 -37 -16t-2 -32
q26 -84 47 -155t29 -100l8 -30zM253 566l130 176h54l132 -176l-21 -18l-136 115h-2l-133 -114z" />
    <glyph glyph-name="Ycircumflex" unicode="&#x176;" horiz-adv-x="697" 
d="M503 31v-36l-154 5l-153 -5v36l53 10q28 5 37 14.5t10 33.5q2 64 2 134v44q-69 118 -203 344q-14 22 -26.5 32.5t-34.5 15.5l-45 10v36l154 -5l157 5v-36l-54 -10q-60 -11 -40 -48l169 -303q64 106 167 300q22 40 -38 51l-54 10v36l153 -5l105 5v-36l-47 -10
q-22 -4 -34 -14.5t-25 -32.5l-202 -340v-49q0 -70 2 -134q1 -23 10 -33t37 -15zM190 778l130 176h54l132 -176l-21 -18l-136 115h-2l-133 -114z" />
    <glyph glyph-name="ycircumflex" unicode="&#x177;" horiz-adv-x="526" 
d="M89 -263l155 257h-10l-165 399q-10 25 -18.5 32.5t-30.5 15.5l-21 7v29l112 -5l130 5v-29l-35 -7q-29 -6 -38.5 -16.5t-0.5 -31.5l118 -311l119 311q7 20 -4 30t-41 18l-25 7v29l99 -5l94 5v-29l-21 -7q-25 -8 -32 -16t-17 -32l-277 -666zM95 566l130 176h54l132 -176
l-21 -18l-136 115h-2l-133 -114z" />
    <glyph glyph-name="Ydieresis" unicode="&#x178;" horiz-adv-x="697" 
d="M503 31v-36l-154 5l-153 -5v36l53 10q28 5 37 14.5t10 33.5q2 64 2 134v44q-69 118 -203 344q-14 22 -26.5 32.5t-34.5 15.5l-45 10v36l154 -5l157 5v-36l-54 -10q-60 -11 -40 -48l169 -303q64 106 167 300q22 40 -38 51l-54 10v36l153 -5l105 5v-36l-47 -10
q-22 -4 -34 -14.5t-25 -32.5l-202 -340v-49q0 -70 2 -134q1 -23 10 -33t37 -15zM375 855q0 29 19.5 48.5t48.5 19.5t48.5 -19.5t19.5 -48.5t-19.5 -48.5t-48.5 -19.5t-48.5 19.5t-19.5 48.5zM186 855q0 29 20 48.5t48 19.5t48 -19.5t20 -48.5t-20 -48.5t-48 -19.5t-48 19.5
t-20 48.5z" />
    <glyph glyph-name="Zacute" unicode="&#x179;" horiz-adv-x="694" 
d="M496 654h-307q-29 0 -46 -23.5t-30 -73.5l-13 -49h-36l-8 203q10 -1 26.5 -3t56.5 -5t66 -3l415 4v-43q-158 -218 -433 -599q-4 -4 -1.5 -10t12.5 -6h250q43 0 70.5 15t54.5 65l47 86h34l-34 -217q-136 5 -196 5h-250l-126 -4v42q174 230 448 616zM263 765l94 183h120
l-175 -189z" />
    <glyph glyph-name="zacute" unicode="&#x17a;" horiz-adv-x="503" 
d="M156 0q-69 0 -120 -3v32l295 411h-108q-65 0 -89 -18.5t-35 -67.5l-10 -41l-35 2v164h386l5 -25l-295 -416h170q41 0 64 24.5t46 105.5h37l-18 -173q-65 5 -293 5zM167 553l94 183h120l-175 -189z" />
    <glyph glyph-name="Zdotaccent" unicode="&#x17b;" horiz-adv-x="694" 
d="M496 654h-307q-29 0 -46 -23.5t-30 -73.5l-13 -49h-36l-8 203q10 -1 26.5 -3t56.5 -5t66 -3l415 4v-43q-158 -218 -433 -599q-4 -4 -1.5 -10t12.5 -6h250q43 0 70.5 15t54.5 65l47 86h34l-34 -217q-136 5 -196 5h-250l-126 -4v42q174 230 448 616zM258 882q0 32 22.5 55
t54.5 23t54.5 -23t22.5 -55t-22.5 -55t-54.5 -23t-54.5 23t-22.5 55z" />
    <glyph glyph-name="zdotaccent" unicode="&#x17c;" horiz-adv-x="503" 
d="M156 0q-69 0 -120 -3v32l295 411h-108q-65 0 -89 -18.5t-35 -67.5l-10 -41l-35 2v164h386l5 -25l-295 -416h170q41 0 64 24.5t46 105.5h37l-18 -173q-65 5 -293 5zM174 648q0 32 22.5 55t54.5 23t54.5 -23t22.5 -55t-22.5 -55t-54.5 -23t-54.5 23t-22.5 55z" />
    <glyph glyph-name="Zcaron" unicode="&#x17d;" horiz-adv-x="694" 
d="M496 654h-307q-29 0 -46 -23.5t-30 -73.5l-13 -49h-36l-8 203q10 -1 26.5 -3t56.5 -5t66 -3l415 4v-43q-158 -218 -433 -599q-4 -4 -1.5 -10t12.5 -6h250q43 0 70.5 15t54.5 65l47 86h34l-34 -217q-136 5 -196 5h-250l-126 -4v42q174 230 448 616zM312 761l-130 176
l24 17l133 -115h2l136 116l21 -18l-132 -176h-54z" />
    <glyph glyph-name="zcaron" unicode="&#x17e;" horiz-adv-x="503" 
d="M156 0q-69 0 -120 -3v32l295 411h-108q-65 0 -89 -18.5t-35 -67.5l-10 -41l-35 2v164h386l5 -25l-295 -416h170q41 0 64 24.5t46 105.5h37l-18 -173q-65 5 -293 5zM206 549l-130 176l24 17l133 -115h2l136 116l21 -18l-132 -176h-54z" />
    <glyph glyph-name="longs" unicode="&#x17f;" horiz-adv-x="304" 
d="M198 469v-384q0 -24 9 -35t36 -16l53 -10v-29l-142 5l-123 -5v29l31 7q29 7 39 16.5t10 31.5v357h-76v34h76q0 77 23 135t61 90t81 47.5t90 15.5q33 0 66.5 -12t33.5 -32q0 -17 -24 -46.5t-47 -29.5q-1 0 -13 16t-33 31.5t-44 15.5q-36 0 -58 -18t-35.5 -70.5
t-13.5 -143.5z" />
    <glyph glyph-name="florin" unicode="&#x192;" horiz-adv-x="330" 
d="M200 469v-120l111 7l-8 -56l-103 16v-289q0 -77 -21 -134.5t-57 -89.5t-77.5 -47t-88.5 -15q-33 0 -66.5 12t-33.5 32q0 17 24 46.5t47 29.5q1 0 13 -15.5t33 -31.5t44 -16q53 0 75 48t22 184v286h-94v34h94v122q0 77 21 134.5t57 89.5t77.5 47t88.5 15q33 0 66.5 -12
t33.5 -32q0 -17 -24 -46.5t-47 -29.5q-1 0 -13 16t-33 31.5t-44 15.5q-53 0 -75 -48t-22 -184z" />
    <glyph glyph-name="Scommaaccent" unicode="&#x218;" horiz-adv-x="588" 
d="M152 101q15 -34 56 -52.5t86 -18.5q60 0 103.5 32.5t43.5 90.5q0 41 -29.5 74.5t-67 52.5t-94 46.5t-87.5 48.5q-86 59 -86 153q0 79 64.5 133t172.5 54q42 0 88.5 -6.5t74 -13t33.5 -9.5q-12 -92 -19 -174h-38q-17 60 -36 118q-4 15 -32.5 27t-77.5 12q-60 0 -99 -30.5
t-39 -80.5q0 -42 37.5 -75t90.5 -56.5t106 -50.5t90.5 -72t37.5 -105q0 -99 -69 -156.5t-174 -57.5q-51 0 -106 10t-85 21l-30 10q1 94 -6 203l41 5q14 -57 50 -133zM213 -319l-21 20q43 21 69 48t26 52t-19 44.5t-55 28.5q0 23 21.5 47t46.5 24q30 0 55.5 -27.5t25.5 -67.5
q0 -56 -45 -103t-104 -66z" />
    <glyph glyph-name="scommaaccent" unicode="&#x219;" horiz-adv-x="421" 
d="M133 42q26 -21 63 -21q98 0 98 81q0 16 -5.5 29.5t-12 22.5t-20 18t-21.5 13t-25 11t-22 10q-69 32 -101 62.5t-32 83.5q0 69 51 103t127 34q80 0 129 -23l-12 -116l-34 -3q-9 34 -19 61q-17 46 -74 46q-38 0 -64.5 -18t-26.5 -54q0 -31 25 -53t61 -37.5t72 -33.5
t61 -50.5t25 -77.5q0 -68 -52 -106.5t-120 -38.5q-36 0 -73.5 7.5t-56.5 14.5l-19 7v134h35zM146 -319l-21 20q43 21 69 48t26 52t-19 44.5t-55 28.5q0 23 21.5 47t46.5 24q30 0 55.5 -27.5t25.5 -67.5q0 -56 -45 -103t-104 -66z" />
    <glyph glyph-name="uni021A" unicode="&#x21a;" horiz-adv-x="710" 
d="M189 700l167 -3l167 3q38 0 76.5 3t58.5 5l19 3q1 -112 9 -203h-40l-17 59q-27 87 -89 87h-134q-3 -140 -3 -305l3 -260q1 -23 11 -33t38 -15l53 -10v-36l-152 5l-154 -5v36l54 10q28 5 38 15t11 33q3 95 3 260l-3 305h-133q-63 0 -90 -87l-18 -59h-40l11 203
q68 -11 154 -11zM281 -319l-21 20q43 21 69 48t26 52t-19 44.5t-55 28.5q0 23 21.5 47t46.5 24q30 0 55.5 -27.5t25.5 -67.5q0 -56 -45 -103t-104 -66z" />
    <glyph glyph-name="uni021B" unicode="&#x21b;" horiz-adv-x="377" 
d="M152 602l38 -1v-136h157l-7 -57l-150 15v-269q0 -67 18.5 -90t57.5 -23q21 0 46.5 12t35.5 30l16 -21q-13 -37 -50.5 -57t-80.5 -20q-59 0 -94.5 32t-35.5 94v303h-90v35q35 15 62 29q58 29 77 124zM124 -319l-21 20q43 21 69 48t26 52t-19 44.5t-55 28.5q0 23 21.5 47
t46.5 24q30 0 55.5 -27.5t25.5 -67.5q0 -56 -45 -103t-104 -66z" />
    <glyph glyph-name="dotlessj" unicode="&#x237;" horiz-adv-x="283" 
d="M97 -65v362q0 53 -6 74t-25 28l-42 15v14l127 67h36q-3 -73 -3 -170v-240q0 -23 10 -32.5t39 -16.5l30 -7v-29h-80v-83q0 -65 -42.5 -107t-113.5 -50l-9 -1l-17 25q54 18 75 52t21 99z" />
    <glyph glyph-name="apostrophe" unicode="&#x2bc;" horiz-adv-x="545" 
d="M199 424l-13 25q49 24 74.5 55t25.5 62q0 29 -22.5 51.5t-64.5 34.5q-1 2 -1 6q0 23 28.5 50t52.5 27q35 0 65.5 -32t30.5 -79q0 -66 -53 -121.5t-123 -78.5z" />
    <glyph glyph-name="circumflex" unicode="&#x2c6;" horiz-adv-x="401" 
d="M42 566l130 176h54l132 -176l-21 -18l-136 115h-2l-133 -114z" />
    <glyph glyph-name="caron" unicode="&#x2c7;" horiz-adv-x="401" 
d="M172 549l-130 176l24 17l133 -115h2l136 116l21 -18l-132 -176h-54z" />
    <glyph glyph-name="uni02C9" unicode="&#x2c9;" horiz-adv-x="545" 
d="M436 582h-327v60h327v-60z" />
    <glyph glyph-name="breve" unicode="&#x2d8;" horiz-adv-x="401" 
d="M200 629q36 0 59 10t31.5 30t10.5 33t2 35v5h37v-37q0 -69 -36.5 -111t-103.5 -42q-66 0 -102.5 42t-36.5 111v37h37v-5q0 -22 2 -35t10.5 -33t31 -30t58.5 -10z" />
    <glyph glyph-name="dotaccent" unicode="&#x2d9;" horiz-adv-x="401" 
d="M123 648q0 32 22.5 55t54.5 23t54.5 -23t22.5 -55t-22.5 -55t-54.5 -23t-54.5 23t-22.5 55z" />
    <glyph glyph-name="ring" unicode="&#x2da;" horiz-adv-x="401" 
d="M114 652q0 -40 23 -65.5t63 -25.5t63.5 25.5t23.5 65.5t-23.5 65.5t-63.5 25.5t-63 -25.5t-23 -65.5zM75 652q0 53 36.5 88.5t88.5 35.5q53 0 89.5 -35.5t36.5 -88.5t-36.5 -88.5t-89.5 -35.5q-52 0 -88.5 35.5t-36.5 88.5z" />
    <glyph glyph-name="ogonek" unicode="&#x2db;" horiz-adv-x="401" 
d="M271 24l6 -8q-97 -91 -97 -171q0 -24 8.5 -39t24.5 -21.5t29.5 -8t33.5 -1.5t33 3l-17 -31q-39 -14 -85 -14q-51 0 -83.5 27.5t-32.5 72.5q0 56 55 110t125 81z" />
    <glyph glyph-name="tilde" unicode="&#x2dc;" horiz-adv-x="401" 
d="M288 653q19 0 31.5 9.5t24.5 35.5l19 -11q-25 -107 -93 -107q-24 0 -92 19q-54 15 -60 15q-41 0 -62 -44l-19 11q9 43 32.5 75.5t61.5 32.5q31 0 81 -18q61 -18 76 -18z" />
    <glyph glyph-name="hungarumlaut" unicode="&#x2dd;" horiz-adv-x="401" 
d="M-3 553l94 183h120l-175 -189zM189 553l93 183h121l-177 -189z" />
    <glyph glyph-name="pi" unicode="&#x3c0;" horiz-adv-x="893" 
d="M42 352q0 170 116.5 286t287.5 116t288 -116t117 -286q0 -169 -117 -285t-288 -116t-287.5 115.5t-116.5 285.5zM85 352q0 -155 104.5 -260t256.5 -105t257 105t105 260t-105 260.5t-257 105.5t-256.5 -105.5t-104.5 -260.5zM476 131v-24l-114 3l-115 -3v24l37 7
q19 4 25.5 10.5t7.5 22.5q2 65 2 177l-2 179q-1 17 -7.5 23t-25.5 10l-37 7v24l151 -2q67 7 111 7q59 0 104.5 -33.5t45.5 -103.5q0 -60 -44 -105.5t-134 -45.5l-36 4v28q7 -1 14 -1q48 0 78 30.5t30 87.5q0 51 -29 79.5t-75 28.5h-45q-13 0 -13 -11q-1 -93 -1 -206l2 -177
q1 -16 7.5 -22.5t25.5 -10.5z" />
    <glyph glyph-name="Wgrave" unicode="&#x1e80;" horiz-adv-x="1123" 
d="M802 -6l-83 -10q-116 313 -154 433l-164 -423l-83 -10q-133 385 -220 627q-9 23 -20 33.5t-33 14.5l-50 10v36l154 -5l162 5v-36l-54 -10q-29 -6 -40 -16.5t-4 -31.5l175 -533l156 395l-45 138q-8 23 -18.5 33.5t-33.5 14.5l-50 10v36l194 -4l127 4v-36l-59 -12
q-20 -4 -30.5 -12t-16 -28.5t8.5 -55.5l168 -483l185 533q7 21 -4 31.5t-40 16.5l-54 10v36l157 -5l105 5v-36l-50 -10q-23 -4 -35 -14.5t-21 -32.5q-72 -186 -129.5 -340.5t-78.5 -215.5zM561 948l93 -183l-37 -6l-177 189h121z" />
    <glyph glyph-name="wgrave" unicode="&#x1e81;" horiz-adv-x="775" 
d="M392 472h46l132 -364l82 285q4 21 -6 30.5t-39 17.5l-24 7v29l98 -5l94 5v-29l-20 -7q-25 -9 -32.5 -17t-16.5 -31l-143 -399h-40q-74 211 -134 373l-144 -373h-46q-51 168 -129 399q-7 23 -15 31t-33 17l-21 7v29l108 -5l132 5v-29l-35 -7q-28 -5 -37 -16t-2 -32
q26 -84 47 -155t29 -100l8 -30zM414 736l93 -183l-37 -6l-177 189h121z" />
    <glyph glyph-name="Wacute" unicode="&#x1e82;" horiz-adv-x="1123" 
d="M802 -6l-83 -10q-116 313 -154 433l-164 -423l-83 -10q-133 385 -220 627q-9 23 -20 33.5t-33 14.5l-50 10v36l154 -5l162 5v-36l-54 -10q-29 -6 -40 -16.5t-4 -31.5l175 -533l156 395l-45 138q-8 23 -18.5 33.5t-33.5 14.5l-50 10v36l194 -4l127 4v-36l-59 -12
q-20 -4 -30.5 -12t-16 -28.5t8.5 -55.5l168 -483l185 533q7 21 -4 31.5t-40 16.5l-54 10v36l157 -5l105 5v-36l-50 -10q-23 -4 -35 -14.5t-21 -32.5q-72 -186 -129.5 -340.5t-78.5 -215.5zM469 765l94 183h120l-175 -189z" />
    <glyph glyph-name="wacute" unicode="&#x1e83;" horiz-adv-x="775" 
d="M392 472h46l132 -364l82 285q4 21 -6 30.5t-39 17.5l-24 7v29l98 -5l94 5v-29l-20 -7q-25 -9 -32.5 -17t-16.5 -31l-143 -399h-40q-74 211 -134 373l-144 -373h-46q-51 168 -129 399q-7 23 -15 31t-33 17l-21 7v29l108 -5l132 5v-29l-35 -7q-28 -5 -37 -16t-2 -32
q26 -84 47 -155t29 -100l8 -30zM309 553l94 183h120l-175 -189z" />
    <glyph glyph-name="Wdieresis" unicode="&#x1e84;" horiz-adv-x="1123" 
d="M802 -6l-83 -10q-116 313 -154 433l-164 -423l-83 -10q-133 385 -220 627q-9 23 -20 33.5t-33 14.5l-50 10v36l154 -5l162 5v-36l-54 -10q-29 -6 -40 -16.5t-4 -31.5l175 -533l156 395l-45 138q-8 23 -18.5 33.5t-33.5 14.5l-50 10v36l194 -4l127 4v-36l-59 -12
q-20 -4 -30.5 -12t-16 -28.5t8.5 -55.5l168 -483l185 533q7 21 -4 31.5t-40 16.5l-54 10v36l157 -5l105 5v-36l-50 -10q-23 -4 -35 -14.5t-21 -32.5q-72 -186 -129.5 -340.5t-78.5 -215.5zM405 855q0 29 19.5 48.5t48.5 19.5t48.5 -19.5t19.5 -48.5t-19.5 -48.5t-48.5 -19.5
t-48.5 19.5t-19.5 48.5zM594 855q0 29 20 48.5t48 19.5t48 -19.5t20 -48.5t-20 -48.5t-48 -19.5t-48 19.5t-20 48.5z" />
    <glyph glyph-name="wdieresis" unicode="&#x1e85;" horiz-adv-x="775" 
d="M392 472h46l132 -364l82 285q4 21 -6 30.5t-39 17.5l-24 7v29l98 -5l94 5v-29l-20 -7q-25 -9 -32.5 -17t-16.5 -31l-143 -399h-40q-74 211 -134 373l-144 -373h-46q-51 168 -129 399q-7 23 -15 31t-33 17l-21 7v29l108 -5l132 5v-29l-35 -7q-28 -5 -37 -16t-2 -32
q26 -84 47 -155t29 -100l8 -30zM247 643q0 29 19.5 48.5t48.5 19.5t48.5 -19.5t19.5 -48.5t-19.5 -48.5t-48.5 -19.5t-48.5 19.5t-19.5 48.5zM436 643q0 29 20 48.5t48 19.5t48 -19.5t20 -48.5t-20 -48.5t-48 -19.5t-48 19.5t-20 48.5z" />
    <glyph glyph-name="Ygrave" unicode="&#x1ef2;" horiz-adv-x="697" 
d="M503 31v-36l-154 5l-153 -5v36l53 10q28 5 37 14.5t10 33.5q2 64 2 134v44q-69 118 -203 344q-14 22 -26.5 32.5t-34.5 15.5l-45 10v36l154 -5l157 5v-36l-54 -10q-60 -11 -40 -48l169 -303q64 106 167 300q22 40 -38 51l-54 10v36l153 -5l105 5v-36l-47 -10
q-22 -4 -34 -14.5t-25 -32.5l-202 -340v-49q0 -70 2 -134q1 -23 10 -33t37 -15zM362 948l93 -183l-37 -6l-177 189h121z" />
    <glyph glyph-name="ygrave" unicode="&#x1ef3;" horiz-adv-x="526" 
d="M89 -263l155 257h-10l-165 399q-10 25 -18.5 32.5t-30.5 15.5l-21 7v29l112 -5l130 5v-29l-35 -7q-29 -6 -38.5 -16.5t-0.5 -31.5l118 -311l119 311q7 20 -4 30t-41 18l-25 7v29l99 -5l94 5v-29l-21 -7q-25 -8 -32 -16t-17 -32l-277 -666zM267 736l93 -183l-37 -6
l-177 189h121z" />
    <glyph glyph-name="endash" unicode="&#x2013;" horiz-adv-x="730" 
d="M665 292h-600v50h600v-50z" />
    <glyph glyph-name="emdash" unicode="&#x2014;" horiz-adv-x="1256" 
d="M1191 292h-1126v50h1126v-50z" />
    <glyph glyph-name="quoteleft" unicode="&#x2018;" horiz-adv-x="275" 
d="M224 733l13 -25q-49 -24 -74.5 -55t-25.5 -62q0 -29 22.5 -51.5t64.5 -34.5q1 -2 1 -6q0 -23 -28.5 -50t-52.5 -27q-35 0 -65.5 32t-30.5 79q0 66 53 121.5t123 78.5z" />
    <glyph glyph-name="quoteright" unicode="&#x2019;" horiz-adv-x="283" 
d="M68 424l-13 25q49 24 74.5 55t25.5 62q0 29 -22.5 51.5t-64.5 34.5q-1 2 -1 6q0 23 28.5 50t52.5 27q35 0 65.5 -32t30.5 -79q0 -66 -53 -121.5t-123 -78.5z" />
    <glyph glyph-name="quotesinglbase" unicode="&#x201a;" horiz-adv-x="281" 
d="M51 -150l-13 25q49 24 74.5 55t25.5 62q0 29 -22.5 51.5t-64.5 34.5q-1 2 -1 6q0 23 28.5 50t52.5 27q35 0 65.5 -32t30.5 -79q0 -66 -53 -121.5t-123 -78.5z" />
    <glyph glyph-name="quotedblleft" unicode="&#x201c;" horiz-adv-x="489" 
d="M224 733l13 -25q-49 -24 -74.5 -55t-25.5 -62q0 -29 22.5 -51.5t64.5 -34.5q1 -2 1 -6q0 -23 -28.5 -50t-52.5 -27q-35 0 -65.5 32t-30.5 79q0 66 53 121.5t123 78.5zM439 733l13 -25q-49 -24 -74.5 -55t-25.5 -62q0 -29 22.5 -51.5t64.5 -34.5q1 -2 1 -6
q0 -23 -28.5 -50t-52.5 -27q-35 0 -65.5 32t-30.5 79q0 66 53 121.5t123 78.5z" />
    <glyph glyph-name="quotedblright" unicode="&#x201d;" horiz-adv-x="505" 
d="M68 424l-13 25q49 24 74.5 55t25.5 62q0 29 -22.5 51.5t-64.5 34.5q-1 2 -1 6q0 23 28.5 50t52.5 27q35 0 65.5 -32t30.5 -79q0 -66 -53 -121.5t-123 -78.5zM290 424l-13 25q49 24 74.5 55t25.5 62q0 29 -22.5 51.5t-64.5 34.5q-1 2 -1 6q0 23 28.5 50t52.5 27
q35 0 65.5 -32t30.5 -79q0 -66 -53 -121.5t-123 -78.5z" />
    <glyph glyph-name="quotedblbase" unicode="&#x201e;" horiz-adv-x="503" 
d="M51 -150l-13 25q49 24 74.5 55t25.5 62q0 29 -22.5 51.5t-64.5 34.5q-1 2 -1 6q0 23 28.5 50t52.5 27q35 0 65.5 -32t30.5 -79q0 -66 -53 -121.5t-123 -78.5zM273 -150l-13 25q49 24 74.5 55t25.5 62q0 29 -22.5 51.5t-64.5 34.5q-1 2 -1 6q0 23 28.5 50t52.5 27
q35 0 65.5 -32t30.5 -79q0 -66 -53 -121.5t-123 -78.5z" />
    <glyph glyph-name="dagger" unicode="&#x2020;" horiz-adv-x="507" 
d="M282 0h-69v410h-181v62h181v234h69v-234h193v-62h-193v-410z" />
    <glyph glyph-name="daggerdbl" unicode="&#x2021;" horiz-adv-x="528" 
d="M485 410h-192v-348h192v-62h-192v-234h-69v234h-181v62h181v348h-181v62h181v234h69v-234h192v-62z" />
    <glyph glyph-name="bullet" unicode="&#x2022;" horiz-adv-x="362" 
d="M60 347q0 51 35.5 86.5t85.5 35.5q51 0 86.5 -35.5t35.5 -86.5q0 -50 -35.5 -85.5t-86.5 -35.5q-50 0 -85.5 35.5t-35.5 85.5z" />
    <glyph glyph-name="ellipsis" unicode="&#x2026;" horiz-adv-x="952" 
d="M56 63q0 32 22.5 55t54.5 23t54.5 -23t22.5 -55t-22.5 -55t-54.5 -23t-54.5 23t-22.5 55zM399 63q0 32 22.5 55t54.5 23t54.5 -23t22.5 -55t-22.5 -55t-54.5 -23t-54.5 23t-22.5 55zM742 63q0 32 22.5 55t54.5 23t54.5 -23t22.5 -55t-22.5 -55t-54.5 -23t-54.5 23
t-22.5 55z" />
    <glyph glyph-name="perthousand" unicode="&#x2030;" horiz-adv-x="1156" 
d="M722 687l-622 -698l-28 29l621 694zM199 709q64 0 104 -51.5t40 -126.5t-40 -127t-104 -52t-104.5 52t-40.5 127t40 126.5t105 51.5zM199 385q66 0 66 146q0 147 -66 147t-66 -147q0 -146 66 -146zM599 343q65 0 105 -51.5t40 -126.5q0 -76 -40 -127.5t-105 -51.5
t-105 51.5t-40 127.5q0 75 40 126.5t105 51.5zM599 19q65 0 65 146t-65 146q-67 0 -67 -146t67 -146zM978 343q65 0 105 -51.5t40 -126.5q0 -76 -40 -127.5t-105 -51.5t-104.5 51.5t-39.5 127.5q0 75 39.5 126.5t104.5 51.5zM978 19q66 0 66 146t-66 146t-66 -146t66 -146z
" />
    <glyph glyph-name="guilsinglleft" unicode="&#x2039;" horiz-adv-x="356" 
d="M166 361v-12l143 -276h-33l-238 282l238 282h33z" />
    <glyph glyph-name="guilsinglright" unicode="&#x203a;" horiz-adv-x="356" 
d="M189 349v12l-142 276h32l238 -282l-238 -282h-32z" />
    <glyph glyph-name="fraction" unicode="&#x2044;" horiz-adv-x="270" 
d="M-193 16l627 708l26 -24l-627 -707z" />
    <glyph glyph-name="zerosuperior" unicode="&#x2070;" horiz-adv-x="375" 
d="M188 715q72 0 112.5 -59.5t40.5 -146.5t-40.5 -147t-112.5 -60t-113 60.5t-41 146.5q0 87 41 146.5t113 59.5zM188 334q76 0 76 175q0 173 -76 173t-76 -173q0 -175 76 -175z" />
    <glyph glyph-name="foursuperior" unicode="&#x2074;" horiz-adv-x="375" 
d="M210 373v57h-187v42q7 15 189 264l66 -7q-182 -212 -211 -262h143v5q0 50 -7 99l81 2v-106h58v-37h-58v-57q0 -10 4 -14t16 -7l32 -8v-28l-91 3l-89 -3v29l32 7q22 4 22 21z" />
    <glyph glyph-name="fivesuperior" unicode="&#x2075;" horiz-adv-x="375" 
d="M115 649l-1 -70q14 1 31 1q33 0 61.5 -6t56 -20t43.5 -41.5t16 -66.5q0 -65 -48 -104.5t-118 -39.5q-54 0 -83.5 18.5t-29.5 48.5q0 20 18.5 35t41.5 17l17 -14l2 -64q0 -9 34 -9q44 0 70 24t26 61q0 92 -133 92q-29 0 -50 -4l9 208l243 6l-3 -69q-28 -4 -122 -4z" />
    <glyph glyph-name="sixsuperior" unicode="&#x2076;" horiz-adv-x="375" 
d="M117 442q0 -39 20 -72t58 -33q36 0 54.5 26.5t18.5 66.5q0 44 -20.5 74.5t-55.5 30.5q-36 0 -55.5 -27t-19.5 -66zM192 302q-73 0 -114.5 49t-41.5 118q0 101 76 173t195 98l15 -27q-71 -24 -123.5 -65t-85.5 -116q33 43 99 43q56 0 94 -35t38 -98q0 -62 -43 -101
t-109 -39z" />
    <glyph glyph-name="sevensuperior" unicode="&#x2077;" horiz-adv-x="375" 
d="M169 307l-90 -6q10 30 24 61.5t32 62t33.5 55.5t36.5 54t33 44.5t31 40t22 28.5q-42 -10 -116 -10h-126l1 68h289v-43q-15 -24 -39 -64t-70.5 -134.5t-60.5 -156.5z" />
    <glyph glyph-name="eightsuperior" unicode="&#x2078;" horiz-adv-x="375" 
d="M121 626q0 -26 21.5 -43.5t61.5 -33.5q27 10 42.5 30.5t15.5 42.5q0 25 -18 44t-52 19q-31 0 -51 -16.5t-20 -42.5zM262 402q0 32 -24.5 51.5t-77.5 40.5q-23 -13 -37.5 -35.5t-14.5 -46.5q0 -35 23.5 -55t55.5 -20q31 0 53 16t22 49zM40 413q0 40 26.5 64.5t63.5 33.5
q-34 13 -57 40t-23 60q0 47 38.5 76.5t100.5 29.5q60 0 98.5 -26t38.5 -74q0 -29 -23 -52t-65 -32q45 -17 70.5 -46.5t25.5 -67.5q0 -47 -39 -82t-107 -35q-72 0 -110 33t-38 78z" />
    <glyph glyph-name="ninesuperior" unicode="&#x2079;" horiz-adv-x="375" 
d="M259 575q0 39 -20 72t-58 33q-36 0 -54.5 -26.5t-18.5 -66.5q0 -44 20.5 -74.5t55.5 -30.5q36 0 55.5 27t19.5 66zM184 715q73 0 114.5 -49t41.5 -118q0 -101 -76 -173t-195 -98l-15 27q71 24 123.5 65t85.5 116q-33 -43 -99 -43q-56 0 -94 35t-38 98q0 62 43 101t109 39
z" />
    <glyph glyph-name="zeroinferior" unicode="&#x2080;" horiz-adv-x="375" 
d="M188 406q72 0 112.5 -59.5t40.5 -146.5t-40.5 -147t-112.5 -60t-113 60.5t-41 146.5q0 87 41 146.5t113 59.5zM188 25q76 0 76 175q0 173 -76 173t-76 -173q0 -175 76 -175z" />
    <glyph glyph-name="oneinferior" unicode="&#x2081;" horiz-adv-x="375" 
d="M192 394h45v-336q0 -18 13 -19l59 -6v-33l-113 3l-107 -3v33l55 6q16 1 16 19v275l-85 -18v36z" />
    <glyph glyph-name="twoinferior" unicode="&#x2082;" horiz-adv-x="375" 
d="M47 0v32q102 92 142 137q36 40 45.5 64.5t9.5 51.5q0 37 -24 60.5t-64 23.5q-27 0 -27 -19v-63l-20 -15q-25 1 -43.5 14t-18.5 32q0 30 36.5 57.5t97.5 27.5q57 0 98 -28.5t41 -76.5q0 -31 -15.5 -57.5t-60.5 -68.5l-118 -109l202 4l-9 -68q-76 1 -163 1h-109z" />
    <glyph glyph-name="threeinferior" unicode="&#x2083;" horiz-adv-x="375" 
d="M157 -10q-54 0 -83.5 18.5t-29.5 48.5q0 20 18.5 35t41.5 17l17 -14l2 -64q0 -9 34 -9q41 0 69 25t28 62q0 47 -27 63t-72 16q-23 0 -49 -3l-4 38q65 0 102.5 21t37.5 58q0 26 -19 43.5t-58 17.5q-49 0 -89 -32l-14 28q16 17 54 32t75 15q49 0 83.5 -23.5t34.5 -67.5
q0 -28 -23 -52t-63 -35q40 -6 72 -31t32 -72q0 -62 -50 -98.5t-120 -36.5z" />
    <glyph glyph-name="fourinferior" unicode="&#x2084;" horiz-adv-x="375" 
d="M209 54v57h-187v42q7 15 189 264l66 -7q-182 -212 -211 -262h143v5q0 50 -7 99l81 2v-106h58v-37h-58v-57q0 -10 4 -14t16 -7l32 -8v-28l-91 3l-89 -3v29l32 7q22 4 22 21z" />
    <glyph glyph-name="fiveinferior" unicode="&#x2085;" horiz-adv-x="375" 
d="M114 337l-1 -70q14 1 31 1q33 0 61.5 -6t56 -20t43.5 -41.5t16 -66.5q0 -65 -48 -104.5t-118 -39.5q-54 0 -83.5 18.5t-29.5 48.5q0 20 18.5 35t41.5 17l17 -14l2 -64q0 -9 34 -9q44 0 70 24t26 61q0 92 -133 92q-29 0 -50 -4l9 208l243 6l-3 -69q-28 -4 -122 -4z" />
    <glyph glyph-name="sixinferior" unicode="&#x2086;" horiz-adv-x="375" 
d="M115 133q0 -39 20 -72t58 -33q36 0 54.5 26.5t18.5 66.5q0 44 -20.5 74.5t-55.5 30.5q-36 0 -55.5 -27t-19.5 -66zM190 -7q-73 0 -114.5 49t-41.5 118q0 101 76 173t195 98l15 -27q-71 -24 -123.5 -65t-85.5 -116q33 43 99 43q56 0 94 -35t38 -98q0 -62 -43 -101
t-109 -39z" />
    <glyph glyph-name="seveninferior" unicode="&#x2087;" horiz-adv-x="375" 
d="M170 -5l-90 -6q10 30 24 61.5t32 62t33.5 55.5t36.5 54t33 44.5t31 40t22 28.5q-42 -10 -116 -10h-126l1 68h289v-43q-15 -24 -39 -64t-70.5 -134.5t-60.5 -156.5z" />
    <glyph glyph-name="eightinferior" unicode="&#x2088;" horiz-adv-x="375" 
d="M121 315q0 -26 21.5 -43.5t61.5 -33.5q27 10 42.5 30.5t15.5 42.5q0 25 -18 44t-52 19q-31 0 -51 -16.5t-20 -42.5zM262 91q0 32 -24.5 51.5t-77.5 40.5q-23 -13 -37.5 -35.5t-14.5 -46.5q0 -35 23.5 -55t55.5 -20q31 0 53 16t22 49zM40 102q0 40 26.5 64.5t63.5 33.5
q-34 13 -57 40t-23 60q0 47 38.5 76.5t100.5 29.5q60 0 98.5 -26t38.5 -74q0 -29 -23 -52t-65 -32q45 -17 70.5 -46.5t25.5 -67.5q0 -47 -39 -82t-107 -35q-72 0 -110 33t-38 78z" />
    <glyph glyph-name="nineinferior" unicode="&#x2089;" horiz-adv-x="375" 
d="M260 265q0 39 -20 72t-58 33q-36 0 -54.5 -26.5t-18.5 -66.5q0 -44 20.5 -74.5t55.5 -30.5q36 0 55.5 27t19.5 66zM185 405q73 0 114.5 -49t41.5 -118q0 -101 -76 -173t-195 -98l-15 27q71 24 123.5 65t85.5 116q-33 -43 -99 -43q-56 0 -94 35t-38 98q0 62 43 101t109 39
z" />
    <glyph glyph-name="Euro" unicode="&#x20ac;" 
d="M9 454h77q23 118 91 189.5t174 71.5q87 0 140 -36l66 23l-7 -234h-32l-7 31q-11 49 -19.5 76t-25.5 53t-43.5 37t-66.5 11q-68 0 -114.5 -53t-59.5 -169h225v-39h-228q-1 -16 -1 -51q0 -22 2 -60h227v-39h-222q16 -101 65 -156t116 -55q61 0 106 31t80 108l23 -15
q-19 -90 -78.5 -141.5t-140.5 -51.5q-120 0 -189 77t-86 203h-72v39h68q-1 13 -1 41q0 39 4 70h-71v39z" />
    <glyph glyph-name="afii61289" unicode="&#x2113;" horiz-adv-x="399" 
d="M341 585q0 -140 -141 -275v-182q0 -99 58 -99q30 0 50 20.5t25 56.5l36 -17q-5 -40 -28.5 -64.5t-45.5 -31t-45 -6.5q-62 0 -104 40.5t-42 134.5v66q-33 -26 -52 -40l-17 41q15 10 32.5 23.5t26.5 21.5l10 7v280q0 78 31.5 115t96.5 37q52 0 80.5 -32.5t28.5 -95.5z
M198 603v-241q101 113 101 221q0 89 -54 89q-47 0 -47 -69z" />
    <glyph glyph-name="trademark" unicode="&#x2122;" horiz-adv-x="1066" 
d="M253 711l104 1l84 6l1 -112h-28l-6 30q-9 43 -43 43h-78v-292q0 -12 5 -17t19 -7l38 -5v-28l-97 2l-96 -2v28l36 5q14 2 19.5 7t5.5 17v292h-78q-34 0 -43 -43l-6 -30h-28l1 112q55 -6 84 -6zM879 387l-6 282l-124 -340h-37l-131 340v-282q0 -12 5.5 -17t19.5 -7l27 -5
v-28l-73 2l-75 -2v28l26 5q14 2 19 7t5 17l5 270q0 12 -5 17t-19 8l-27 5v28l86 -3l68 3l107 -285l94 267v18l72 -3l78 3v-28l-28 -5q-14 -3 -19 -8t-5 -17l7 -270q0 -12 5 -17t19 -7l27 -5v-28l-86 2l-87 -2v28l27 5q14 2 19.5 7t5.5 17z" />
    <glyph glyph-name="Omega" unicode="&#x2126;" horiz-adv-x="766" 
d="M383 681q-47 0 -86.5 -13t-72.5 -41t-52 -78.5t-19 -119.5q0 -189 165 -233v-199q-42 3 -80 3h-97l-47 -2l-9 180h30l11 -46q12 -51 64 -51h51q25 0 34 11.5t9 33.5v51q-108 14 -167.5 86.5t-59.5 160.5q0 129 87.5 210t238.5 81t239 -81t88 -210q0 -88 -60 -160.5
t-168 -86.5v-51q0 -22 9 -33.5t34 -11.5h52q51 0 63 51l11 46h30l-9 -180q-29 2 -46 2h-98q-40 0 -79 -3v199q164 44 164 233q0 69 -19 119.5t-52 78.5t-72.5 41t-86.5 13z" />
    <glyph glyph-name="estimated" unicode="&#x212e;" horiz-adv-x="912" 
d="M207 346v-180q0 -42 47 -77t105.5 -52t104.5 -17q82 0 154 30t122 86h48q-56 -71 -139.5 -109.5t-184.5 -38.5q-169 0 -290 111t-121 268q0 155 119.5 265t291.5 110q185 0 299 -110.5t114 -273.5h-661q-9 0 -9 -12zM216 391h497q9 0 9 9v174q0 43 -46.5 75.5
t-103.5 46.5t-108 14q-47 0 -104 -14t-105 -46.5t-48 -75.5v-174q0 -9 9 -9z" />
    <glyph glyph-name="onethird" unicode="&#x2153;" horiz-adv-x="1020" 
d="M767 -13q-54 0 -83.5 18.5t-29.5 48.5q0 20 18.5 35t41.5 17l17 -14l2 -64q0 -9 34 -9q41 0 69 25t28 62q0 47 -27 63t-72 16q-23 0 -49 -3l-4 38q65 0 102.5 21t37.5 58q0 26 -19 43.5t-58 17.5q-49 0 -89 -32l-14 28q16 17 54 32t75 15q49 0 83.5 -23.5t34.5 -67.5
q0 -28 -23 -52t-63 -35q40 -6 72 -31t32 -72q0 -62 -50 -98.5t-120 -36.5zM226 710h45v-336q0 -18 13 -19l59 -6v-33l-113 3l-107 -3v33l55 6q16 1 16 19v275l-85 -18v36zM185 16l627 708l26 -24l-627 -707z" />
    <glyph glyph-name="twothirds" unicode="&#x2154;" horiz-adv-x="1020" 
d="M89 314v32q102 92 142 137q36 40 45.5 64.5t9.5 51.5q0 37 -24 60.5t-64 23.5q-27 0 -27 -19v-63l-20 -15q-25 1 -43.5 14t-18.5 32q0 30 36.5 57.5t97.5 27.5q57 0 98 -28.5t41 -76.5q0 -31 -15.5 -57.5t-60.5 -68.5l-118 -109l202 4l-9 -68q-76 1 -163 1h-109zM185 16
l627 708l26 -24l-627 -707zM767 -13q-54 0 -83.5 18.5t-29.5 48.5q0 20 18.5 35t41.5 17l17 -14l2 -64q0 -9 34 -9q41 0 69 25t28 62q0 47 -27 63t-72 16q-23 0 -49 -3l-4 38q65 0 102.5 21t37.5 58q0 26 -19 43.5t-58 17.5q-49 0 -89 -32l-14 28q16 17 54 32t75 15
q49 0 83.5 -23.5t34.5 -67.5q0 -28 -23 -52t-63 -35q40 -6 72 -31t32 -72q0 -62 -50 -98.5t-120 -36.5z" />
    <glyph glyph-name="oneeighth" unicode="&#x215b;" horiz-adv-x="1020" 
d="M714 312q0 -26 21.5 -43.5t61.5 -33.5q27 10 42.5 30.5t15.5 42.5q0 25 -18 44t-52 19q-31 0 -51 -16.5t-20 -42.5zM855 88q0 32 -24.5 51.5t-77.5 40.5q-23 -13 -37.5 -35.5t-14.5 -46.5q0 -35 23.5 -55t55.5 -20q31 0 53 16t22 49zM633 99q0 40 26.5 64.5t63.5 33.5
q-34 13 -57 40t-23 60q0 47 38.5 76.5t100.5 29.5q60 0 98.5 -26t38.5 -74q0 -29 -23 -52t-65 -32q45 -17 70.5 -46.5t25.5 -67.5q0 -47 -39 -82t-107 -35q-72 0 -110 33t-38 78zM226 710h45v-336q0 -18 13 -19l59 -6v-33l-113 3l-107 -3v33l55 6q16 1 16 19v275l-85 -18v36
zM185 16l627 708l26 -24l-627 -707z" />
    <glyph glyph-name="threeeighths" unicode="&#x215c;" horiz-adv-x="1020" 
d="M205 302q-54 0 -83.5 18.5t-29.5 48.5q0 20 18.5 35t41.5 17l17 -14l2 -64q0 -9 34 -9q41 0 69 25t28 62q0 47 -27 63t-72 16q-23 0 -49 -3l-4 38q65 0 102.5 21t37.5 58q0 26 -19 43.5t-58 17.5q-49 0 -89 -32l-14 28q16 17 54 32t75 15q49 0 83.5 -23.5t34.5 -67.5
q0 -28 -23 -52t-63 -35q40 -6 72 -31t32 -72q0 -62 -50 -98.5t-120 -36.5zM185 16l627 708l26 -24l-627 -707zM714 312q0 -26 21.5 -43.5t61.5 -33.5q27 10 42.5 30.5t15.5 42.5q0 25 -18 44t-52 19q-31 0 -51 -16.5t-20 -42.5zM855 88q0 32 -24.5 51.5t-77.5 40.5
q-23 -13 -37.5 -35.5t-14.5 -46.5q0 -35 23.5 -55t55.5 -20q31 0 53 16t22 49zM633 99q0 40 26.5 64.5t63.5 33.5q-34 13 -57 40t-23 60q0 47 38.5 76.5t100.5 29.5q60 0 98.5 -26t38.5 -74q0 -29 -23 -52t-65 -32q45 -17 70.5 -46.5t25.5 -67.5q0 -47 -39 -82t-107 -35
q-72 0 -110 33t-38 78z" />
    <glyph glyph-name="fiveeighths" unicode="&#x215d;" horiz-adv-x="1020" 
d="M185 16l627 708l26 -24l-627 -707zM714 312q0 -26 21.5 -43.5t61.5 -33.5q27 10 42.5 30.5t15.5 42.5q0 25 -18 44t-52 19q-31 0 -51 -16.5t-20 -42.5zM855 88q0 32 -24.5 51.5t-77.5 40.5q-23 -13 -37.5 -35.5t-14.5 -46.5q0 -35 23.5 -55t55.5 -20q31 0 53 16t22 49z
M633 99q0 40 26.5 64.5t63.5 33.5q-34 13 -57 40t-23 60q0 47 38.5 76.5t100.5 29.5q60 0 98.5 -26t38.5 -74q0 -29 -23 -52t-65 -32q45 -17 70.5 -46.5t25.5 -67.5q0 -47 -39 -82t-107 -35q-72 0 -110 33t-38 78zM166 649l-1 -70q14 1 31 1q33 0 61.5 -6t56 -20t43.5 -41.5
t16 -66.5q0 -65 -48 -104.5t-118 -39.5q-54 0 -83.5 18.5t-29.5 48.5q0 20 18.5 35t41.5 17l17 -14l2 -64q0 -9 34 -9q44 0 70 24t26 61q0 92 -133 92q-29 0 -50 -4l9 208l243 6l-3 -69q-28 -4 -122 -4z" />
    <glyph glyph-name="seveneighths" unicode="&#x215e;" horiz-adv-x="1020" 
d="M205 307l-90 -6q10 30 24 61.5t32 62t33.5 55.5t36.5 54t33 44.5t31 40t22 28.5q-42 -10 -116 -10h-126l1 68h289v-43q-15 -24 -39 -64t-70.5 -134.5t-60.5 -156.5zM185 16l627 708l26 -24l-627 -707zM714 312q0 -26 21.5 -43.5t61.5 -33.5q27 10 42.5 30.5t15.5 42.5
q0 25 -18 44t-52 19q-31 0 -51 -16.5t-20 -42.5zM855 88q0 32 -24.5 51.5t-77.5 40.5q-23 -13 -37.5 -35.5t-14.5 -46.5q0 -35 23.5 -55t55.5 -20q31 0 53 16t22 49zM633 99q0 40 26.5 64.5t63.5 33.5q-34 13 -57 40t-23 60q0 47 38.5 76.5t100.5 29.5q60 0 98.5 -26
t38.5 -74q0 -29 -23 -52t-65 -32q45 -17 70.5 -46.5t25.5 -67.5q0 -47 -39 -82t-107 -35q-72 0 -110 33t-38 78z" />
    <glyph glyph-name="partialdiff" unicode="&#x2202;" horiz-adv-x="557" 
d="M276 489q56 0 97 -29q-43 91 -118 175.5t-122 112.5l20 21q155 -71 258 -220.5t103 -306.5q0 -116 -67 -186.5t-174 -70.5q-92 0 -161 64.5t-69 183.5q0 114 61.5 185t171.5 71zM280 22q52 0 85.5 34.5t44.5 78t11 93.5q0 113 -41.5 168.5t-102.5 55.5q-52 0 -85.5 -34.5
t-44.5 -78t-11 -93.5q0 -109 42 -166.5t102 -57.5z" />
    <glyph glyph-name="Delta" unicode="&#x2206;" horiz-adv-x="755" 
d="M30 0l-1 37l298 681h100l299 -680v-38h-696zM608 41l-263 618l-268 -618h531z" />
    <glyph glyph-name="product" unicode="&#x220f;" horiz-adv-x="882" 
d="M584 659h-286q-27 0 -37 -11t-12 -38q-3 -96 -3 -261l3 -260q1 -23 11 -33t38 -15l54 -10v-36l-154 5l-153 -5v36l53 10q28 5 38 15t11 33q3 95 3 260l-3 261q-2 26 -11 35t-38 14l-53 10v36l153 -5h486l154 5v-36l-54 -10q-28 -5 -37.5 -14.5t-11.5 -34.5
q-3 -96 -3 -261l3 -260q1 -23 11 -33t38 -15l54 -10v-36l-154 5l-153 -5v36l53 10q28 5 38 15t11 33q3 95 3 260l-3 261q-2 27 -12 38t-37 11z" />
    <glyph glyph-name="summation" unicode="&#x2211;" horiz-adv-x="669" 
d="M390 368l-289 -322h326q43 0 70 15t54 65l47 86h34l-34 -217q-136 5 -196 5h-241l-134 -5v36l270 304l-270 334v36l154 -5h251q26 0 66 3t66 5l27 3q-8 -61 -18 -203h-36l-12 49q-13 50 -30.5 74t-46.5 24h-267q-10 0 -13 -5t2 -11z" />
    <glyph glyph-name="minus" unicode="&#x2212;" 
d="M64 375h462v-39h-462v39z" />
    <glyph glyph-name="uni2215" unicode="&#x2215;" horiz-adv-x="614" 
d="M-21 16l627 708l26 -24l-627 -707z" />
    <glyph glyph-name="uni2219" unicode="&#x2219;" horiz-adv-x="268" 
d="M60 357q0 31 21.5 52.5t52.5 21.5t52.5 -21.5t21.5 -52.5t-21.5 -52.5t-52.5 -21.5t-52.5 21.5t-21.5 52.5z" />
    <glyph glyph-name="radical" unicode="&#x221a;" 
d="M250 -192h-44l-188 492h48l164 -438l307 852h48z" />
    <glyph glyph-name="infinity" unicode="&#x221e;" horiz-adv-x="962" 
d="M112 361q0 -52 15 -89.5t39.5 -55.5t49.5 -26t52 -8q125 0 197 179q-72 179 -197 179q-27 0 -52 -8t-49.5 -26t-39.5 -55.5t-15 -89.5zM479 393h4q62 182 211 182q81 0 137 -55.5t56 -158.5t-56 -158.5t-137 -55.5q-149 0 -211 182h-4q-62 -182 -211 -182
q-81 0 -137 55.5t-56 158.5t56 158.5t137 55.5q149 0 211 -182zM850 361q0 52 -15 89.5t-39.5 55.5t-49.5 26t-52 8q-125 0 -197 -179q72 -179 197 -179q27 0 52 8t49.5 26t39.5 55.5t15 89.5z" />
    <glyph glyph-name="integral" unicode="&#x222b;" horiz-adv-x="562" 
d="M324 469v-442q0 -77 -21 -134.5t-57 -89.5t-77.5 -47t-88.5 -15q-33 0 -66.5 12t-33.5 32q0 17 24 46.5t47 29.5q1 0 13 -15.5t33 -31.5t44 -16q53 0 75 48t22 184v442q0 77 21 134.5t57 89.5t77.5 47t88.5 15q33 0 66.5 -12t33.5 -32q0 -17 -24 -46.5t-47 -29.5
q-1 0 -13 16t-33 31.5t-44 15.5q-53 0 -75 -48t-22 -184z" />
    <glyph glyph-name="approxequal" unicode="&#x2248;" 
d="M105 419h-38q0 55 31.5 86t78.5 31q38 0 120 -45t119 -45q69 0 69 70h38q0 -54 -30.5 -81.5t-79.5 -27.5q-42 0 -123.5 44t-115.5 44q-32 0 -50.5 -19t-18.5 -57zM105 199h-38q0 55 31.5 86t78.5 31q38 0 120 -45t119 -45q69 0 69 70h38q0 -54 -30.5 -81.5t-79.5 -27.5
q-42 0 -123.5 44t-115.5 44q-32 0 -50.5 -19t-18.5 -57z" />
    <glyph glyph-name="notequal" unicode="&#x2260;" 
d="M62 466h269l71 121h44l-71 -121h149v-39h-172l-81 -138h253v-39h-276l-73 -126h-43l73 126h-143v39h166l80 138h-246v39z" />
    <glyph glyph-name="lessequal" unicode="&#x2264;" 
d="M93 352l423 -164v-43l-462 183v61l462 183v-43l-423 -164v-13zM516 0h-462v39h462v-39z" />
    <glyph glyph-name="greaterequal" unicode="&#x2265;" 
d="M73 188l424 164v13l-424 164v43l463 -183v-61l-463 -183v43zM536 0h-463v39h463v-39z" />
    <glyph glyph-name="lozenge" unicode="&#x25ca;" 
d="M312 711l207 -354l-207 -357h-35l-207 357l207 354h35zM294 673l-178 -316l178 -320l179 320z" />
    <glyph glyph-name="fi" unicode="&#xfb01;" horiz-adv-x="591" 
d="M198 469l154 5q27 1 53.5 6t40.5 10l13 5h36q-3 -73 -3 -170v-246q0 -23 10 -32t39 -16l30 -7v-29l-122 5l-123 -5v29l30 7q29 7 39 16.5t10 31.5v344l-207 14v-352q0 -24 9 -35t36 -16l53 -10v-29l-142 5l-123 -5v29l31 7q29 7 39 16.5t10 31.5v357h-76v34h76
q0 77 23 135t61 90t81 47.5t90 15.5q33 0 66.5 -12t33.5 -32q0 -16 -24 -41t-47 -25q-1 0 -12.5 15t-32 29.5t-43.5 14.5q-56 0 -83 -51q-26 -49 -26 -187z" />
    <glyph glyph-name="fl" unicode="&#xfb02;" 
d="M35 470h76q0 77 22.5 135t60 90t80 47.5t89.5 15.5q58 0 89 -23l12 10h31q-3 -137 -3 -221v-445q0 -23 10 -32.5t39 -15.5l35 -7v-29l-127 5l-124 -5v29l31 7q29 6 39 15.5t10 32.5v569q0 21 -30.5 40t-67.5 19q-56 0 -83 -51q-26 -49 -26 -187l118 7l-8 -56l-110 17
v-352q0 -24 9 -35t36 -16l53 -10v-29l-142 5l-123 -5v29l31 7q29 7 39 16.5t10 31.5v357h-76v34z" />
    <glyph glyph-name="ffi" unicode="&#xfb03;" horiz-adv-x="885" 
d="M198 470h207q0 77 23 135t61 90t81 47.5t90 15.5q33 0 66.5 -12t33.5 -32q0 -16 -24 -41t-47 -25q-1 0 -12.5 15t-32 29.5t-43.5 14.5q-56 0 -83 -51q-26 -49 -26 -187l154 5q27 0 53.5 5t40.5 11l13 5h36q-3 -73 -3 -170v-246q0 -22 10 -31.5t39 -16.5l30 -7v-29l-122 5
l-123 -5v29l30 7q29 7 39 16.5t10 31.5v344l-207 14v-352q0 -24 9.5 -35t35.5 -16l54 -10v-29l-143 5l-122 -5v29l30 7q29 7 39 16.5t10 31.5v357h-207v-351q0 -24 9 -35t36 -16l53 -10v-29l-142 5l-123 -5v29l31 7q29 7 39 16.5t10 31.5v357h-76v34h76q0 65 18.5 115
t49.5 78.5t66.5 43t73.5 14.5q33 0 61 -7.5t28 -22.5q0 -17 -19 -41t-41 -24q-1 0 -10.5 12t-27 24t-36.5 12q-50 0 -67 -67q-9 -35 -9 -137z" />
    <glyph glyph-name="ffl" unicode="&#xfb04;" horiz-adv-x="884" 
d="M492 469l118 7l-8 -56l-110 17v-352q0 -24 9 -35t36 -16l53 -10v-29l-142 5l-123 -5v29l31 7q29 7 39 16.5t10 31.5v357h-207v-351q0 -24 9 -35t36 -16l53 -10v-29l-142 5l-123 -5v29l31 7q29 7 39 16.5t10 31.5v357h-76v34h76q0 65 18.5 115t49.5 78.5t66.5 43
t73.5 14.5q33 0 61 -7.5t28 -22.5q0 -17 -19 -41t-41 -24q-1 0 -10.5 12t-27 24t-36.5 12q-50 0 -67 -67q-9 -35 -9 -137h207q0 77 22.5 135t60 90t80 47.5t89.5 15.5q58 0 89 -23l12 10h31q-3 -137 -3 -221v-445q0 -23 10 -32.5t39 -15.5l35 -7v-29l-127 5l-124 -5v29l31 7
q29 6 39 15.5t10 32.5v569q0 21 -30.5 40t-67.5 19q-56 0 -83 -51q-26 -49 -26 -187z" />
    <glyph glyph-name="apple" horiz-adv-x="1209" 
d="M1058 734q48 -49 74.5 -118t26.5 -143q0 -85 -32 -168t-84 -151.5t-121.5 -130t-141.5 -107t-146 -78.5q-16 -8 -31 -8t-31 8q-97 44 -187 107.5t-166.5 144.5t-122.5 181.5t-46 203.5q0 74 27 143t75 119q92 93 235 93q124 0 222 -86q94 84 217 84q141 0 232 -94z
M1115 474q0 67 -24.5 128.5t-69.5 105.5q-82 79 -198 79q-121 0 -218 -87q-102 88 -221 88q-114 0 -195 -78q-45 -44 -70 -106.5t-25 -130.5q0 -137 90 -268q67 -98 171 -180q53 -43 113.5 -80.5t87.5 -51t38 -17.5q9 -4 18 0q11 4 38 17.5t88 51t115 79.5q106 83 171 179
q91 133 91 271zM823 751q103 0 172 -69q83 -81 83 -209q0 -125 -84 -250q-62 -89 -164 -170q-108 -86 -227 -143q-116 56 -226 144q-103 82 -163 172q-83 120 -83 248t84 210q71 68 172 68t192 -77q-55 -58 -99 -135q-77 -135 -123 -319l-50 10q-7 2 -13.5 -2t-7.5 -11
q-4 -16 14 -20l135 -29q16 -4 20 13q3 17 -13 21l-48 10q39 155 100 274q52 -19 109 -19q60 0 112 20q62 -124 98 -276l-48 -10q-16 -4 -14 -20q4 -18 21 -14l135 28q17 4 13 20q-1 7 -7 11.5t-13 2.5l-49 -10l-1 1v2q-47 186 -123 320q-43 78 -95 131q90 77 191 77zM752 97
q0 7 -5 12.5t-13 5.5h-179q34 18 57 32.5t53.5 39t46.5 54.5t16 63q0 50 -33 87t-90 37q-56 0 -93.5 -32.5t-37.5 -83.5q0 -36 24.5 -64.5t62.5 -28.5q30 0 54 19t24 54q0 23 -11.5 33.5t-24.5 10.5q-14 0 -23.5 -9.5t-9.5 -22.5q0 -17 15 -27q1 -1 0 -6.5t-7.5 -10.5
t-18.5 -5q-22 0 -34.5 18.5t-12.5 39.5q0 36 25 58t66 22q40 0 62.5 -26t22.5 -62q0 -68 -109 -139q-22 -14 -46.5 -27t-38.5 -20.5t-15 -8.5q-8 -10 -4 -20q5 -11 17 -11h241q19 0 19 18zM796 595l26 -50q11 -22 35 -30q29 -8 55 7q25 13 34.5 39.5t-2.5 49.5l-33 67
q-3 7 -11 9t-14 -1l-135 -74q-16 -9 -7 -25t25 -7zM1036 403l-40 89q-3 7 -10 10q-8 2 -14 -1l-129 -62q-16 -9 -9 -24l47 -105q7 -16 23 -9q7 3 10 10t0 13l-40 90l33 15l15 -33q7 -16 24 -9q16 7 9 24l-15 34l31 15l32 -72q7 -16 24 -9q16 7 9 24zM603 506q-48 0 -92 14
q47 82 94 130q43 -44 93 -129q-44 -15 -95 -15zM357 597l-98 -22q-18 -4 -14 -22t22 -14l104 23l9 -22q-7 -9 -7 -18q0 -10 7.5 -18t18.5 -8t17 8q13 12 4 34l-63 159q-7 17 -24 10t-10 -24zM214 362l17 50l114 -40q18 -7 23 11q3 7 -0.5 14t-10.5 9l-115 41l15 47
q5 18 -12 23q-7 2 -14 -1.5t-9 -10.5l-43 -132q-2 -7 1.5 -14t10.5 -9q18 -5 23 12zM854 561l-26 52l59 32l25 -50q5 -12 0 -24t-17 -18q-29 -13 -41 8zM571 3q0 -14 9.5 -23.5t22.5 -9.5t22.5 10t9.5 22q0 14 -9 23.5t-23 9.5t-23 -9.5t-9 -22.5zM426 655q0 -14 9.5 -23.5
t22.5 -9.5t22.5 10t9.5 22q0 14 -9 23.5t-23 9.5t-23 -9.5t-9 -22.5z" />
    <glyph glyph-name="zero.posf" horiz-adv-x="611" 
d="M63 273q0 122 65 205t178 83t177.5 -83t64.5 -205t-64.5 -205t-177.5 -83t-178 83t-65 205zM473 273q0 63 -16.5 110.5t-43 72t-53.5 36t-54 11.5q-28 0 -55 -11.5t-53.5 -36t-43 -72t-16.5 -110.5t16.5 -110.5t43 -72t53.5 -36t55 -11.5q27 0 54 11.5t53.5 36t43 72
t16.5 110.5z" />
    <glyph glyph-name="one.posf" horiz-adv-x="442" 
d="M236 543h55v-458q0 -37 34 -41l85 -9v-39l-172 4l-159 -4v39l76 9q40 4 40 41v360q0 13 -13 11l-127 -26v43z" />
    <glyph glyph-name="two.posf" horiz-adv-x="520" 
d="M59 -1v57q100 73 182 159q58 61 80.5 101.5t22.5 85.5q0 115 -125 115q-22 0 -40 -7t-18 -19v-95l-29 -17q-30 1 -51 19.5t-21 48.5q0 45 54 79.5t144 34.5q78 0 133.5 -41.5t55.5 -110.5q0 -52 -26.5 -90.5t-93.5 -91.5l-179 -144l319 8l-13 -93q-120 2 -249 2
q-125 0 -146 -1z" />
    <glyph glyph-name="three.posf" horiz-adv-x="533" 
d="M85 447l-20 30q86 84 210 84q78 0 121.5 -39.5t43.5 -95.5q0 -113 -159 -164q72 -2 133 -52t61 -135q0 -97 -72 -156t-181 -59q-89 0 -134 29t-45 76q0 31 24 50t58 21l22 -20v-96q0 -24 64 -24q82 0 124.5 45t42.5 107q0 65 -47.5 107t-140.5 42l-62 -3l2 56
q212 27 212 149q0 51 -32.5 76.5t-85.5 25.5q-73 0 -139 -54z" />
    <glyph glyph-name="four.posf" horiz-adv-x="527" 
d="M356 -130l-48 -1l3 209h-297v46q15 31 113 185t169 258l79 -3q-262 -353 -307 -439h243v16q0 108 -6 148l98 3v-167h105v-47h-105l2 -209z" />
    <glyph glyph-name="five.posf" horiz-adv-x="531" 
d="M381 52q0 60 -38 100t-90.5 55t-116.5 15q-26 0 -52 -3l16 328l366 9l-7 -94q-29 -5 -127 -5l-195 5l-8 -153q24 2 39 2q36 0 73 -5.5t78 -21.5t72 -40t51.5 -65.5t20.5 -93.5q0 -104 -75 -166.5t-173 -62.5q-77 0 -123.5 29t-46.5 75q0 31 23 49t55 20l22 -18v-95
q0 -24 62 -24q78 0 126 45t48 115z" />
    <glyph glyph-name="six.posf" horiz-adv-x="558" 
d="M155 210q0 -70 32.5 -126t98.5 -56q61 0 94.5 50.5t33.5 121.5q0 78 -35.5 129t-96.5 51t-94 -50t-33 -120zM282 -14q-110 0 -171.5 75.5t-61.5 188.5q0 172 111 297.5t300 173.5l13 -29q-230 -83 -333 -348l13 -4q49 89 165 89q81 0 138 -57t57 -158t-65 -164.5
t-166 -63.5z" />
    <glyph glyph-name="seven.posf" horiz-adv-x="504" 
d="M210 -125l-120 -11q30 93 80.5 196t107.5 191t90 135.5t63 86.5l-2 2q-77 -27 -200 -27h-190l1 98h443v-63q-9 -16 -24.5 -43t-57 -105.5t-76 -150t-68.5 -159.5t-47 -150z" />
    <glyph glyph-name="eight.posf" horiz-adv-x="579" 
d="M71 159q0 69 47.5 115.5t104.5 61.5q-54 23 -90 63.5t-36 96.5q0 79 60.5 124t143.5 45t136 -41t53 -113q0 -107 -133 -145q157 -64 157 -195q0 -71 -60 -128.5t-166 -57.5q-107 0 -162 54t-55 120zM426 145q0 64 -42.5 102.5t-130.5 71.5q-96 -56 -96 -156
q0 -59 36.5 -100t100.5 -41q60 0 96 34t36 89zM181 524q0 -49 33.5 -80t104.5 -62q46 18 71 54.5t25 79.5q0 53 -35.5 83.5t-83.5 30.5q-46 0 -80.5 -28.5t-34.5 -77.5z" />
    <glyph glyph-name="nine.posf" horiz-adv-x="558" 
d="M399 337q0 42 -11.5 81t-42.5 69t-75 30q-62 0 -95.5 -50t-33.5 -121q0 -77 35 -128t95 -51q62 0 95 49.5t33 120.5zM271 561q111 0 173.5 -76t62.5 -188q0 -172 -111.5 -298t-301.5 -174l-12 30q230 81 333 347l-14 5q-48 -89 -164 -89q-80 0 -137 57t-57 157
q0 101 64.5 165t163.5 64z" />
    <glyph glyph-name="zero.tosf" 
d="M52 273q0 122 65 205t178 83t177.5 -83t64.5 -205t-64.5 -205t-177.5 -83t-178 83t-65 205zM462 273q0 63 -16.5 110.5t-43 72t-53.5 36t-54 11.5q-28 0 -55 -11.5t-53.5 -36t-43 -72t-16.5 -110.5t16.5 -110.5t43 -72t53.5 -36t55 -11.5q27 0 54 11.5t53.5 36t43 72
t16.5 110.5z" />
    <glyph glyph-name="one.tosf" 
d="M313 543h55v-458q0 -37 34 -41l85 -9v-39l-172 4l-159 -4v39l76 9q40 4 40 41v360q0 13 -13 11l-127 -26v43z" />
    <glyph glyph-name="two.tosf" 
d="M94 -1v57q100 73 182 159q58 61 80.5 101.5t22.5 85.5q0 115 -125 115q-22 0 -40 -7t-18 -19v-95l-29 -17q-30 1 -51 19.5t-21 48.5q0 45 54 79.5t144 34.5q78 0 133.5 -41.5t55.5 -110.5q0 -52 -26.5 -90.5t-93.5 -91.5l-179 -144l319 8l-13 -93q-120 2 -249 2
q-125 0 -146 -1z" />
    <glyph glyph-name="three.tosf" 
d="M115 447l-20 30q86 84 210 84q78 0 121.5 -39.5t43.5 -95.5q0 -113 -159 -164q72 -2 133 -52t61 -135q0 -97 -72 -156t-181 -59q-89 0 -134 29t-45 76q0 31 24 50t58 21l22 -20v-96q0 -24 64 -24q82 0 124.5 45t42.5 107q0 65 -47.5 107t-140.5 42l-62 -3l2 56
q212 27 212 149q0 51 -32.5 76.5t-85.5 25.5q-73 0 -139 -54z" />
    <glyph glyph-name="four.tosf" 
d="M388 -130l-48 -1l3 209h-297v46q15 31 113 185t169 258l79 -3q-262 -353 -307 -439h243v16q0 108 -6 148l98 3v-167h105v-47h-105l2 -209z" />
    <glyph glyph-name="five.tosf" 
d="M412 52q0 60 -38 100t-90.5 55t-116.5 15q-27 0 -52 -3l16 328l366 9l-7 -94q-29 -5 -127 -5l-195 5l-8 -153q24 2 39 2q36 0 73 -5.5t78 -21.5t72 -40t51.5 -65.5t20.5 -93.5q0 -104 -75 -166.5t-173 -62.5q-77 0 -123.5 29t-46.5 75q0 31 23 49t55 20l22 -18v-95
q0 -24 62 -24q78 0 126 45t48 115z" />
    <glyph glyph-name="six.tosf" 
d="M174 210q0 -70 32.5 -126t98.5 -56q61 0 94.5 50.5t33.5 121.5q0 78 -35.5 129t-96.5 51t-94 -50t-33 -120zM301 -14q-110 0 -171.5 75.5t-61.5 188.5q0 172 111 297.5t300 173.5l13 -29q-230 -83 -333 -348l13 -4q49 89 165 89q81 0 138 -57t57 -158t-65 -164.5
t-166 -63.5z" />
    <glyph glyph-name="seven.tosf" 
d="M252 -125l-120 -11q30 93 80.5 196t107.5 191t90 135.5t63 86.5l-2 2q-77 -27 -200 -27h-190l1 98h443v-63q-9 -16 -24.5 -43t-57 -105.5t-76 -150t-68.5 -159.5t-47 -150z" />
    <glyph glyph-name="eight.tosf" 
d="M75 159q0 69 47.5 115.5t104.5 61.5q-54 23 -90 63.5t-36 96.5q0 79 60.5 124t143.5 45t136 -41t53 -113q0 -107 -133 -145q157 -64 157 -195q0 -71 -60 -128.5t-166 -57.5q-107 0 -162 54t-55 120zM430 145q0 64 -42.5 102.5t-130.5 71.5q-96 -56 -96 -156
q0 -59 36.5 -100t100.5 -41q60 0 96 34t36 89zM185 524q0 -49 33.5 -80t104.5 -62q46 18 71 54.5t25 79.5q0 53 -35.5 83.5t-83.5 30.5q-46 0 -80.5 -28.5t-34.5 -77.5z" />
    <glyph glyph-name="nine.tosf" 
d="M414 337q0 42 -11.5 81t-42.5 69t-75 30q-62 0 -95.5 -50t-33.5 -121q0 -77 35 -128t95 -51q62 0 95 49.5t33 120.5zM286 561q111 0 173.5 -76t62.5 -188q0 -172 -111.5 -298t-301.5 -174l-12 30q230 81 333 347l-14 5q-48 -89 -164 -89q-80 0 -137 57t-57 157
q0 101 64.5 165t163.5 64z" />
    <glyph glyph-name="zero.sups" horiz-adv-x="375" 
d="M188 861q72 0 112.5 -59.5t40.5 -146.5t-40.5 -147t-112.5 -60t-113 60.5t-41 146.5q0 87 41 146.5t113 59.5zM188 480q76 0 76 175q0 173 -76 173t-76 -173q0 -175 76 -175z" />
    <glyph glyph-name="one.sups" horiz-adv-x="375" 
d="M194 854h45v-336q0 -18 13 -19l59 -6v-33l-113 3l-107 -3v33l55 6q16 1 16 19v275l-85 -18v36z" />
    <glyph glyph-name="two.sups" horiz-adv-x="375" 
d="M46 456v32q102 92 142 137q36 40 45.5 64.5t9.5 51.5q0 37 -24 60.5t-64 23.5q-27 0 -27 -19v-63l-20 -15q-25 1 -43.5 14t-18.5 32q0 30 36.5 57.5t97.5 27.5q57 0 98 -28.5t41 -76.5q0 -31 -15.5 -57.5t-60.5 -68.5l-118 -109l202 4l-9 -68q-76 1 -163 1h-109z" />
    <glyph glyph-name="three.sups" horiz-adv-x="375" 
d="M156 448q-54 0 -83.5 18.5t-29.5 48.5q0 20 18.5 35t41.5 17l17 -14l2 -64q0 -9 34 -9q41 0 69 25t28 62q0 47 -27 63t-72 16q-23 0 -49 -3l-4 38q65 0 102.5 21t37.5 58q0 26 -19 43.5t-58 17.5q-49 0 -89 -32l-14 28q16 17 54 32t75 15q49 0 83.5 -23.5t34.5 -67.5
q0 -28 -23 -52t-63 -35q40 -6 72 -31t32 -72q0 -62 -50 -98.5t-120 -36.5z" />
    <glyph glyph-name="four.sups" horiz-adv-x="375" 
d="M211 510v57h-187v42q7 15 189 264l66 -7q-182 -212 -211 -262h143v5q0 50 -7 99l81 2v-106h58v-37h-58v-57q0 -10 4 -14t16 -7l32 -8v-28l-91 3l-89 -3v29l32 7q22 4 22 21z" />
    <glyph glyph-name="five.sups" horiz-adv-x="375" 
d="M116 793l-1 -70q14 1 31 1q33 0 61.5 -6t56 -20t43.5 -41.5t16 -66.5q0 -65 -48 -104.5t-118 -39.5q-54 0 -83.5 18.5t-29.5 48.5q0 20 18.5 35t41.5 17l17 -14l2 -64q0 -9 34 -9q44 0 70 24t26 61q0 92 -133 92q-29 0 -50 -4l9 208l243 6l-3 -69q-28 -4 -122 -4z" />
    <glyph glyph-name="six.sups" horiz-adv-x="375" 
d="M116 573q0 -39 20 -72t58 -33q36 0 54.5 26.5t18.5 66.5q0 44 -20.5 74.5t-55.5 30.5q-36 0 -55.5 -27t-19.5 -66zM191 433q-73 0 -114.5 49t-41.5 118q0 101 76 173t195 98l15 -27q-71 -24 -123.5 -65t-85.5 -116q33 43 99 43q56 0 94 -35t38 -98q0 -62 -43 -101
t-109 -39z" />
    <glyph glyph-name="seven.sups" horiz-adv-x="375" 
d="M169 457l-90 -6q10 30 24 61.5t32 62t33.5 55.5t36.5 54t33 44.5t31 40t22 28.5q-42 -10 -116 -10h-126l1 68h289v-43q-15 -24 -39 -64t-70.5 -134.5t-60.5 -156.5z" />
    <glyph glyph-name="eight.sups" horiz-adv-x="375" 
d="M121 770q0 -26 21.5 -43.5t61.5 -33.5q27 10 42.5 30.5t15.5 42.5q0 25 -18 44t-52 19q-31 0 -51 -16.5t-20 -42.5zM262 546q0 32 -24.5 51.5t-77.5 40.5q-23 -13 -37.5 -35.5t-14.5 -46.5q0 -35 23.5 -55t55.5 -20q31 0 53 16t22 49zM40 557q0 40 26.5 64.5t63.5 33.5
q-34 13 -57 40t-23 60q0 47 38.5 76.5t100.5 29.5q60 0 98.5 -26t38.5 -74q0 -29 -23 -52t-65 -32q45 -17 70.5 -46.5t25.5 -67.5q0 -47 -39 -82t-107 -35q-72 0 -110 33t-38 78z" />
    <glyph glyph-name="nine.sups" horiz-adv-x="375" 
d="M259 734q0 39 -20 72t-58 33q-36 0 -54.5 -26.5t-18.5 -66.5q0 -44 20.5 -74.5t55.5 -30.5q36 0 55.5 27t19.5 66zM184 874q73 0 114.5 -49t41.5 -118q0 -101 -76 -173t-195 -98l-15 27q71 24 123.5 65t85.5 116q-33 -43 -99 -43q-56 0 -94 35t-38 98q0 62 43 101t109 39
z" />
    <glyph glyph-name="zero.sinf" horiz-adv-x="375" 
d="M188 262q72 0 112.5 -59.5t40.5 -146.5t-40.5 -147t-112.5 -60t-113 60.5t-41 146.5q0 87 41 146.5t113 59.5zM188 -119q76 0 76 175q0 173 -76 173t-76 -173q0 -175 76 -175z" />
    <glyph glyph-name="one.sinf" horiz-adv-x="375" 
d="M194 256h45v-336q0 -18 13 -19l59 -6v-33l-113 3l-107 -3v33l55 6q16 1 16 19v275l-85 -18v36z" />
    <glyph glyph-name="two.sinf" horiz-adv-x="375" 
d="M46 -141v32q102 92 142 137q36 40 45.5 64.5t9.5 51.5q0 37 -24 60.5t-64 23.5q-27 0 -27 -19v-63l-20 -15q-25 1 -43.5 14t-18.5 32q0 30 36.5 57.5t97.5 27.5q57 0 98 -28.5t41 -76.5q0 -31 -15.5 -57.5t-60.5 -68.5l-118 -109l202 4l-9 -68q-76 1 -163 1h-109z" />
    <glyph glyph-name="three.sinf" horiz-adv-x="375" 
d="M157 -144q-54 0 -83.5 18.5t-29.5 48.5q0 20 18.5 35t41.5 17l17 -14l2 -64q0 -9 34 -9q41 0 69 25t28 62q0 47 -27 63t-72 16q-23 0 -49 -3l-4 38q65 0 102.5 21t37.5 58q0 26 -19 43.5t-58 17.5q-49 0 -89 -32l-14 28q16 17 54 32t75 15q49 0 83.5 -23.5t34.5 -67.5
q0 -28 -23 -52t-63 -35q40 -6 72 -31t32 -72q0 -62 -50 -98.5t-120 -36.5z" />
    <glyph glyph-name="four.sinf" horiz-adv-x="375" 
d="M210 -88v57h-187v42q7 15 189 264l66 -7q-182 -212 -211 -262h143v5q0 50 -7 99l81 2v-106h58v-37h-58v-57q0 -10 4 -14t16 -7l32 -8v-28l-91 3l-89 -3v29l32 7q22 4 22 21z" />
    <glyph glyph-name="five.sinf" horiz-adv-x="375" 
d="M115 196l-1 -70q14 1 31 1q33 0 61.5 -6t56 -20t43.5 -41.5t16 -66.5q0 -65 -48 -104.5t-118 -39.5q-54 0 -83.5 18.5t-29.5 48.5q0 20 18.5 35t41.5 17l17 -14l2 -64q0 -9 34 -9q44 0 70 23.5t26 61.5q0 92 -133 92q-29 0 -50 -4l9 208l243 6l-3 -69q-28 -4 -122 -4z
" />
    <glyph glyph-name="six.sinf" horiz-adv-x="375" 
d="M117 -26q0 -39 20 -72t58 -33q36 0 54.5 26.5t18.5 66.5q0 44 -20.5 74.5t-55.5 30.5q-36 0 -55.5 -27t-19.5 -66zM192 -166q-73 0 -114.5 49t-41.5 118q0 101 76 173t195 98l15 -27q-71 -24 -123.5 -65t-85.5 -116q33 43 99 43q56 0 94 -35t38 -98q0 -62 -43 -101
t-109 -39z" />
    <glyph glyph-name="seven.sinf" horiz-adv-x="375" 
d="M169 -144l-90 -6q10 30 24 61.5t32 62t33.5 55.5t36.5 54t33 44.5t31 40t22 28.5q-42 -10 -116 -10h-126l1 68h289v-43q-15 -24 -39 -64t-70.5 -134.5t-60.5 -156.5z" />
    <glyph glyph-name="eight.sinf" horiz-adv-x="375" 
d="M121 171q0 -26 21.5 -43.5t61.5 -33.5q27 10 42.5 30.5t15.5 42.5q0 25 -18 44t-52 19q-31 0 -51 -16.5t-20 -42.5zM262 -53q0 32 -24.5 51.5t-77.5 40.5q-23 -13 -37.5 -35.5t-14.5 -46.5q0 -35 23.5 -55t55.5 -20q31 0 53 16t22 49zM40 -42q0 40 26.5 64.5t63.5 33.5
q-34 13 -57 40t-23 60q0 47 38.5 76.5t100.5 29.5q60 0 98.5 -26t38.5 -74q0 -29 -23 -52t-65 -32q45 -17 70.5 -46.5t25.5 -67.5q0 -47 -39 -82t-107 -35q-72 0 -110 33t-38 78z" />
    <glyph glyph-name="nine.sinf" horiz-adv-x="375" 
d="M259 137q0 39 -20 72t-58 33q-36 0 -54.5 -26.5t-18.5 -66.5q0 -44 20.5 -74.5t55.5 -30.5q36 0 55.5 27t19.5 66zM184 277q73 0 114.5 -49t41.5 -118q0 -101 -76 -173t-195 -98l-15 27q71 24 123.5 65t85.5 116q-33 -43 -99 -43q-56 0 -94 35t-38 98q0 62 43 101t109 39
z" />
    <glyph glyph-name="guillemotleft.alt" horiz-adv-x="571" 
d="M166 361v-12l143 -276h-33l-238 282l238 282h33zM381 361v-12l143 -276h-33l-238 282l238 282h33z" />
    <glyph glyph-name="guillemotright.alt" horiz-adv-x="571" 
d="M404 349v12l-142 276h32l238 -282l-238 -282h-32zM189 349v12l-142 276h32l238 -282l-238 -282h-32z" />
    <glyph glyph-name="guilsinglleft.alt" horiz-adv-x="356" 
d="M166 361v-12l143 -276h-33l-238 282l238 282h33z" />
    <glyph glyph-name="guilsinglright.alt" horiz-adv-x="356" 
d="M189 349v12l-142 276h32l238 -282l-238 -282h-32z" />
    <glyph glyph-name="at.alt" horiz-adv-x="927" 
d="M559 157q-13 -27 -46.5 -51.5t-82.5 -24.5q-62 0 -99.5 36.5t-37.5 86.5q0 145 267 163v65q0 121 -95 121q-63 0 -63 -39v-80l-24 -16q-31 5 -52 23t-21 48q0 39 52 67.5t137 28.5q81 0 119 -37t38 -121q0 -39 -4 -127t-4 -108q0 -60 55 -60q54 0 90.5 38t51 88.5
t14.5 106.5q0 150 -100.5 251t-260.5 101q-90 0 -162.5 -33t-117 -88.5t-67.5 -124t-23 -144.5q0 -77 25.5 -148t73 -128t123 -91t167.5 -34q56 0 124.5 17.5t116.5 54.5l15 -22q-49 -44 -125 -67.5t-149 -23.5q-201 1 -326 122.5t-125 315.5q0 190 126.5 311.5t317.5 121.5
q184 -1 296 -114.5t112 -277.5q0 -129 -64 -206t-167 -77q-40 0 -69 20t-36 56zM384 222q0 -38 23.5 -61t59.5 -23q37 0 63 23.5t27 74.5l3 103q-31 -5 -45.5 -7.5t-44 -11.5t-45 -20t-28.5 -31t-13 -47z" />
    <glyph glyph-name="commaaccent" horiz-adv-x="306" 
d="M81 -319l-21 20q43 21 69 48t26 52t-19 44.5t-55 28.5q0 23 21.5 47t46.5 24q30 0 55.5 -27.5t25.5 -67.5q0 -56 -45 -103t-104 -66z" />
    <glyph glyph-name="hyphen.alt" horiz-adv-x="408" 
d="M340 323h-272v69h272v-69z" />
    <glyph glyph-name="endash.alt" horiz-adv-x="741" 
d="M671 332h-601v50h601v-50z" />
    <glyph glyph-name="emdash.alt" horiz-adv-x="1267" 
d="M1197 332h-1127v50h1127v-50z" />
    <glyph glyph-name="exclamdown.alt" horiz-adv-x="301" 
d="M135 479h30q10 -185 34 -331q15 -88 15 -104q0 -28 -17 -44t-46 -16q-31 0 -48 16t-17 44q0 16 15 104q24 146 34 331zM73 636q0 32 23 55t55 23t54.5 -23t22.5 -55t-22.5 -55t-54.5 -23t-55 23t-23 55z" />
    <glyph glyph-name="questiondown.alt" horiz-adv-x="433" 
d="M253 17q55 0 55 31v106l22 17q31 -1 52 -24t21 -56q0 -41 -43.5 -73.5t-123.5 -32.5q-90 0 -145.5 40.5t-55.5 114.5q0 47 30.5 96.5t66.5 83t66.5 69t30.5 58.5q0 19 -4 43l25 -6l30 -76q-3 -35 -26 -72t-48.5 -63.5t-46.5 -63.5t-21 -74q0 -53 28.5 -85.5t86.5 -32.5z
M314 637q0 -32 -22.5 -55t-54.5 -23t-54.5 23t-22.5 55t22.5 55t54.5 23t54.5 -23t22.5 -55z" />
    <glyph glyph-name="onefifth" horiz-adv-x="1020" 
d="M734 335l-1 -70q14 1 31 1q33 0 61.5 -6t56 -20t43.5 -41.5t16 -66.5q0 -65 -48 -104.5t-118 -39.5q-54 0 -83.5 18.5t-29.5 48.5q0 20 18.5 35t41.5 17l17 -14l2 -64q0 -9 34 -9q44 0 70 24t26 61q0 92 -133 92q-29 0 -50 -4l9 208l243 6l-3 -69q-28 -4 -122 -4z
M226 710h45v-336q0 -18 13 -19l59 -6v-33l-113 3l-107 -3v33l55 6q16 1 16 19v275l-85 -18v36zM185 16l627 708l26 -24l-627 -707z" />
    <glyph glyph-name="twofifths" horiz-adv-x="1020" 
d="M86 314v32q102 92 142 137q36 40 45.5 64.5t9.5 51.5q0 37 -24 60.5t-64 23.5q-27 0 -27 -19v-63l-20 -15q-25 1 -43.5 14t-18.5 32q0 30 36.5 57.5t97.5 27.5q57 0 98 -28.5t41 -76.5q0 -31 -15.5 -57.5t-60.5 -68.5l-118 -109l202 4l-9 -68q-76 1 -163 1h-109zM185 16
l627 708l26 -24l-627 -707zM734 335l-1 -70q14 1 31 1q33 0 61.5 -6t56 -20t43.5 -41.5t16 -66.5q0 -65 -48 -104.5t-118 -39.5q-54 0 -83.5 18.5t-29.5 48.5q0 20 18.5 35t41.5 17l17 -14l2 -64q0 -9 34 -9q44 0 70 24t26 61q0 92 -133 92q-29 0 -50 -4l9 208l243 6l-3 -69
q-28 -4 -122 -4z" />
    <glyph glyph-name="threefifths" horiz-adv-x="1020" 
d="M201 302q-54 0 -83.5 18.5t-29.5 48.5q0 20 18.5 35t41.5 17l17 -14l2 -64q0 -9 34 -9q41 0 69 25t28 62q0 47 -27 63t-72 16q-23 0 -49 -3l-4 38q65 0 102.5 21t37.5 58q0 26 -19 43.5t-58 17.5q-49 0 -89 -32l-14 28q16 17 54 32t75 15q49 0 83.5 -23.5t34.5 -67.5
q0 -28 -23 -52t-63 -35q40 -6 72 -31t32 -72q0 -62 -50 -98.5t-120 -36.5zM185 16l627 708l26 -24l-627 -707zM734 335l-1 -70q14 1 31 1q33 0 61.5 -6t56 -20t43.5 -41.5t16 -66.5q0 -65 -48 -104.5t-118 -39.5q-54 0 -83.5 18.5t-29.5 48.5q0 20 18.5 35t41.5 17l17 -14
l2 -64q0 -9 34 -9q44 0 70 24t26 61q0 92 -133 92q-29 0 -50 -4l9 208l243 6l-3 -69q-28 -4 -122 -4z" />
    <glyph glyph-name="fourfifths" horiz-adv-x="1020" 
d="M249 373v57h-187v42q7 15 189 264l66 -7q-182 -212 -211 -262h143v5q0 50 -7 99l81 2v-106h58v-37h-58v-57q0 -10 4 -14t16 -7l32 -8v-28l-91 3l-89 -3v29l32 7q22 4 22 21zM185 16l627 708l26 -24l-627 -707zM734 335l-1 -70q14 1 31 1q33 0 61.5 -6t56 -20t43.5 -41.5
t16 -66.5q0 -65 -48 -104.5t-118 -39.5q-54 0 -83.5 18.5t-29.5 48.5q0 20 18.5 35t41.5 17l17 -14l2 -64q0 -9 34 -9q44 0 70 24t26 61q0 92 -133 92q-29 0 -50 -4l9 208l243 6l-3 -69q-28 -4 -122 -4z" />
    <glyph glyph-name="onesixth" horiz-adv-x="1020" 
d="M685 128q0 -39 20 -72t58 -33q36 0 54.5 26.5t18.5 66.5q0 44 -20.5 74.5t-55.5 30.5q-36 0 -55.5 -27t-19.5 -66zM760 -12q-73 0 -114.5 49t-41.5 118q0 101 76 173t195 98l15 -27q-71 -24 -123.5 -65t-85.5 -116q33 43 99 43q56 0 94 -35t38 -98q0 -62 -43 -101
t-109 -39zM226 710h45v-336q0 -18 13 -19l59 -6v-33l-113 3l-107 -3v33l55 6q16 1 16 19v275l-85 -18v36zM185 16l627 708l26 -24l-627 -707z" />
    <glyph glyph-name="fivesixths" horiz-adv-x="1020" 
d="M185 16l627 708l26 -24l-627 -707zM685 128q0 -39 20 -72t58 -33q36 0 54.5 26.5t18.5 66.5q0 44 -20.5 74.5t-55.5 30.5q-36 0 -55.5 -27t-19.5 -66zM760 -12q-73 0 -114.5 49t-41.5 118q0 101 76 173t195 98l15 -27q-71 -24 -123.5 -65t-85.5 -116q33 43 99 43
q56 0 94 -35t38 -98q0 -62 -43 -101t-109 -39zM166 649l-1 -70q14 1 31 1q33 0 61.5 -6t56 -20t43.5 -41.5t16 -66.5q0 -65 -48 -104.5t-118 -39.5q-54 0 -83.5 18.5t-29.5 48.5q0 20 18.5 35t41.5 17l17 -14l2 -64q0 -9 34 -9q44 0 70 24t26 61q0 92 -133 92q-29 0 -50 -4
l9 208l243 6l-3 -69q-28 -4 -122 -4z" />
    <glyph glyph-name="oneseventh" horiz-adv-x="1020" 
d="M226 710h45v-336q0 -18 13 -19l59 -6v-33l-113 3l-107 -3v33l55 6q16 1 16 19v275l-85 -18v36zM185 16l627 708l26 -24l-627 -707zM789 -3l-90 -6q10 30 24 61.5t32 62t33.5 55.5t36.5 54t33 44.5t31 40t22 28.5q-42 -10 -116 -10h-126l1 68h289v-43q-15 -24 -39 -64
t-70.5 -134.5t-60.5 -156.5z" />
    <glyph glyph-name="twosevenths" horiz-adv-x="1020" 
d="M98 314v32q102 92 142 137q36 40 45.5 64.5t9.5 51.5q0 37 -24 60.5t-64 23.5q-27 0 -27 -19v-63l-20 -15q-25 1 -43.5 14t-18.5 32q0 30 36.5 57.5t97.5 27.5q57 0 98 -28.5t41 -76.5q0 -31 -15.5 -57.5t-60.5 -68.5l-118 -109l202 4l-9 -68q-76 1 -163 1h-109zM185 16
l627 708l26 -24l-627 -707zM789 -3l-90 -6q10 30 24 61.5t32 62t33.5 55.5t36.5 54t33 44.5t31 40t22 28.5q-42 -10 -116 -10h-126l1 68h289v-43q-15 -24 -39 -64t-70.5 -134.5t-60.5 -156.5z" />
    <glyph glyph-name="threesevenths" horiz-adv-x="1020" 
d="M210 302q-54 0 -83.5 18.5t-29.5 48.5q0 20 18.5 35t41.5 17l17 -14l2 -64q0 -9 34 -9q41 0 69 25t28 62q0 47 -27 63t-72 16q-23 0 -49 -3l-4 38q65 0 102.5 21t37.5 58q0 26 -19 43.5t-58 17.5q-49 0 -89 -32l-14 28q16 17 54 32t75 15q49 0 83.5 -23.5t34.5 -67.5
q0 -28 -23 -52t-63 -35q40 -6 72 -31t32 -72q0 -62 -50 -98.5t-120 -36.5zM185 16l627 708l26 -24l-627 -707zM789 -3l-90 -6q10 30 24 61.5t32 62t33.5 55.5t36.5 54t33 44.5t31 40t22 28.5q-42 -10 -116 -10h-126l1 68h289v-43q-15 -24 -39 -64t-70.5 -134.5t-60.5 -156.5
z" />
    <glyph glyph-name="foursevenths" horiz-adv-x="1020" 
d="M261 373v57h-187v42q7 15 189 264l66 -7q-182 -212 -211 -262h143v5q0 50 -7 99l81 2v-106h58v-37h-58v-57q0 -10 4 -14t16 -7l32 -8v-28l-91 3l-89 -3v29l32 7q22 4 22 21zM185 16l627 708l26 -24l-627 -707zM789 -3l-90 -6q10 30 24 61.5t32 62t33.5 55.5t36.5 54
t33 44.5t31 40t22 28.5q-42 -10 -116 -10h-126l1 68h289v-43q-15 -24 -39 -64t-70.5 -134.5t-60.5 -156.5z" />
    <glyph glyph-name="fivesevenths" horiz-adv-x="1020" 
d="M166 649l-1 -70q14 1 31 1q33 0 61.5 -6t56 -20t43.5 -41.5t16 -66.5q0 -65 -48 -104.5t-118 -39.5q-54 0 -83.5 18.5t-29.5 48.5q0 20 18.5 35t41.5 17l17 -14l2 -64q0 -9 34 -9q44 0 70 24t26 61q0 92 -133 92q-29 0 -50 -4l9 208l243 6l-3 -69q-28 -4 -122 -4zM185 16
l627 708l26 -24l-627 -707zM789 -3l-90 -6q10 30 24 61.5t32 62t33.5 55.5t36.5 54t33 44.5t31 40t22 28.5q-42 -10 -116 -10h-126l1 68h289v-43q-15 -24 -39 -64t-70.5 -134.5t-60.5 -156.5z" />
    <glyph glyph-name="sixsevenths" horiz-adv-x="1020" 
d="M172 442q0 -39 20 -72t58 -33q36 0 54.5 26.5t18.5 66.5q0 44 -20.5 74.5t-55.5 30.5q-36 0 -55.5 -27t-19.5 -66zM247 302q-73 0 -114.5 49t-41.5 118q0 101 76 173t195 98l15 -27q-71 -24 -123.5 -65t-85.5 -116q33 43 99 43q56 0 94 -35t38 -98q0 -62 -43 -101
t-109 -39zM789 -3l-90 -6q10 30 24 61.5t32 62t33.5 55.5t36.5 54t33 44.5t31 40t22 28.5q-42 -10 -116 -10h-126l1 68h289v-43q-15 -24 -39 -64t-70.5 -134.5t-60.5 -156.5zM185 16l627 708l26 -24l-627 -707z" />
    <glyph glyph-name="oneninth" horiz-adv-x="1020" 
d="M226 710h45v-336q0 -18 13 -19l59 -6v-33l-113 3l-107 -3v33l55 6q16 1 16 19v275l-85 -18v36zM185 16l627 708l26 -24l-627 -707zM861 278q0 39 -20 72t-58 33q-36 0 -54.5 -26.5t-18.5 -66.5q0 -44 20.5 -74.5t55.5 -30.5q36 0 55.5 27t19.5 66zM786 418
q73 0 114.5 -49t41.5 -118q0 -101 -76 -173t-195 -98l-15 27q71 24 123.5 65t85.5 116q-33 -43 -99 -43q-56 0 -94 35t-38 98q0 62 43 101t109 39z" />
    <glyph glyph-name="twoninths" horiz-adv-x="1020" 
d="M86 314v32q102 92 142 137q36 40 45.5 64.5t9.5 51.5q0 37 -24 60.5t-64 23.5q-27 0 -27 -19v-63l-20 -15q-25 1 -43.5 14t-18.5 32q0 30 36.5 57.5t97.5 27.5q57 0 98 -28.5t41 -76.5q0 -31 -15.5 -57.5t-60.5 -68.5l-118 -109l202 4l-9 -68q-76 1 -163 1h-109zM185 16
l627 708l26 -24l-627 -707zM861 278q0 39 -20 72t-58 33q-36 0 -54.5 -26.5t-18.5 -66.5q0 -44 20.5 -74.5t55.5 -30.5q36 0 55.5 27t19.5 66zM786 418q73 0 114.5 -49t41.5 -118q0 -101 -76 -173t-195 -98l-15 27q71 24 123.5 65t85.5 116q-33 -43 -99 -43q-56 0 -94 35
t-38 98q0 62 43 101t109 39z" />
    <glyph glyph-name="fourninths" horiz-adv-x="1020" 
d="M185 16l627 708l26 -24l-627 -707zM861 278q0 39 -20 72t-58 33q-36 0 -54.5 -26.5t-18.5 -66.5q0 -44 20.5 -74.5t55.5 -30.5q36 0 55.5 27t19.5 66zM786 418q73 0 114.5 -49t41.5 -118q0 -101 -76 -173t-195 -98l-15 27q71 24 123.5 65t85.5 116q-33 -43 -99 -43
q-56 0 -94 35t-38 98q0 62 43 101t109 39zM249 373v57h-187v42q7 15 189 264l66 -7q-182 -212 -211 -262h143v5q0 50 -7 99l81 2v-106h58v-37h-58v-57q0 -10 4 -14t16 -7l32 -8v-28l-91 3l-89 -3v29l32 7q22 4 22 21z" />
    <glyph glyph-name="fiveninths" horiz-adv-x="1020" 
d="M185 16l627 708l26 -24l-627 -707zM861 278q0 39 -20 72t-58 33q-36 0 -54.5 -26.5t-18.5 -66.5q0 -44 20.5 -74.5t55.5 -30.5q36 0 55.5 27t19.5 66zM786 418q73 0 114.5 -49t41.5 -118q0 -101 -76 -173t-195 -98l-15 27q71 24 123.5 65t85.5 116q-33 -43 -99 -43
q-56 0 -94 35t-38 98q0 62 43 101t109 39zM166 649l-1 -70q14 1 31 1q33 0 61.5 -6t56 -20t43.5 -41.5t16 -66.5q0 -65 -48 -104.5t-118 -39.5q-54 0 -83.5 18.5t-29.5 48.5q0 20 18.5 35t41.5 17l17 -14l2 -64q0 -9 34 -9q44 0 70 24t26 61q0 92 -133 92q-29 0 -50 -4
l9 208l243 6l-3 -69q-28 -4 -122 -4z" />
    <glyph glyph-name="sevenninths" horiz-adv-x="1020" 
d="M196 307l-90 -6q10 30 24 61.5t32 62t33.5 55.5t36.5 54t33 44.5t31 40t22 28.5q-42 -10 -116 -10h-126l1 68h289v-43q-15 -24 -39 -64t-70.5 -134.5t-60.5 -156.5zM185 16l627 708l26 -24l-627 -707zM861 278q0 39 -20 72t-58 33q-36 0 -54.5 -26.5t-18.5 -66.5
q0 -44 20.5 -74.5t55.5 -30.5q36 0 55.5 27t19.5 66zM786 418q73 0 114.5 -49t41.5 -118q0 -101 -76 -173t-195 -98l-15 27q71 24 123.5 65t85.5 116q-33 -43 -99 -43q-56 0 -94 35t-38 98q0 62 43 101t109 39z" />
    <glyph glyph-name="eightninths" horiz-adv-x="1020" 
d="M861 278q0 39 -20 72t-58 33q-36 0 -54.5 -26.5t-18.5 -66.5q0 -44 20.5 -74.5t55.5 -30.5q36 0 55.5 27t19.5 66zM786 418q73 0 114.5 -49t41.5 -118q0 -101 -76 -173t-195 -98l-15 27q71 24 123.5 65t85.5 116q-33 -43 -99 -43q-56 0 -94 35t-38 98q0 62 43 101t109 39
zM163 626q0 -26 21.5 -43.5t61.5 -33.5q27 10 42.5 30.5t15.5 42.5q0 25 -18 44t-52 19q-31 0 -51 -16.5t-20 -42.5zM304 402q0 32 -24.5 51.5t-77.5 40.5q-23 -13 -37.5 -35.5t-14.5 -46.5q0 -35 23.5 -55t55.5 -20q31 0 53 16t22 49zM82 413q0 40 26.5 64.5t63.5 33.5
q-34 13 -57 40t-23 60q0 47 38.5 76.5t100.5 29.5q60 0 98.5 -26t38.5 -74q0 -29 -23 -52t-65 -32q45 -17 70.5 -46.5t25.5 -67.5q0 -47 -39 -82t-107 -35q-72 0 -110 33t-38 78zM185 16l627 708l26 -24l-627 -707z" />
    <glyph glyph-name="J.alt" horiz-adv-x="378" 
d="M239 610v-631q0 -83 -42 -124.5t-104 -41.5q-94 0 -143 68l22 33q31 -39 84 -39q44 0 63 33.5t19 77.5v624q0 24 -10.5 34t-38.5 15l-54 10v36l154 -5l153 5v-36l-54 -10q-28 -5 -38.5 -15t-10.5 -34z" />
    <glyph glyph-name="Imacron" horiz-adv-x="395" 
d="M198 0l-154 -5v36l54 10q28 5 38 15t11 33q3 95 3 260l-3 261q-2 25 -11.5 34.5t-37.5 14.5l-54 10v36l154 -5l153 5v-36l-54 -10q-28 -5 -37.5 -14.5t-11.5 -34.5q-3 -96 -3 -261l3 -260q1 -23 11 -33t38 -15l54 -10v-36zM340 794h-286v60h286v-60z" />
    <glyph glyph-name="ibreve" horiz-adv-x="296" 
d="M148 629q36 0 59 10t31.5 30t10.5 33t2 35v5h37v-37q0 -69 -36.5 -111t-103.5 -42q-66 0 -102.5 42t-36.5 111v37h37v-5q0 -22 2 -35t10.5 -33t31 -30t58.5 -10zM110 79v218q0 53 -6 74t-26 28l-41 15v14l126 67h36q-2 -73 -2 -170v-246q0 -23 9.5 -32t38.5 -16l31 -7
v-29l-122 5l-124 -5v29l31 7q29 7 39 16.5t10 31.5z" />
    <glyph glyph-name="ff" horiz-adv-x="633" 
d="M198 470h207q0 77 23 135t61 90t81 47.5t90 15.5q33 0 66.5 -12t33.5 -32q0 -16 -24 -41t-47 -25q-1 0 -12.5 15t-32 29.5t-43.5 14.5q-56 0 -83 -51q-26 -49 -26 -187l118 7l-8 -56l-110 17v-352q0 -24 9.5 -35t35.5 -16l54 -10v-29l-143 5l-122 -5v29l30 7
q29 7 39 16.5t10 31.5v357h-207v-351q0 -24 9 -35t36 -16l53 -10v-29l-142 5l-123 -5v29l31 7q29 7 39 16.5t10 31.5v357h-76v34h76q0 65 18.5 115t49.5 78.5t66.5 43t73.5 14.5q33 0 61 -7.5t28 -22.5q0 -17 -19 -41t-41 -24q-1 0 -10.5 12t-27 24t-36.5 12q-50 0 -67 -67
q-9 -35 -9 -137z" />
    <glyph glyph-name="revcommaaccent" horiz-adv-x="306" 
d="M222 806l21 -20q-43 -21 -69 -48t-26 -52t19 -44.5t55 -28.5q0 -23 -21.5 -47t-46.5 -24q-30 0 -55.5 27.5t-25.5 67.5q0 56 45 103t104 66z" />
    <glyph glyph-name="zero.alt" horiz-adv-x="600" 
d="M299 712q112 0 178 -105t66 -257q0 -98 -28 -180t-84.5 -133.5t-131.5 -51.5q-111 0 -177 106.5t-66 258.5q0 151 66 256.5t177 105.5zM299 23q66 0 100.5 75t34.5 252t-34.5 250t-100.5 73t-100 -72.5t-34 -250.5q0 -177 34.5 -252t99.5 -75z" />
    <glyph glyph-name="one.alt" horiz-adv-x="439" 
d="M229 704h63q-5 -263 -5 -471q0 -61 2 -141q1 -38 47 -45l89 -12v-42l-194 7l-182 -7v42l83 12q53 7 53 45q1 164 1 236q0 201 -2 242t-13 41q-4 0 -136 -28v46z" />
    <glyph glyph-name="two.alt" horiz-adv-x="552" 
d="M47 -1v60q161 160 231 235q60 64 81 110t21 97q0 72 -35 118t-110 46q-28 0 -52 -10t-24 -34v-111l-25 -20q-36 1 -60.5 25.5t-24.5 58.5q0 50 62 94t163 44q93 0 153.5 -49.5t60.5 -135.5q0 -53 -28 -96.5t-104 -120.5l-211 -214l361 7l-17 -105q-117 2 -267 2
q-151 0 -175 -1z" />
    <glyph glyph-name="three.alt" horiz-adv-x="560" 
d="M84 594l-21 31q95 87 227 87q85 0 130.5 -41t45.5 -99q0 -67 -50 -111t-128 -58q77 -2 144.5 -56.5t67.5 -139.5q0 -100 -76 -161t-194 -61q-95 0 -143 30t-48 79q0 32 25.5 51.5t62.5 21.5l24 -20v-100q0 -24 70 -24q88 0 133 45.5t45 107.5q0 68 -51.5 113t-151.5 45
l-65 -3l2 59q228 30 228 153q0 46 -32.5 76t-96.5 30q-80 0 -148 -55z" />
    <glyph glyph-name="four.alt" horiz-adv-x="562" 
d="M323 89v112h-307v49q16 35 124 209t179 278l85 -3q-270 -377 -330 -483h249v18q0 128 -6 170l106 3v-191h113v-50h-113v-112q0 -23 10 -32.5t39 -15.5l44 -10v-36l-144 5l-141 -5v36l44 10q28 6 38 15.5t10 32.5z" />
    <glyph glyph-name="five.alt" horiz-adv-x="557" 
d="M236 23q79 0 130.5 46.5t51.5 112.5q0 50 -21.5 87.5t-58.5 58.5t-81 31t-95 10q-42 0 -82 -4l18 335l401 10l-7 -101q-32 -5 -131 -5l-222 2l-8 -142q26 2 50 2q44 0 86.5 -7t86 -24.5t76 -44t53 -68t20.5 -93.5q0 -97 -74.5 -170.5t-191.5 -73.5q-93 0 -142 30.5
t-49 78.5q0 32 25.5 51.5t62.5 21.5l24 -20v-100q0 -24 78 -24z" />
    <glyph glyph-name="six.alt" horiz-adv-x="589" 
d="M161 228q0 -46 13.5 -88.5t47 -75.5t82.5 -33q66 0 104 54.5t38 130.5q0 83 -40 137.5t-106 54.5t-102.5 -52.5t-36.5 -127.5zM300 -15q-118 0 -184.5 83t-66.5 204q0 184 118.5 317.5t323.5 185.5l14 -32q-248 -89 -358 -373l13 -3q25 44 71 69t106 25q87 0 149.5 -61.5
t62.5 -169.5q0 -106 -69.5 -175.5t-179.5 -69.5z" />
    <glyph glyph-name="seven.alt" horiz-adv-x="509" 
d="M208 -27l-129 -11q91 287 366 654l-2 3q-80 -30 -215 -30h-203l1 105h475v-67q-10 -17 -26.5 -46.5t-61 -113.5t-81 -161t-73.5 -171.5t-51 -161.5z" />
    <glyph glyph-name="eight.alt" horiz-adv-x="615" 
d="M71 171q0 74 51.5 124t112.5 67q-58 25 -97.5 68.5t-39.5 103.5q0 87 63 134t153 47t150 -44t60 -121q0 -113 -144 -156q171 -71 171 -210q0 -76 -65.5 -137.5t-180.5 -61.5t-174.5 58t-59.5 128zM455 157q0 68 -46 109.5t-141 76.5q-104 -60 -104 -167q0 -63 39.5 -107
t109.5 -44q64 0 103 36.5t39 95.5zM190 564q0 -53 36.5 -86.5t113.5 -65.5q49 19 76 58t27 85q0 57 -38 90t-90 33q-50 0 -87.5 -30.5t-37.5 -83.5z" />
    <glyph glyph-name="nine.alt" horiz-adv-x="577" 
d="M421 473q0 74 -36 133.5t-107 59.5q-66 0 -104 -54t-38 -129q0 -83 39.5 -136.5t105.5 -53.5t103 52.5t37 127.5zM281 712q119 0 185.5 -81t66.5 -202q0 -184 -118.5 -317.5t-323.5 -185.5l-14 32q248 89 358 373l-13 3q-53 -94 -171 -94q-87 0 -152.5 62t-65.5 169
q0 106 69 173.5t179 67.5z" />
    <glyph glyph-name="ct" horiz-adv-x="860" 
d="M136 246q0 -97 51 -146t119 -49q43 0 80 20t53 53l19 -28q-59 -111 -196 -111q-91 0 -155 62t-64 182q0 112 66.5 186t172.5 74q29 0 48 -4q-58 55 -58 111q0 48 37.5 80.5t110.5 32.5q30 0 64.5 -8t65.5 -18.5t41 -12.5q5 34 29 50.5t49 16.5q17 0 33.5 -12.5
t16.5 -31.5q0 -39 -34 -54q-7 -73 -9 -164h157l-7 -57l-150 15v-279q0 -67 18.5 -90t57.5 -23q21 0 46.5 12t35.5 30l16 -21q-13 -37 -50.5 -57t-80.5 -20q-59 0 -94.5 32t-35.5 94v313h-90v35l88 32v145q-10 1 -60 13t-79 12q-116 0 -116 -90q0 -48 34 -96q36 -13 54 -35.5
t18 -41.5q0 -30 -20.5 -49.5t-51.5 -23.5l-29 17v58q0 34 -10.5 43t-44.5 9q-64 0 -105 -54.5t-41 -151.5z" />
    </font>
</defs>
</svg>
